%TF.GenerationSoftware,KiCad,Pcbnew,7.0.2*%
%TF.CreationDate,2023-05-22T23:48:16+02:00*%
%TF.ProjectId,ToneLighter,546f6e65-4c69-4676-9874-65722e6b6963,rev?*%
%TF.SameCoordinates,Original*%
%TF.FileFunction,Legend,Top*%
%TF.FilePolarity,Positive*%
%FSLAX46Y46*%
G04 Gerber Fmt 4.6, Leading zero omitted, Abs format (unit mm)*
G04 Created by KiCad (PCBNEW 7.0.2) date 2023-05-22 23:48:16*
%MOMM*%
%LPD*%
G01*
G04 APERTURE LIST*
%ADD10C,0.150000*%
%ADD11C,0.100000*%
%ADD12C,0.300000*%
%ADD13C,0.120000*%
%ADD14C,0.127000*%
G04 APERTURE END LIST*
D10*
X68496666Y-60738095D02*
X68496666Y-61500000D01*
X79511904Y-69746666D02*
X78750000Y-69746666D01*
D11*
X68440476Y-66097333D02*
X69050000Y-66097333D01*
X68745238Y-66402095D02*
X68745238Y-65792571D01*
D10*
X73011904Y-69496666D02*
X72250000Y-69496666D01*
X72630952Y-69877619D02*
X72630952Y-69115714D01*
D12*
X119035714Y-44066428D02*
X119035714Y-45137857D01*
X119035714Y-45137857D02*
X118964285Y-45352142D01*
X118964285Y-45352142D02*
X118821428Y-45495000D01*
X118821428Y-45495000D02*
X118607142Y-45566428D01*
X118607142Y-45566428D02*
X118464285Y-45566428D01*
X120464285Y-45566428D02*
X119749999Y-45566428D01*
X119749999Y-45566428D02*
X119749999Y-44066428D01*
X121821428Y-45423571D02*
X121750000Y-45495000D01*
X121750000Y-45495000D02*
X121535714Y-45566428D01*
X121535714Y-45566428D02*
X121392857Y-45566428D01*
X121392857Y-45566428D02*
X121178571Y-45495000D01*
X121178571Y-45495000D02*
X121035714Y-45352142D01*
X121035714Y-45352142D02*
X120964285Y-45209285D01*
X120964285Y-45209285D02*
X120892857Y-44923571D01*
X120892857Y-44923571D02*
X120892857Y-44709285D01*
X120892857Y-44709285D02*
X120964285Y-44423571D01*
X120964285Y-44423571D02*
X121035714Y-44280714D01*
X121035714Y-44280714D02*
X121178571Y-44137857D01*
X121178571Y-44137857D02*
X121392857Y-44066428D01*
X121392857Y-44066428D02*
X121535714Y-44066428D01*
X121535714Y-44066428D02*
X121750000Y-44137857D01*
X121750000Y-44137857D02*
X121821428Y-44209285D01*
X122892857Y-44066428D02*
X122892857Y-45137857D01*
X122892857Y-45137857D02*
X122821428Y-45352142D01*
X122821428Y-45352142D02*
X122678571Y-45495000D01*
X122678571Y-45495000D02*
X122464285Y-45566428D01*
X122464285Y-45566428D02*
X122321428Y-45566428D01*
X124321428Y-45566428D02*
X123607142Y-45566428D01*
X123607142Y-45566428D02*
X123607142Y-44066428D01*
X125678571Y-45423571D02*
X125607143Y-45495000D01*
X125607143Y-45495000D02*
X125392857Y-45566428D01*
X125392857Y-45566428D02*
X125250000Y-45566428D01*
X125250000Y-45566428D02*
X125035714Y-45495000D01*
X125035714Y-45495000D02*
X124892857Y-45352142D01*
X124892857Y-45352142D02*
X124821428Y-45209285D01*
X124821428Y-45209285D02*
X124750000Y-44923571D01*
X124750000Y-44923571D02*
X124750000Y-44709285D01*
X124750000Y-44709285D02*
X124821428Y-44423571D01*
X124821428Y-44423571D02*
X124892857Y-44280714D01*
X124892857Y-44280714D02*
X125035714Y-44137857D01*
X125035714Y-44137857D02*
X125250000Y-44066428D01*
X125250000Y-44066428D02*
X125392857Y-44066428D01*
X125392857Y-44066428D02*
X125607143Y-44137857D01*
X125607143Y-44137857D02*
X125678571Y-44209285D01*
X126750000Y-44066428D02*
X126750000Y-45137857D01*
X126750000Y-45137857D02*
X126678571Y-45352142D01*
X126678571Y-45352142D02*
X126535714Y-45495000D01*
X126535714Y-45495000D02*
X126321428Y-45566428D01*
X126321428Y-45566428D02*
X126178571Y-45566428D01*
X128178571Y-45566428D02*
X127464285Y-45566428D01*
X127464285Y-45566428D02*
X127464285Y-44066428D01*
X129535714Y-45423571D02*
X129464286Y-45495000D01*
X129464286Y-45495000D02*
X129250000Y-45566428D01*
X129250000Y-45566428D02*
X129107143Y-45566428D01*
X129107143Y-45566428D02*
X128892857Y-45495000D01*
X128892857Y-45495000D02*
X128750000Y-45352142D01*
X128750000Y-45352142D02*
X128678571Y-45209285D01*
X128678571Y-45209285D02*
X128607143Y-44923571D01*
X128607143Y-44923571D02*
X128607143Y-44709285D01*
X128607143Y-44709285D02*
X128678571Y-44423571D01*
X128678571Y-44423571D02*
X128750000Y-44280714D01*
X128750000Y-44280714D02*
X128892857Y-44137857D01*
X128892857Y-44137857D02*
X129107143Y-44066428D01*
X129107143Y-44066428D02*
X129250000Y-44066428D01*
X129250000Y-44066428D02*
X129464286Y-44137857D01*
X129464286Y-44137857D02*
X129535714Y-44209285D01*
X130607143Y-44066428D02*
X130607143Y-45137857D01*
X130607143Y-45137857D02*
X130535714Y-45352142D01*
X130535714Y-45352142D02*
X130392857Y-45495000D01*
X130392857Y-45495000D02*
X130178571Y-45566428D01*
X130178571Y-45566428D02*
X130035714Y-45566428D01*
X132035714Y-45566428D02*
X131321428Y-45566428D01*
X131321428Y-45566428D02*
X131321428Y-44066428D01*
X133392857Y-45423571D02*
X133321429Y-45495000D01*
X133321429Y-45495000D02*
X133107143Y-45566428D01*
X133107143Y-45566428D02*
X132964286Y-45566428D01*
X132964286Y-45566428D02*
X132750000Y-45495000D01*
X132750000Y-45495000D02*
X132607143Y-45352142D01*
X132607143Y-45352142D02*
X132535714Y-45209285D01*
X132535714Y-45209285D02*
X132464286Y-44923571D01*
X132464286Y-44923571D02*
X132464286Y-44709285D01*
X132464286Y-44709285D02*
X132535714Y-44423571D01*
X132535714Y-44423571D02*
X132607143Y-44280714D01*
X132607143Y-44280714D02*
X132750000Y-44137857D01*
X132750000Y-44137857D02*
X132964286Y-44066428D01*
X132964286Y-44066428D02*
X133107143Y-44066428D01*
X133107143Y-44066428D02*
X133321429Y-44137857D01*
X133321429Y-44137857D02*
X133392857Y-44209285D01*
D10*
X113392857Y-61710952D02*
X113630952Y-62377619D01*
X113630952Y-62377619D02*
X113869047Y-61710952D01*
X114202381Y-61472857D02*
X114250000Y-61425238D01*
X114250000Y-61425238D02*
X114345238Y-61377619D01*
X114345238Y-61377619D02*
X114583333Y-61377619D01*
X114583333Y-61377619D02*
X114678571Y-61425238D01*
X114678571Y-61425238D02*
X114726190Y-61472857D01*
X114726190Y-61472857D02*
X114773809Y-61568095D01*
X114773809Y-61568095D02*
X114773809Y-61663333D01*
X114773809Y-61663333D02*
X114726190Y-61806190D01*
X114726190Y-61806190D02*
X114154762Y-62377619D01*
X114154762Y-62377619D02*
X114773809Y-62377619D01*
X115392857Y-61377619D02*
X115488095Y-61377619D01*
X115488095Y-61377619D02*
X115583333Y-61425238D01*
X115583333Y-61425238D02*
X115630952Y-61472857D01*
X115630952Y-61472857D02*
X115678571Y-61568095D01*
X115678571Y-61568095D02*
X115726190Y-61758571D01*
X115726190Y-61758571D02*
X115726190Y-61996666D01*
X115726190Y-61996666D02*
X115678571Y-62187142D01*
X115678571Y-62187142D02*
X115630952Y-62282380D01*
X115630952Y-62282380D02*
X115583333Y-62330000D01*
X115583333Y-62330000D02*
X115488095Y-62377619D01*
X115488095Y-62377619D02*
X115392857Y-62377619D01*
X115392857Y-62377619D02*
X115297619Y-62330000D01*
X115297619Y-62330000D02*
X115250000Y-62282380D01*
X115250000Y-62282380D02*
X115202381Y-62187142D01*
X115202381Y-62187142D02*
X115154762Y-61996666D01*
X115154762Y-61996666D02*
X115154762Y-61758571D01*
X115154762Y-61758571D02*
X115202381Y-61568095D01*
X115202381Y-61568095D02*
X115250000Y-61472857D01*
X115250000Y-61472857D02*
X115297619Y-61425238D01*
X115297619Y-61425238D02*
X115392857Y-61377619D01*
X116107143Y-61472857D02*
X116154762Y-61425238D01*
X116154762Y-61425238D02*
X116250000Y-61377619D01*
X116250000Y-61377619D02*
X116488095Y-61377619D01*
X116488095Y-61377619D02*
X116583333Y-61425238D01*
X116583333Y-61425238D02*
X116630952Y-61472857D01*
X116630952Y-61472857D02*
X116678571Y-61568095D01*
X116678571Y-61568095D02*
X116678571Y-61663333D01*
X116678571Y-61663333D02*
X116630952Y-61806190D01*
X116630952Y-61806190D02*
X116059524Y-62377619D01*
X116059524Y-62377619D02*
X116678571Y-62377619D01*
X117011905Y-61377619D02*
X117630952Y-61377619D01*
X117630952Y-61377619D02*
X117297619Y-61758571D01*
X117297619Y-61758571D02*
X117440476Y-61758571D01*
X117440476Y-61758571D02*
X117535714Y-61806190D01*
X117535714Y-61806190D02*
X117583333Y-61853809D01*
X117583333Y-61853809D02*
X117630952Y-61949047D01*
X117630952Y-61949047D02*
X117630952Y-62187142D01*
X117630952Y-62187142D02*
X117583333Y-62282380D01*
X117583333Y-62282380D02*
X117535714Y-62330000D01*
X117535714Y-62330000D02*
X117440476Y-62377619D01*
X117440476Y-62377619D02*
X117154762Y-62377619D01*
X117154762Y-62377619D02*
X117059524Y-62330000D01*
X117059524Y-62330000D02*
X117011905Y-62282380D01*
X118059524Y-61996666D02*
X118821429Y-61996666D01*
X119488095Y-61377619D02*
X119583333Y-61377619D01*
X119583333Y-61377619D02*
X119678571Y-61425238D01*
X119678571Y-61425238D02*
X119726190Y-61472857D01*
X119726190Y-61472857D02*
X119773809Y-61568095D01*
X119773809Y-61568095D02*
X119821428Y-61758571D01*
X119821428Y-61758571D02*
X119821428Y-61996666D01*
X119821428Y-61996666D02*
X119773809Y-62187142D01*
X119773809Y-62187142D02*
X119726190Y-62282380D01*
X119726190Y-62282380D02*
X119678571Y-62330000D01*
X119678571Y-62330000D02*
X119583333Y-62377619D01*
X119583333Y-62377619D02*
X119488095Y-62377619D01*
X119488095Y-62377619D02*
X119392857Y-62330000D01*
X119392857Y-62330000D02*
X119345238Y-62282380D01*
X119345238Y-62282380D02*
X119297619Y-62187142D01*
X119297619Y-62187142D02*
X119250000Y-61996666D01*
X119250000Y-61996666D02*
X119250000Y-61758571D01*
X119250000Y-61758571D02*
X119297619Y-61568095D01*
X119297619Y-61568095D02*
X119345238Y-61472857D01*
X119345238Y-61472857D02*
X119392857Y-61425238D01*
X119392857Y-61425238D02*
X119488095Y-61377619D01*
X120726190Y-61377619D02*
X120250000Y-61377619D01*
X120250000Y-61377619D02*
X120202381Y-61853809D01*
X120202381Y-61853809D02*
X120250000Y-61806190D01*
X120250000Y-61806190D02*
X120345238Y-61758571D01*
X120345238Y-61758571D02*
X120583333Y-61758571D01*
X120583333Y-61758571D02*
X120678571Y-61806190D01*
X120678571Y-61806190D02*
X120726190Y-61853809D01*
X120726190Y-61853809D02*
X120773809Y-61949047D01*
X120773809Y-61949047D02*
X120773809Y-62187142D01*
X120773809Y-62187142D02*
X120726190Y-62282380D01*
X120726190Y-62282380D02*
X120678571Y-62330000D01*
X120678571Y-62330000D02*
X120583333Y-62377619D01*
X120583333Y-62377619D02*
X120345238Y-62377619D01*
X120345238Y-62377619D02*
X120250000Y-62330000D01*
X120250000Y-62330000D02*
X120202381Y-62282380D01*
X121202381Y-61996666D02*
X121964286Y-61996666D01*
X122392857Y-61472857D02*
X122440476Y-61425238D01*
X122440476Y-61425238D02*
X122535714Y-61377619D01*
X122535714Y-61377619D02*
X122773809Y-61377619D01*
X122773809Y-61377619D02*
X122869047Y-61425238D01*
X122869047Y-61425238D02*
X122916666Y-61472857D01*
X122916666Y-61472857D02*
X122964285Y-61568095D01*
X122964285Y-61568095D02*
X122964285Y-61663333D01*
X122964285Y-61663333D02*
X122916666Y-61806190D01*
X122916666Y-61806190D02*
X122345238Y-62377619D01*
X122345238Y-62377619D02*
X122964285Y-62377619D01*
X123345238Y-61472857D02*
X123392857Y-61425238D01*
X123392857Y-61425238D02*
X123488095Y-61377619D01*
X123488095Y-61377619D02*
X123726190Y-61377619D01*
X123726190Y-61377619D02*
X123821428Y-61425238D01*
X123821428Y-61425238D02*
X123869047Y-61472857D01*
X123869047Y-61472857D02*
X123916666Y-61568095D01*
X123916666Y-61568095D02*
X123916666Y-61663333D01*
X123916666Y-61663333D02*
X123869047Y-61806190D01*
X123869047Y-61806190D02*
X123297619Y-62377619D01*
X123297619Y-62377619D02*
X123916666Y-62377619D01*
X108666666Y-59960952D02*
X108666666Y-60770476D01*
X108666666Y-60770476D02*
X108619047Y-60865714D01*
X108619047Y-60865714D02*
X108571428Y-60913333D01*
X108571428Y-60913333D02*
X108476190Y-60960952D01*
X108476190Y-60960952D02*
X108333333Y-60960952D01*
X108333333Y-60960952D02*
X108238095Y-60913333D01*
X108666666Y-60580000D02*
X108571428Y-60627619D01*
X108571428Y-60627619D02*
X108380952Y-60627619D01*
X108380952Y-60627619D02*
X108285714Y-60580000D01*
X108285714Y-60580000D02*
X108238095Y-60532380D01*
X108238095Y-60532380D02*
X108190476Y-60437142D01*
X108190476Y-60437142D02*
X108190476Y-60151428D01*
X108190476Y-60151428D02*
X108238095Y-60056190D01*
X108238095Y-60056190D02*
X108285714Y-60008571D01*
X108285714Y-60008571D02*
X108380952Y-59960952D01*
X108380952Y-59960952D02*
X108571428Y-59960952D01*
X108571428Y-59960952D02*
X108666666Y-60008571D01*
X109142857Y-60627619D02*
X109142857Y-59960952D01*
X109142857Y-59627619D02*
X109095238Y-59675238D01*
X109095238Y-59675238D02*
X109142857Y-59722857D01*
X109142857Y-59722857D02*
X109190476Y-59675238D01*
X109190476Y-59675238D02*
X109142857Y-59627619D01*
X109142857Y-59627619D02*
X109142857Y-59722857D01*
X109476190Y-59960952D02*
X109857142Y-59960952D01*
X109619047Y-59627619D02*
X109619047Y-60484761D01*
X109619047Y-60484761D02*
X109666666Y-60580000D01*
X109666666Y-60580000D02*
X109761904Y-60627619D01*
X109761904Y-60627619D02*
X109857142Y-60627619D01*
X110190476Y-60627619D02*
X110190476Y-59627619D01*
X110619047Y-60627619D02*
X110619047Y-60103809D01*
X110619047Y-60103809D02*
X110571428Y-60008571D01*
X110571428Y-60008571D02*
X110476190Y-59960952D01*
X110476190Y-59960952D02*
X110333333Y-59960952D01*
X110333333Y-59960952D02*
X110238095Y-60008571D01*
X110238095Y-60008571D02*
X110190476Y-60056190D01*
X111523809Y-59960952D02*
X111523809Y-60627619D01*
X111095238Y-59960952D02*
X111095238Y-60484761D01*
X111095238Y-60484761D02*
X111142857Y-60580000D01*
X111142857Y-60580000D02*
X111238095Y-60627619D01*
X111238095Y-60627619D02*
X111380952Y-60627619D01*
X111380952Y-60627619D02*
X111476190Y-60580000D01*
X111476190Y-60580000D02*
X111523809Y-60532380D01*
X112000000Y-60627619D02*
X112000000Y-59627619D01*
X112000000Y-60008571D02*
X112095238Y-59960952D01*
X112095238Y-59960952D02*
X112285714Y-59960952D01*
X112285714Y-59960952D02*
X112380952Y-60008571D01*
X112380952Y-60008571D02*
X112428571Y-60056190D01*
X112428571Y-60056190D02*
X112476190Y-60151428D01*
X112476190Y-60151428D02*
X112476190Y-60437142D01*
X112476190Y-60437142D02*
X112428571Y-60532380D01*
X112428571Y-60532380D02*
X112380952Y-60580000D01*
X112380952Y-60580000D02*
X112285714Y-60627619D01*
X112285714Y-60627619D02*
X112095238Y-60627619D01*
X112095238Y-60627619D02*
X112000000Y-60580000D01*
X112904762Y-60532380D02*
X112952381Y-60580000D01*
X112952381Y-60580000D02*
X112904762Y-60627619D01*
X112904762Y-60627619D02*
X112857143Y-60580000D01*
X112857143Y-60580000D02*
X112904762Y-60532380D01*
X112904762Y-60532380D02*
X112904762Y-60627619D01*
X113809523Y-60580000D02*
X113714285Y-60627619D01*
X113714285Y-60627619D02*
X113523809Y-60627619D01*
X113523809Y-60627619D02*
X113428571Y-60580000D01*
X113428571Y-60580000D02*
X113380952Y-60532380D01*
X113380952Y-60532380D02*
X113333333Y-60437142D01*
X113333333Y-60437142D02*
X113333333Y-60151428D01*
X113333333Y-60151428D02*
X113380952Y-60056190D01*
X113380952Y-60056190D02*
X113428571Y-60008571D01*
X113428571Y-60008571D02*
X113523809Y-59960952D01*
X113523809Y-59960952D02*
X113714285Y-59960952D01*
X113714285Y-59960952D02*
X113809523Y-60008571D01*
X114380952Y-60627619D02*
X114285714Y-60580000D01*
X114285714Y-60580000D02*
X114238095Y-60532380D01*
X114238095Y-60532380D02*
X114190476Y-60437142D01*
X114190476Y-60437142D02*
X114190476Y-60151428D01*
X114190476Y-60151428D02*
X114238095Y-60056190D01*
X114238095Y-60056190D02*
X114285714Y-60008571D01*
X114285714Y-60008571D02*
X114380952Y-59960952D01*
X114380952Y-59960952D02*
X114523809Y-59960952D01*
X114523809Y-59960952D02*
X114619047Y-60008571D01*
X114619047Y-60008571D02*
X114666666Y-60056190D01*
X114666666Y-60056190D02*
X114714285Y-60151428D01*
X114714285Y-60151428D02*
X114714285Y-60437142D01*
X114714285Y-60437142D02*
X114666666Y-60532380D01*
X114666666Y-60532380D02*
X114619047Y-60580000D01*
X114619047Y-60580000D02*
X114523809Y-60627619D01*
X114523809Y-60627619D02*
X114380952Y-60627619D01*
X115142857Y-60627619D02*
X115142857Y-59960952D01*
X115142857Y-60056190D02*
X115190476Y-60008571D01*
X115190476Y-60008571D02*
X115285714Y-59960952D01*
X115285714Y-59960952D02*
X115428571Y-59960952D01*
X115428571Y-59960952D02*
X115523809Y-60008571D01*
X115523809Y-60008571D02*
X115571428Y-60103809D01*
X115571428Y-60103809D02*
X115571428Y-60627619D01*
X115571428Y-60103809D02*
X115619047Y-60008571D01*
X115619047Y-60008571D02*
X115714285Y-59960952D01*
X115714285Y-59960952D02*
X115857142Y-59960952D01*
X115857142Y-59960952D02*
X115952381Y-60008571D01*
X115952381Y-60008571D02*
X116000000Y-60103809D01*
X116000000Y-60103809D02*
X116000000Y-60627619D01*
X117190475Y-59580000D02*
X116333333Y-60865714D01*
X117952380Y-59960952D02*
X117952380Y-60627619D01*
X117523809Y-59960952D02*
X117523809Y-60484761D01*
X117523809Y-60484761D02*
X117571428Y-60580000D01*
X117571428Y-60580000D02*
X117666666Y-60627619D01*
X117666666Y-60627619D02*
X117809523Y-60627619D01*
X117809523Y-60627619D02*
X117904761Y-60580000D01*
X117904761Y-60580000D02*
X117952380Y-60532380D01*
X118428571Y-60627619D02*
X118428571Y-59627619D01*
X118857142Y-60627619D02*
X118857142Y-60103809D01*
X118857142Y-60103809D02*
X118809523Y-60008571D01*
X118809523Y-60008571D02*
X118714285Y-59960952D01*
X118714285Y-59960952D02*
X118571428Y-59960952D01*
X118571428Y-59960952D02*
X118476190Y-60008571D01*
X118476190Y-60008571D02*
X118428571Y-60056190D01*
X119333333Y-60627619D02*
X119333333Y-59960952D01*
X119333333Y-59627619D02*
X119285714Y-59675238D01*
X119285714Y-59675238D02*
X119333333Y-59722857D01*
X119333333Y-59722857D02*
X119380952Y-59675238D01*
X119380952Y-59675238D02*
X119333333Y-59627619D01*
X119333333Y-59627619D02*
X119333333Y-59722857D01*
X119761904Y-59722857D02*
X119809523Y-59675238D01*
X119809523Y-59675238D02*
X119904761Y-59627619D01*
X119904761Y-59627619D02*
X120142856Y-59627619D01*
X120142856Y-59627619D02*
X120238094Y-59675238D01*
X120238094Y-59675238D02*
X120285713Y-59722857D01*
X120285713Y-59722857D02*
X120333332Y-59818095D01*
X120333332Y-59818095D02*
X120333332Y-59913333D01*
X120333332Y-59913333D02*
X120285713Y-60056190D01*
X120285713Y-60056190D02*
X119714285Y-60627619D01*
X119714285Y-60627619D02*
X120333332Y-60627619D01*
X120714285Y-59722857D02*
X120761904Y-59675238D01*
X120761904Y-59675238D02*
X120857142Y-59627619D01*
X120857142Y-59627619D02*
X121095237Y-59627619D01*
X121095237Y-59627619D02*
X121190475Y-59675238D01*
X121190475Y-59675238D02*
X121238094Y-59722857D01*
X121238094Y-59722857D02*
X121285713Y-59818095D01*
X121285713Y-59818095D02*
X121285713Y-59913333D01*
X121285713Y-59913333D02*
X121238094Y-60056190D01*
X121238094Y-60056190D02*
X120666666Y-60627619D01*
X120666666Y-60627619D02*
X121285713Y-60627619D01*
X122428570Y-59580000D02*
X121571428Y-60865714D01*
X122619047Y-59627619D02*
X123190475Y-59627619D01*
X122904761Y-60627619D02*
X122904761Y-59627619D01*
X123666666Y-60627619D02*
X123571428Y-60580000D01*
X123571428Y-60580000D02*
X123523809Y-60532380D01*
X123523809Y-60532380D02*
X123476190Y-60437142D01*
X123476190Y-60437142D02*
X123476190Y-60151428D01*
X123476190Y-60151428D02*
X123523809Y-60056190D01*
X123523809Y-60056190D02*
X123571428Y-60008571D01*
X123571428Y-60008571D02*
X123666666Y-59960952D01*
X123666666Y-59960952D02*
X123809523Y-59960952D01*
X123809523Y-59960952D02*
X123904761Y-60008571D01*
X123904761Y-60008571D02*
X123952380Y-60056190D01*
X123952380Y-60056190D02*
X123999999Y-60151428D01*
X123999999Y-60151428D02*
X123999999Y-60437142D01*
X123999999Y-60437142D02*
X123952380Y-60532380D01*
X123952380Y-60532380D02*
X123904761Y-60580000D01*
X123904761Y-60580000D02*
X123809523Y-60627619D01*
X123809523Y-60627619D02*
X123666666Y-60627619D01*
X124428571Y-59960952D02*
X124428571Y-60627619D01*
X124428571Y-60056190D02*
X124476190Y-60008571D01*
X124476190Y-60008571D02*
X124571428Y-59960952D01*
X124571428Y-59960952D02*
X124714285Y-59960952D01*
X124714285Y-59960952D02*
X124809523Y-60008571D01*
X124809523Y-60008571D02*
X124857142Y-60103809D01*
X124857142Y-60103809D02*
X124857142Y-60627619D01*
X125714285Y-60580000D02*
X125619047Y-60627619D01*
X125619047Y-60627619D02*
X125428571Y-60627619D01*
X125428571Y-60627619D02*
X125333333Y-60580000D01*
X125333333Y-60580000D02*
X125285714Y-60484761D01*
X125285714Y-60484761D02*
X125285714Y-60103809D01*
X125285714Y-60103809D02*
X125333333Y-60008571D01*
X125333333Y-60008571D02*
X125428571Y-59960952D01*
X125428571Y-59960952D02*
X125619047Y-59960952D01*
X125619047Y-59960952D02*
X125714285Y-60008571D01*
X125714285Y-60008571D02*
X125761904Y-60103809D01*
X125761904Y-60103809D02*
X125761904Y-60199047D01*
X125761904Y-60199047D02*
X125285714Y-60294285D01*
X126666666Y-60627619D02*
X126190476Y-60627619D01*
X126190476Y-60627619D02*
X126190476Y-59627619D01*
X127000000Y-60627619D02*
X127000000Y-59960952D01*
X127000000Y-59627619D02*
X126952381Y-59675238D01*
X126952381Y-59675238D02*
X127000000Y-59722857D01*
X127000000Y-59722857D02*
X127047619Y-59675238D01*
X127047619Y-59675238D02*
X127000000Y-59627619D01*
X127000000Y-59627619D02*
X127000000Y-59722857D01*
X127904761Y-59960952D02*
X127904761Y-60770476D01*
X127904761Y-60770476D02*
X127857142Y-60865714D01*
X127857142Y-60865714D02*
X127809523Y-60913333D01*
X127809523Y-60913333D02*
X127714285Y-60960952D01*
X127714285Y-60960952D02*
X127571428Y-60960952D01*
X127571428Y-60960952D02*
X127476190Y-60913333D01*
X127904761Y-60580000D02*
X127809523Y-60627619D01*
X127809523Y-60627619D02*
X127619047Y-60627619D01*
X127619047Y-60627619D02*
X127523809Y-60580000D01*
X127523809Y-60580000D02*
X127476190Y-60532380D01*
X127476190Y-60532380D02*
X127428571Y-60437142D01*
X127428571Y-60437142D02*
X127428571Y-60151428D01*
X127428571Y-60151428D02*
X127476190Y-60056190D01*
X127476190Y-60056190D02*
X127523809Y-60008571D01*
X127523809Y-60008571D02*
X127619047Y-59960952D01*
X127619047Y-59960952D02*
X127809523Y-59960952D01*
X127809523Y-59960952D02*
X127904761Y-60008571D01*
X128380952Y-60627619D02*
X128380952Y-59627619D01*
X128809523Y-60627619D02*
X128809523Y-60103809D01*
X128809523Y-60103809D02*
X128761904Y-60008571D01*
X128761904Y-60008571D02*
X128666666Y-59960952D01*
X128666666Y-59960952D02*
X128523809Y-59960952D01*
X128523809Y-59960952D02*
X128428571Y-60008571D01*
X128428571Y-60008571D02*
X128380952Y-60056190D01*
X129142857Y-59960952D02*
X129523809Y-59960952D01*
X129285714Y-59627619D02*
X129285714Y-60484761D01*
X129285714Y-60484761D02*
X129333333Y-60580000D01*
X129333333Y-60580000D02*
X129428571Y-60627619D01*
X129428571Y-60627619D02*
X129523809Y-60627619D01*
X130238095Y-60580000D02*
X130142857Y-60627619D01*
X130142857Y-60627619D02*
X129952381Y-60627619D01*
X129952381Y-60627619D02*
X129857143Y-60580000D01*
X129857143Y-60580000D02*
X129809524Y-60484761D01*
X129809524Y-60484761D02*
X129809524Y-60103809D01*
X129809524Y-60103809D02*
X129857143Y-60008571D01*
X129857143Y-60008571D02*
X129952381Y-59960952D01*
X129952381Y-59960952D02*
X130142857Y-59960952D01*
X130142857Y-59960952D02*
X130238095Y-60008571D01*
X130238095Y-60008571D02*
X130285714Y-60103809D01*
X130285714Y-60103809D02*
X130285714Y-60199047D01*
X130285714Y-60199047D02*
X129809524Y-60294285D01*
X130714286Y-60627619D02*
X130714286Y-59960952D01*
X130714286Y-60151428D02*
X130761905Y-60056190D01*
X130761905Y-60056190D02*
X130809524Y-60008571D01*
X130809524Y-60008571D02*
X130904762Y-59960952D01*
X130904762Y-59960952D02*
X131000000Y-59960952D01*
%TO.C,C2*%
X83583333Y-61367380D02*
X83535714Y-61415000D01*
X83535714Y-61415000D02*
X83392857Y-61462619D01*
X83392857Y-61462619D02*
X83297619Y-61462619D01*
X83297619Y-61462619D02*
X83154762Y-61415000D01*
X83154762Y-61415000D02*
X83059524Y-61319761D01*
X83059524Y-61319761D02*
X83011905Y-61224523D01*
X83011905Y-61224523D02*
X82964286Y-61034047D01*
X82964286Y-61034047D02*
X82964286Y-60891190D01*
X82964286Y-60891190D02*
X83011905Y-60700714D01*
X83011905Y-60700714D02*
X83059524Y-60605476D01*
X83059524Y-60605476D02*
X83154762Y-60510238D01*
X83154762Y-60510238D02*
X83297619Y-60462619D01*
X83297619Y-60462619D02*
X83392857Y-60462619D01*
X83392857Y-60462619D02*
X83535714Y-60510238D01*
X83535714Y-60510238D02*
X83583333Y-60557857D01*
X83964286Y-60557857D02*
X84011905Y-60510238D01*
X84011905Y-60510238D02*
X84107143Y-60462619D01*
X84107143Y-60462619D02*
X84345238Y-60462619D01*
X84345238Y-60462619D02*
X84440476Y-60510238D01*
X84440476Y-60510238D02*
X84488095Y-60557857D01*
X84488095Y-60557857D02*
X84535714Y-60653095D01*
X84535714Y-60653095D02*
X84535714Y-60748333D01*
X84535714Y-60748333D02*
X84488095Y-60891190D01*
X84488095Y-60891190D02*
X83916667Y-61462619D01*
X83916667Y-61462619D02*
X84535714Y-61462619D01*
X84583333Y-68962619D02*
X84011905Y-68962619D01*
X84297619Y-68962619D02*
X84297619Y-67962619D01*
X84297619Y-67962619D02*
X84202381Y-68105476D01*
X84202381Y-68105476D02*
X84107143Y-68200714D01*
X84107143Y-68200714D02*
X84011905Y-68248333D01*
X85202381Y-67962619D02*
X85297619Y-67962619D01*
X85297619Y-67962619D02*
X85392857Y-68010238D01*
X85392857Y-68010238D02*
X85440476Y-68057857D01*
X85440476Y-68057857D02*
X85488095Y-68153095D01*
X85488095Y-68153095D02*
X85535714Y-68343571D01*
X85535714Y-68343571D02*
X85535714Y-68581666D01*
X85535714Y-68581666D02*
X85488095Y-68772142D01*
X85488095Y-68772142D02*
X85440476Y-68867380D01*
X85440476Y-68867380D02*
X85392857Y-68915000D01*
X85392857Y-68915000D02*
X85297619Y-68962619D01*
X85297619Y-68962619D02*
X85202381Y-68962619D01*
X85202381Y-68962619D02*
X85107143Y-68915000D01*
X85107143Y-68915000D02*
X85059524Y-68867380D01*
X85059524Y-68867380D02*
X85011905Y-68772142D01*
X85011905Y-68772142D02*
X84964286Y-68581666D01*
X84964286Y-68581666D02*
X84964286Y-68343571D01*
X84964286Y-68343571D02*
X85011905Y-68153095D01*
X85011905Y-68153095D02*
X85059524Y-68057857D01*
X85059524Y-68057857D02*
X85107143Y-68010238D01*
X85107143Y-68010238D02*
X85202381Y-67962619D01*
X86154762Y-67962619D02*
X86250000Y-67962619D01*
X86250000Y-67962619D02*
X86345238Y-68010238D01*
X86345238Y-68010238D02*
X86392857Y-68057857D01*
X86392857Y-68057857D02*
X86440476Y-68153095D01*
X86440476Y-68153095D02*
X86488095Y-68343571D01*
X86488095Y-68343571D02*
X86488095Y-68581666D01*
X86488095Y-68581666D02*
X86440476Y-68772142D01*
X86440476Y-68772142D02*
X86392857Y-68867380D01*
X86392857Y-68867380D02*
X86345238Y-68915000D01*
X86345238Y-68915000D02*
X86250000Y-68962619D01*
X86250000Y-68962619D02*
X86154762Y-68962619D01*
X86154762Y-68962619D02*
X86059524Y-68915000D01*
X86059524Y-68915000D02*
X86011905Y-68867380D01*
X86011905Y-68867380D02*
X85964286Y-68772142D01*
X85964286Y-68772142D02*
X85916667Y-68581666D01*
X85916667Y-68581666D02*
X85916667Y-68343571D01*
X85916667Y-68343571D02*
X85964286Y-68153095D01*
X85964286Y-68153095D02*
X86011905Y-68057857D01*
X86011905Y-68057857D02*
X86059524Y-68010238D01*
X86059524Y-68010238D02*
X86154762Y-67962619D01*
X87107143Y-67962619D02*
X87202381Y-67962619D01*
X87202381Y-67962619D02*
X87297619Y-68010238D01*
X87297619Y-68010238D02*
X87345238Y-68057857D01*
X87345238Y-68057857D02*
X87392857Y-68153095D01*
X87392857Y-68153095D02*
X87440476Y-68343571D01*
X87440476Y-68343571D02*
X87440476Y-68581666D01*
X87440476Y-68581666D02*
X87392857Y-68772142D01*
X87392857Y-68772142D02*
X87345238Y-68867380D01*
X87345238Y-68867380D02*
X87297619Y-68915000D01*
X87297619Y-68915000D02*
X87202381Y-68962619D01*
X87202381Y-68962619D02*
X87107143Y-68962619D01*
X87107143Y-68962619D02*
X87011905Y-68915000D01*
X87011905Y-68915000D02*
X86964286Y-68867380D01*
X86964286Y-68867380D02*
X86916667Y-68772142D01*
X86916667Y-68772142D02*
X86869048Y-68581666D01*
X86869048Y-68581666D02*
X86869048Y-68343571D01*
X86869048Y-68343571D02*
X86916667Y-68153095D01*
X86916667Y-68153095D02*
X86964286Y-68057857D01*
X86964286Y-68057857D02*
X87011905Y-68010238D01*
X87011905Y-68010238D02*
X87107143Y-67962619D01*
X87869048Y-68295952D02*
X87869048Y-69295952D01*
X88345238Y-68819761D02*
X88392857Y-68915000D01*
X88392857Y-68915000D02*
X88488095Y-68962619D01*
X87869048Y-68819761D02*
X87916667Y-68915000D01*
X87916667Y-68915000D02*
X88011905Y-68962619D01*
X88011905Y-68962619D02*
X88202381Y-68962619D01*
X88202381Y-68962619D02*
X88297619Y-68915000D01*
X88297619Y-68915000D02*
X88345238Y-68819761D01*
X88345238Y-68819761D02*
X88345238Y-68295952D01*
%TO.C,U3*%
X109988095Y-44462619D02*
X109988095Y-45272142D01*
X109988095Y-45272142D02*
X110035714Y-45367380D01*
X110035714Y-45367380D02*
X110083333Y-45415000D01*
X110083333Y-45415000D02*
X110178571Y-45462619D01*
X110178571Y-45462619D02*
X110369047Y-45462619D01*
X110369047Y-45462619D02*
X110464285Y-45415000D01*
X110464285Y-45415000D02*
X110511904Y-45367380D01*
X110511904Y-45367380D02*
X110559523Y-45272142D01*
X110559523Y-45272142D02*
X110559523Y-44462619D01*
X110940476Y-44462619D02*
X111559523Y-44462619D01*
X111559523Y-44462619D02*
X111226190Y-44843571D01*
X111226190Y-44843571D02*
X111369047Y-44843571D01*
X111369047Y-44843571D02*
X111464285Y-44891190D01*
X111464285Y-44891190D02*
X111511904Y-44938809D01*
X111511904Y-44938809D02*
X111559523Y-45034047D01*
X111559523Y-45034047D02*
X111559523Y-45272142D01*
X111559523Y-45272142D02*
X111511904Y-45367380D01*
X111511904Y-45367380D02*
X111464285Y-45415000D01*
X111464285Y-45415000D02*
X111369047Y-45462619D01*
X111369047Y-45462619D02*
X111083333Y-45462619D01*
X111083333Y-45462619D02*
X110988095Y-45415000D01*
X110988095Y-45415000D02*
X110940476Y-45367380D01*
X105095239Y-46926904D02*
X105571429Y-46926904D01*
X105000001Y-47212619D02*
X105333334Y-46212619D01*
X105333334Y-46212619D02*
X105666667Y-47212619D01*
X106571429Y-47212619D02*
X106238096Y-46736428D01*
X106000001Y-47212619D02*
X106000001Y-46212619D01*
X106000001Y-46212619D02*
X106380953Y-46212619D01*
X106380953Y-46212619D02*
X106476191Y-46260238D01*
X106476191Y-46260238D02*
X106523810Y-46307857D01*
X106523810Y-46307857D02*
X106571429Y-46403095D01*
X106571429Y-46403095D02*
X106571429Y-46545952D01*
X106571429Y-46545952D02*
X106523810Y-46641190D01*
X106523810Y-46641190D02*
X106476191Y-46688809D01*
X106476191Y-46688809D02*
X106380953Y-46736428D01*
X106380953Y-46736428D02*
X106000001Y-46736428D01*
X107000001Y-47212619D02*
X107000001Y-46212619D01*
X107000001Y-46212619D02*
X107238096Y-46212619D01*
X107238096Y-46212619D02*
X107380953Y-46260238D01*
X107380953Y-46260238D02*
X107476191Y-46355476D01*
X107476191Y-46355476D02*
X107523810Y-46450714D01*
X107523810Y-46450714D02*
X107571429Y-46641190D01*
X107571429Y-46641190D02*
X107571429Y-46784047D01*
X107571429Y-46784047D02*
X107523810Y-46974523D01*
X107523810Y-46974523D02*
X107476191Y-47069761D01*
X107476191Y-47069761D02*
X107380953Y-47165000D01*
X107380953Y-47165000D02*
X107238096Y-47212619D01*
X107238096Y-47212619D02*
X107000001Y-47212619D01*
X108000001Y-46212619D02*
X108000001Y-47022142D01*
X108000001Y-47022142D02*
X108047620Y-47117380D01*
X108047620Y-47117380D02*
X108095239Y-47165000D01*
X108095239Y-47165000D02*
X108190477Y-47212619D01*
X108190477Y-47212619D02*
X108380953Y-47212619D01*
X108380953Y-47212619D02*
X108476191Y-47165000D01*
X108476191Y-47165000D02*
X108523810Y-47117380D01*
X108523810Y-47117380D02*
X108571429Y-47022142D01*
X108571429Y-47022142D02*
X108571429Y-46212619D01*
X109047620Y-47212619D02*
X109047620Y-46212619D01*
X109523810Y-47212619D02*
X109523810Y-46212619D01*
X109523810Y-46212619D02*
X110095238Y-47212619D01*
X110095238Y-47212619D02*
X110095238Y-46212619D01*
X110761905Y-46212619D02*
X110952381Y-46212619D01*
X110952381Y-46212619D02*
X111047619Y-46260238D01*
X111047619Y-46260238D02*
X111142857Y-46355476D01*
X111142857Y-46355476D02*
X111190476Y-46545952D01*
X111190476Y-46545952D02*
X111190476Y-46879285D01*
X111190476Y-46879285D02*
X111142857Y-47069761D01*
X111142857Y-47069761D02*
X111047619Y-47165000D01*
X111047619Y-47165000D02*
X110952381Y-47212619D01*
X110952381Y-47212619D02*
X110761905Y-47212619D01*
X110761905Y-47212619D02*
X110666667Y-47165000D01*
X110666667Y-47165000D02*
X110571429Y-47069761D01*
X110571429Y-47069761D02*
X110523810Y-46879285D01*
X110523810Y-46879285D02*
X110523810Y-46545952D01*
X110523810Y-46545952D02*
X110571429Y-46355476D01*
X110571429Y-46355476D02*
X110666667Y-46260238D01*
X110666667Y-46260238D02*
X110761905Y-46212619D01*
X111380953Y-47307857D02*
X112142857Y-47307857D01*
X112380953Y-47212619D02*
X112380953Y-46212619D01*
X112380953Y-46212619D02*
X112761905Y-46212619D01*
X112761905Y-46212619D02*
X112857143Y-46260238D01*
X112857143Y-46260238D02*
X112904762Y-46307857D01*
X112904762Y-46307857D02*
X112952381Y-46403095D01*
X112952381Y-46403095D02*
X112952381Y-46545952D01*
X112952381Y-46545952D02*
X112904762Y-46641190D01*
X112904762Y-46641190D02*
X112857143Y-46688809D01*
X112857143Y-46688809D02*
X112761905Y-46736428D01*
X112761905Y-46736428D02*
X112380953Y-46736428D01*
X113952381Y-47212619D02*
X113619048Y-46736428D01*
X113380953Y-47212619D02*
X113380953Y-46212619D01*
X113380953Y-46212619D02*
X113761905Y-46212619D01*
X113761905Y-46212619D02*
X113857143Y-46260238D01*
X113857143Y-46260238D02*
X113904762Y-46307857D01*
X113904762Y-46307857D02*
X113952381Y-46403095D01*
X113952381Y-46403095D02*
X113952381Y-46545952D01*
X113952381Y-46545952D02*
X113904762Y-46641190D01*
X113904762Y-46641190D02*
X113857143Y-46688809D01*
X113857143Y-46688809D02*
X113761905Y-46736428D01*
X113761905Y-46736428D02*
X113380953Y-46736428D01*
X114571429Y-46212619D02*
X114761905Y-46212619D01*
X114761905Y-46212619D02*
X114857143Y-46260238D01*
X114857143Y-46260238D02*
X114952381Y-46355476D01*
X114952381Y-46355476D02*
X115000000Y-46545952D01*
X115000000Y-46545952D02*
X115000000Y-46879285D01*
X115000000Y-46879285D02*
X114952381Y-47069761D01*
X114952381Y-47069761D02*
X114857143Y-47165000D01*
X114857143Y-47165000D02*
X114761905Y-47212619D01*
X114761905Y-47212619D02*
X114571429Y-47212619D01*
X114571429Y-47212619D02*
X114476191Y-47165000D01*
X114476191Y-47165000D02*
X114380953Y-47069761D01*
X114380953Y-47069761D02*
X114333334Y-46879285D01*
X114333334Y-46879285D02*
X114333334Y-46545952D01*
X114333334Y-46545952D02*
X114380953Y-46355476D01*
X114380953Y-46355476D02*
X114476191Y-46260238D01*
X114476191Y-46260238D02*
X114571429Y-46212619D01*
X115190477Y-47307857D02*
X115952381Y-47307857D01*
X116190477Y-47212619D02*
X116190477Y-46212619D01*
X116190477Y-46212619D02*
X116523810Y-46926904D01*
X116523810Y-46926904D02*
X116857143Y-46212619D01*
X116857143Y-46212619D02*
X116857143Y-47212619D01*
X117333334Y-47212619D02*
X117333334Y-46212619D01*
X117809524Y-47212619D02*
X117809524Y-46212619D01*
X117809524Y-46212619D02*
X118380952Y-47212619D01*
X118380952Y-47212619D02*
X118380952Y-46212619D01*
X118857143Y-47212619D02*
X118857143Y-46212619D01*
%TO.C,U2*%
X72488095Y-43962619D02*
X72488095Y-44772142D01*
X72488095Y-44772142D02*
X72535714Y-44867380D01*
X72535714Y-44867380D02*
X72583333Y-44915000D01*
X72583333Y-44915000D02*
X72678571Y-44962619D01*
X72678571Y-44962619D02*
X72869047Y-44962619D01*
X72869047Y-44962619D02*
X72964285Y-44915000D01*
X72964285Y-44915000D02*
X73011904Y-44867380D01*
X73011904Y-44867380D02*
X73059523Y-44772142D01*
X73059523Y-44772142D02*
X73059523Y-43962619D01*
X73488095Y-44057857D02*
X73535714Y-44010238D01*
X73535714Y-44010238D02*
X73630952Y-43962619D01*
X73630952Y-43962619D02*
X73869047Y-43962619D01*
X73869047Y-43962619D02*
X73964285Y-44010238D01*
X73964285Y-44010238D02*
X74011904Y-44057857D01*
X74011904Y-44057857D02*
X74059523Y-44153095D01*
X74059523Y-44153095D02*
X74059523Y-44248333D01*
X74059523Y-44248333D02*
X74011904Y-44391190D01*
X74011904Y-44391190D02*
X73440476Y-44962619D01*
X73440476Y-44962619D02*
X74059523Y-44962619D01*
X72345239Y-47176904D02*
X72821429Y-47176904D01*
X72250001Y-47462619D02*
X72583334Y-46462619D01*
X72583334Y-46462619D02*
X72916667Y-47462619D01*
X73821429Y-47462619D02*
X73488096Y-46986428D01*
X73250001Y-47462619D02*
X73250001Y-46462619D01*
X73250001Y-46462619D02*
X73630953Y-46462619D01*
X73630953Y-46462619D02*
X73726191Y-46510238D01*
X73726191Y-46510238D02*
X73773810Y-46557857D01*
X73773810Y-46557857D02*
X73821429Y-46653095D01*
X73821429Y-46653095D02*
X73821429Y-46795952D01*
X73821429Y-46795952D02*
X73773810Y-46891190D01*
X73773810Y-46891190D02*
X73726191Y-46938809D01*
X73726191Y-46938809D02*
X73630953Y-46986428D01*
X73630953Y-46986428D02*
X73250001Y-46986428D01*
X74250001Y-47462619D02*
X74250001Y-46462619D01*
X74250001Y-46462619D02*
X74488096Y-46462619D01*
X74488096Y-46462619D02*
X74630953Y-46510238D01*
X74630953Y-46510238D02*
X74726191Y-46605476D01*
X74726191Y-46605476D02*
X74773810Y-46700714D01*
X74773810Y-46700714D02*
X74821429Y-46891190D01*
X74821429Y-46891190D02*
X74821429Y-47034047D01*
X74821429Y-47034047D02*
X74773810Y-47224523D01*
X74773810Y-47224523D02*
X74726191Y-47319761D01*
X74726191Y-47319761D02*
X74630953Y-47415000D01*
X74630953Y-47415000D02*
X74488096Y-47462619D01*
X74488096Y-47462619D02*
X74250001Y-47462619D01*
X75250001Y-46462619D02*
X75250001Y-47272142D01*
X75250001Y-47272142D02*
X75297620Y-47367380D01*
X75297620Y-47367380D02*
X75345239Y-47415000D01*
X75345239Y-47415000D02*
X75440477Y-47462619D01*
X75440477Y-47462619D02*
X75630953Y-47462619D01*
X75630953Y-47462619D02*
X75726191Y-47415000D01*
X75726191Y-47415000D02*
X75773810Y-47367380D01*
X75773810Y-47367380D02*
X75821429Y-47272142D01*
X75821429Y-47272142D02*
X75821429Y-46462619D01*
X76297620Y-47462619D02*
X76297620Y-46462619D01*
X76773810Y-47462619D02*
X76773810Y-46462619D01*
X76773810Y-46462619D02*
X77345238Y-47462619D01*
X77345238Y-47462619D02*
X77345238Y-46462619D01*
X78011905Y-46462619D02*
X78202381Y-46462619D01*
X78202381Y-46462619D02*
X78297619Y-46510238D01*
X78297619Y-46510238D02*
X78392857Y-46605476D01*
X78392857Y-46605476D02*
X78440476Y-46795952D01*
X78440476Y-46795952D02*
X78440476Y-47129285D01*
X78440476Y-47129285D02*
X78392857Y-47319761D01*
X78392857Y-47319761D02*
X78297619Y-47415000D01*
X78297619Y-47415000D02*
X78202381Y-47462619D01*
X78202381Y-47462619D02*
X78011905Y-47462619D01*
X78011905Y-47462619D02*
X77916667Y-47415000D01*
X77916667Y-47415000D02*
X77821429Y-47319761D01*
X77821429Y-47319761D02*
X77773810Y-47129285D01*
X77773810Y-47129285D02*
X77773810Y-46795952D01*
X77773810Y-46795952D02*
X77821429Y-46605476D01*
X77821429Y-46605476D02*
X77916667Y-46510238D01*
X77916667Y-46510238D02*
X78011905Y-46462619D01*
X78630953Y-47557857D02*
X79392857Y-47557857D01*
X79630953Y-47462619D02*
X79630953Y-46462619D01*
X79630953Y-46462619D02*
X80011905Y-46462619D01*
X80011905Y-46462619D02*
X80107143Y-46510238D01*
X80107143Y-46510238D02*
X80154762Y-46557857D01*
X80154762Y-46557857D02*
X80202381Y-46653095D01*
X80202381Y-46653095D02*
X80202381Y-46795952D01*
X80202381Y-46795952D02*
X80154762Y-46891190D01*
X80154762Y-46891190D02*
X80107143Y-46938809D01*
X80107143Y-46938809D02*
X80011905Y-46986428D01*
X80011905Y-46986428D02*
X79630953Y-46986428D01*
X81202381Y-47462619D02*
X80869048Y-46986428D01*
X80630953Y-47462619D02*
X80630953Y-46462619D01*
X80630953Y-46462619D02*
X81011905Y-46462619D01*
X81011905Y-46462619D02*
X81107143Y-46510238D01*
X81107143Y-46510238D02*
X81154762Y-46557857D01*
X81154762Y-46557857D02*
X81202381Y-46653095D01*
X81202381Y-46653095D02*
X81202381Y-46795952D01*
X81202381Y-46795952D02*
X81154762Y-46891190D01*
X81154762Y-46891190D02*
X81107143Y-46938809D01*
X81107143Y-46938809D02*
X81011905Y-46986428D01*
X81011905Y-46986428D02*
X80630953Y-46986428D01*
X81821429Y-46462619D02*
X82011905Y-46462619D01*
X82011905Y-46462619D02*
X82107143Y-46510238D01*
X82107143Y-46510238D02*
X82202381Y-46605476D01*
X82202381Y-46605476D02*
X82250000Y-46795952D01*
X82250000Y-46795952D02*
X82250000Y-47129285D01*
X82250000Y-47129285D02*
X82202381Y-47319761D01*
X82202381Y-47319761D02*
X82107143Y-47415000D01*
X82107143Y-47415000D02*
X82011905Y-47462619D01*
X82011905Y-47462619D02*
X81821429Y-47462619D01*
X81821429Y-47462619D02*
X81726191Y-47415000D01*
X81726191Y-47415000D02*
X81630953Y-47319761D01*
X81630953Y-47319761D02*
X81583334Y-47129285D01*
X81583334Y-47129285D02*
X81583334Y-46795952D01*
X81583334Y-46795952D02*
X81630953Y-46605476D01*
X81630953Y-46605476D02*
X81726191Y-46510238D01*
X81726191Y-46510238D02*
X81821429Y-46462619D01*
X82440477Y-47557857D02*
X83202381Y-47557857D01*
X83440477Y-47462619D02*
X83440477Y-46462619D01*
X83440477Y-46462619D02*
X83773810Y-47176904D01*
X83773810Y-47176904D02*
X84107143Y-46462619D01*
X84107143Y-46462619D02*
X84107143Y-47462619D01*
X84583334Y-47462619D02*
X84583334Y-46462619D01*
X85059524Y-47462619D02*
X85059524Y-46462619D01*
X85059524Y-46462619D02*
X85630952Y-47462619D01*
X85630952Y-47462619D02*
X85630952Y-46462619D01*
X86107143Y-47462619D02*
X86107143Y-46462619D01*
%TO.C,U1*%
X95612619Y-65201904D02*
X96422142Y-65201904D01*
X96422142Y-65201904D02*
X96517380Y-65154285D01*
X96517380Y-65154285D02*
X96565000Y-65106666D01*
X96565000Y-65106666D02*
X96612619Y-65011428D01*
X96612619Y-65011428D02*
X96612619Y-64820952D01*
X96612619Y-64820952D02*
X96565000Y-64725714D01*
X96565000Y-64725714D02*
X96517380Y-64678095D01*
X96517380Y-64678095D02*
X96422142Y-64630476D01*
X96422142Y-64630476D02*
X95612619Y-64630476D01*
X96612619Y-63630476D02*
X96612619Y-64201904D01*
X96612619Y-63916190D02*
X95612619Y-63916190D01*
X95612619Y-63916190D02*
X95755476Y-64011428D01*
X95755476Y-64011428D02*
X95850714Y-64106666D01*
X95850714Y-64106666D02*
X95898333Y-64201904D01*
X108892619Y-66130476D02*
X108892619Y-66606666D01*
X108892619Y-66606666D02*
X107892619Y-66606666D01*
X108892619Y-65797142D02*
X107892619Y-65797142D01*
X107892619Y-65797142D02*
X108606904Y-65463809D01*
X108606904Y-65463809D02*
X107892619Y-65130476D01*
X107892619Y-65130476D02*
X108892619Y-65130476D01*
X107892619Y-64749523D02*
X107892619Y-64130476D01*
X107892619Y-64130476D02*
X108273571Y-64463809D01*
X108273571Y-64463809D02*
X108273571Y-64320952D01*
X108273571Y-64320952D02*
X108321190Y-64225714D01*
X108321190Y-64225714D02*
X108368809Y-64178095D01*
X108368809Y-64178095D02*
X108464047Y-64130476D01*
X108464047Y-64130476D02*
X108702142Y-64130476D01*
X108702142Y-64130476D02*
X108797380Y-64178095D01*
X108797380Y-64178095D02*
X108845000Y-64225714D01*
X108845000Y-64225714D02*
X108892619Y-64320952D01*
X108892619Y-64320952D02*
X108892619Y-64606666D01*
X108892619Y-64606666D02*
X108845000Y-64701904D01*
X108845000Y-64701904D02*
X108797380Y-64749523D01*
X107892619Y-63225714D02*
X107892619Y-63701904D01*
X107892619Y-63701904D02*
X108368809Y-63749523D01*
X108368809Y-63749523D02*
X108321190Y-63701904D01*
X108321190Y-63701904D02*
X108273571Y-63606666D01*
X108273571Y-63606666D02*
X108273571Y-63368571D01*
X108273571Y-63368571D02*
X108321190Y-63273333D01*
X108321190Y-63273333D02*
X108368809Y-63225714D01*
X108368809Y-63225714D02*
X108464047Y-63178095D01*
X108464047Y-63178095D02*
X108702142Y-63178095D01*
X108702142Y-63178095D02*
X108797380Y-63225714D01*
X108797380Y-63225714D02*
X108845000Y-63273333D01*
X108845000Y-63273333D02*
X108892619Y-63368571D01*
X108892619Y-63368571D02*
X108892619Y-63606666D01*
X108892619Y-63606666D02*
X108845000Y-63701904D01*
X108845000Y-63701904D02*
X108797380Y-63749523D01*
X108321190Y-62606666D02*
X108273571Y-62701904D01*
X108273571Y-62701904D02*
X108225952Y-62749523D01*
X108225952Y-62749523D02*
X108130714Y-62797142D01*
X108130714Y-62797142D02*
X108083095Y-62797142D01*
X108083095Y-62797142D02*
X107987857Y-62749523D01*
X107987857Y-62749523D02*
X107940238Y-62701904D01*
X107940238Y-62701904D02*
X107892619Y-62606666D01*
X107892619Y-62606666D02*
X107892619Y-62416190D01*
X107892619Y-62416190D02*
X107940238Y-62320952D01*
X107940238Y-62320952D02*
X107987857Y-62273333D01*
X107987857Y-62273333D02*
X108083095Y-62225714D01*
X108083095Y-62225714D02*
X108130714Y-62225714D01*
X108130714Y-62225714D02*
X108225952Y-62273333D01*
X108225952Y-62273333D02*
X108273571Y-62320952D01*
X108273571Y-62320952D02*
X108321190Y-62416190D01*
X108321190Y-62416190D02*
X108321190Y-62606666D01*
X108321190Y-62606666D02*
X108368809Y-62701904D01*
X108368809Y-62701904D02*
X108416428Y-62749523D01*
X108416428Y-62749523D02*
X108511666Y-62797142D01*
X108511666Y-62797142D02*
X108702142Y-62797142D01*
X108702142Y-62797142D02*
X108797380Y-62749523D01*
X108797380Y-62749523D02*
X108845000Y-62701904D01*
X108845000Y-62701904D02*
X108892619Y-62606666D01*
X108892619Y-62606666D02*
X108892619Y-62416190D01*
X108892619Y-62416190D02*
X108845000Y-62320952D01*
X108845000Y-62320952D02*
X108797380Y-62273333D01*
X108797380Y-62273333D02*
X108702142Y-62225714D01*
X108702142Y-62225714D02*
X108511666Y-62225714D01*
X108511666Y-62225714D02*
X108416428Y-62273333D01*
X108416428Y-62273333D02*
X108368809Y-62320952D01*
X108368809Y-62320952D02*
X108321190Y-62416190D01*
%TO.C,R12*%
X121107142Y-67712619D02*
X120773809Y-67236428D01*
X120535714Y-67712619D02*
X120535714Y-66712619D01*
X120535714Y-66712619D02*
X120916666Y-66712619D01*
X120916666Y-66712619D02*
X121011904Y-66760238D01*
X121011904Y-66760238D02*
X121059523Y-66807857D01*
X121059523Y-66807857D02*
X121107142Y-66903095D01*
X121107142Y-66903095D02*
X121107142Y-67045952D01*
X121107142Y-67045952D02*
X121059523Y-67141190D01*
X121059523Y-67141190D02*
X121011904Y-67188809D01*
X121011904Y-67188809D02*
X120916666Y-67236428D01*
X120916666Y-67236428D02*
X120535714Y-67236428D01*
X122059523Y-67712619D02*
X121488095Y-67712619D01*
X121773809Y-67712619D02*
X121773809Y-66712619D01*
X121773809Y-66712619D02*
X121678571Y-66855476D01*
X121678571Y-66855476D02*
X121583333Y-66950714D01*
X121583333Y-66950714D02*
X121488095Y-66998333D01*
X122440476Y-66807857D02*
X122488095Y-66760238D01*
X122488095Y-66760238D02*
X122583333Y-66712619D01*
X122583333Y-66712619D02*
X122821428Y-66712619D01*
X122821428Y-66712619D02*
X122916666Y-66760238D01*
X122916666Y-66760238D02*
X122964285Y-66807857D01*
X122964285Y-66807857D02*
X123011904Y-66903095D01*
X123011904Y-66903095D02*
X123011904Y-66998333D01*
X123011904Y-66998333D02*
X122964285Y-67141190D01*
X122964285Y-67141190D02*
X122392857Y-67712619D01*
X122392857Y-67712619D02*
X123011904Y-67712619D01*
X120654761Y-69212619D02*
X120083333Y-69212619D01*
X120369047Y-69212619D02*
X120369047Y-68212619D01*
X120369047Y-68212619D02*
X120273809Y-68355476D01*
X120273809Y-68355476D02*
X120178571Y-68450714D01*
X120178571Y-68450714D02*
X120083333Y-68498333D01*
X121273809Y-68212619D02*
X121369047Y-68212619D01*
X121369047Y-68212619D02*
X121464285Y-68260238D01*
X121464285Y-68260238D02*
X121511904Y-68307857D01*
X121511904Y-68307857D02*
X121559523Y-68403095D01*
X121559523Y-68403095D02*
X121607142Y-68593571D01*
X121607142Y-68593571D02*
X121607142Y-68831666D01*
X121607142Y-68831666D02*
X121559523Y-69022142D01*
X121559523Y-69022142D02*
X121511904Y-69117380D01*
X121511904Y-69117380D02*
X121464285Y-69165000D01*
X121464285Y-69165000D02*
X121369047Y-69212619D01*
X121369047Y-69212619D02*
X121273809Y-69212619D01*
X121273809Y-69212619D02*
X121178571Y-69165000D01*
X121178571Y-69165000D02*
X121130952Y-69117380D01*
X121130952Y-69117380D02*
X121083333Y-69022142D01*
X121083333Y-69022142D02*
X121035714Y-68831666D01*
X121035714Y-68831666D02*
X121035714Y-68593571D01*
X121035714Y-68593571D02*
X121083333Y-68403095D01*
X121083333Y-68403095D02*
X121130952Y-68307857D01*
X121130952Y-68307857D02*
X121178571Y-68260238D01*
X121178571Y-68260238D02*
X121273809Y-68212619D01*
X122035714Y-69212619D02*
X122035714Y-68212619D01*
X122130952Y-68831666D02*
X122416666Y-69212619D01*
X122416666Y-68545952D02*
X122035714Y-68926904D01*
%TO.C,J5*%
X90416666Y-38962619D02*
X90416666Y-39676904D01*
X90416666Y-39676904D02*
X90369047Y-39819761D01*
X90369047Y-39819761D02*
X90273809Y-39915000D01*
X90273809Y-39915000D02*
X90130952Y-39962619D01*
X90130952Y-39962619D02*
X90035714Y-39962619D01*
X91369047Y-38962619D02*
X90892857Y-38962619D01*
X90892857Y-38962619D02*
X90845238Y-39438809D01*
X90845238Y-39438809D02*
X90892857Y-39391190D01*
X90892857Y-39391190D02*
X90988095Y-39343571D01*
X90988095Y-39343571D02*
X91226190Y-39343571D01*
X91226190Y-39343571D02*
X91321428Y-39391190D01*
X91321428Y-39391190D02*
X91369047Y-39438809D01*
X91369047Y-39438809D02*
X91416666Y-39534047D01*
X91416666Y-39534047D02*
X91416666Y-39772142D01*
X91416666Y-39772142D02*
X91369047Y-39867380D01*
X91369047Y-39867380D02*
X91321428Y-39915000D01*
X91321428Y-39915000D02*
X91226190Y-39962619D01*
X91226190Y-39962619D02*
X90988095Y-39962619D01*
X90988095Y-39962619D02*
X90892857Y-39915000D01*
X90892857Y-39915000D02*
X90845238Y-39867380D01*
X104797618Y-39962619D02*
X104464285Y-39486428D01*
X104226190Y-39962619D02*
X104226190Y-38962619D01*
X104226190Y-38962619D02*
X104607142Y-38962619D01*
X104607142Y-38962619D02*
X104702380Y-39010238D01*
X104702380Y-39010238D02*
X104749999Y-39057857D01*
X104749999Y-39057857D02*
X104797618Y-39153095D01*
X104797618Y-39153095D02*
X104797618Y-39295952D01*
X104797618Y-39295952D02*
X104749999Y-39391190D01*
X104749999Y-39391190D02*
X104702380Y-39438809D01*
X104702380Y-39438809D02*
X104607142Y-39486428D01*
X104607142Y-39486428D02*
X104226190Y-39486428D01*
X105130952Y-38962619D02*
X105797618Y-39962619D01*
X105797618Y-38962619D02*
X105130952Y-39962619D01*
X106511904Y-39438809D02*
X106654761Y-39486428D01*
X106654761Y-39486428D02*
X106702380Y-39534047D01*
X106702380Y-39534047D02*
X106749999Y-39629285D01*
X106749999Y-39629285D02*
X106749999Y-39772142D01*
X106749999Y-39772142D02*
X106702380Y-39867380D01*
X106702380Y-39867380D02*
X106654761Y-39915000D01*
X106654761Y-39915000D02*
X106559523Y-39962619D01*
X106559523Y-39962619D02*
X106178571Y-39962619D01*
X106178571Y-39962619D02*
X106178571Y-38962619D01*
X106178571Y-38962619D02*
X106511904Y-38962619D01*
X106511904Y-38962619D02*
X106607142Y-39010238D01*
X106607142Y-39010238D02*
X106654761Y-39057857D01*
X106654761Y-39057857D02*
X106702380Y-39153095D01*
X106702380Y-39153095D02*
X106702380Y-39248333D01*
X106702380Y-39248333D02*
X106654761Y-39343571D01*
X106654761Y-39343571D02*
X106607142Y-39391190D01*
X106607142Y-39391190D02*
X106511904Y-39438809D01*
X106511904Y-39438809D02*
X106178571Y-39438809D01*
X107607142Y-38962619D02*
X107416666Y-38962619D01*
X107416666Y-38962619D02*
X107321428Y-39010238D01*
X107321428Y-39010238D02*
X107273809Y-39057857D01*
X107273809Y-39057857D02*
X107178571Y-39200714D01*
X107178571Y-39200714D02*
X107130952Y-39391190D01*
X107130952Y-39391190D02*
X107130952Y-39772142D01*
X107130952Y-39772142D02*
X107178571Y-39867380D01*
X107178571Y-39867380D02*
X107226190Y-39915000D01*
X107226190Y-39915000D02*
X107321428Y-39962619D01*
X107321428Y-39962619D02*
X107511904Y-39962619D01*
X107511904Y-39962619D02*
X107607142Y-39915000D01*
X107607142Y-39915000D02*
X107654761Y-39867380D01*
X107654761Y-39867380D02*
X107702380Y-39772142D01*
X107702380Y-39772142D02*
X107702380Y-39534047D01*
X107702380Y-39534047D02*
X107654761Y-39438809D01*
X107654761Y-39438809D02*
X107607142Y-39391190D01*
X107607142Y-39391190D02*
X107511904Y-39343571D01*
X107511904Y-39343571D02*
X107321428Y-39343571D01*
X107321428Y-39343571D02*
X107226190Y-39391190D01*
X107226190Y-39391190D02*
X107178571Y-39438809D01*
X107178571Y-39438809D02*
X107130952Y-39534047D01*
X109321428Y-39295952D02*
X109321428Y-39962619D01*
X109083333Y-38915000D02*
X108845238Y-39629285D01*
X108845238Y-39629285D02*
X109464285Y-39629285D01*
X109750000Y-38962619D02*
X110369047Y-38962619D01*
X110369047Y-38962619D02*
X110035714Y-39343571D01*
X110035714Y-39343571D02*
X110178571Y-39343571D01*
X110178571Y-39343571D02*
X110273809Y-39391190D01*
X110273809Y-39391190D02*
X110321428Y-39438809D01*
X110321428Y-39438809D02*
X110369047Y-39534047D01*
X110369047Y-39534047D02*
X110369047Y-39772142D01*
X110369047Y-39772142D02*
X110321428Y-39867380D01*
X110321428Y-39867380D02*
X110273809Y-39915000D01*
X110273809Y-39915000D02*
X110178571Y-39962619D01*
X110178571Y-39962619D02*
X109892857Y-39962619D01*
X109892857Y-39962619D02*
X109797619Y-39915000D01*
X109797619Y-39915000D02*
X109750000Y-39867380D01*
X110702381Y-38962619D02*
X111321428Y-38962619D01*
X111321428Y-38962619D02*
X110988095Y-39343571D01*
X110988095Y-39343571D02*
X111130952Y-39343571D01*
X111130952Y-39343571D02*
X111226190Y-39391190D01*
X111226190Y-39391190D02*
X111273809Y-39438809D01*
X111273809Y-39438809D02*
X111321428Y-39534047D01*
X111321428Y-39534047D02*
X111321428Y-39772142D01*
X111321428Y-39772142D02*
X111273809Y-39867380D01*
X111273809Y-39867380D02*
X111226190Y-39915000D01*
X111226190Y-39915000D02*
X111130952Y-39962619D01*
X111130952Y-39962619D02*
X110845238Y-39962619D01*
X110845238Y-39962619D02*
X110750000Y-39915000D01*
X110750000Y-39915000D02*
X110702381Y-39867380D01*
X111750000Y-39962619D02*
X111750000Y-38962619D01*
X111750000Y-38962619D02*
X112083333Y-39676904D01*
X112083333Y-39676904D02*
X112416666Y-38962619D01*
X112416666Y-38962619D02*
X112416666Y-39962619D01*
X112892857Y-39962619D02*
X112892857Y-38962619D01*
X112892857Y-39438809D02*
X113464285Y-39438809D01*
X113464285Y-39962619D02*
X113464285Y-38962619D01*
X113845238Y-39295952D02*
X114369047Y-39295952D01*
X114369047Y-39295952D02*
X113845238Y-39962619D01*
X113845238Y-39962619D02*
X114369047Y-39962619D01*
%TO.C,J4*%
X71166666Y-34962619D02*
X71166666Y-35676904D01*
X71166666Y-35676904D02*
X71119047Y-35819761D01*
X71119047Y-35819761D02*
X71023809Y-35915000D01*
X71023809Y-35915000D02*
X70880952Y-35962619D01*
X70880952Y-35962619D02*
X70785714Y-35962619D01*
X72071428Y-35295952D02*
X72071428Y-35962619D01*
X71833333Y-34915000D02*
X71595238Y-35629285D01*
X71595238Y-35629285D02*
X72214285Y-35629285D01*
X68607143Y-37676904D02*
X69083333Y-37676904D01*
X68511905Y-37962619D02*
X68845238Y-36962619D01*
X68845238Y-36962619D02*
X69178571Y-37962619D01*
X69511905Y-37962619D02*
X69511905Y-36962619D01*
X69511905Y-36962619D02*
X70083333Y-37962619D01*
X70083333Y-37962619D02*
X70083333Y-36962619D01*
X70416667Y-36962619D02*
X70988095Y-36962619D01*
X70702381Y-37962619D02*
X70702381Y-36962619D01*
%TO.C,J3*%
X125416666Y-68462619D02*
X125416666Y-69176904D01*
X125416666Y-69176904D02*
X125369047Y-69319761D01*
X125369047Y-69319761D02*
X125273809Y-69415000D01*
X125273809Y-69415000D02*
X125130952Y-69462619D01*
X125130952Y-69462619D02*
X125035714Y-69462619D01*
X125797619Y-68462619D02*
X126416666Y-68462619D01*
X126416666Y-68462619D02*
X126083333Y-68843571D01*
X126083333Y-68843571D02*
X126226190Y-68843571D01*
X126226190Y-68843571D02*
X126321428Y-68891190D01*
X126321428Y-68891190D02*
X126369047Y-68938809D01*
X126369047Y-68938809D02*
X126416666Y-69034047D01*
X126416666Y-69034047D02*
X126416666Y-69272142D01*
X126416666Y-69272142D02*
X126369047Y-69367380D01*
X126369047Y-69367380D02*
X126321428Y-69415000D01*
X126321428Y-69415000D02*
X126226190Y-69462619D01*
X126226190Y-69462619D02*
X125940476Y-69462619D01*
X125940476Y-69462619D02*
X125845238Y-69415000D01*
X125845238Y-69415000D02*
X125797619Y-69367380D01*
X127178572Y-69462619D02*
X127178572Y-68462619D01*
X127178572Y-68462619D02*
X127511905Y-69176904D01*
X127511905Y-69176904D02*
X127845238Y-68462619D01*
X127845238Y-68462619D02*
X127845238Y-69462619D01*
X128321429Y-69462619D02*
X128321429Y-68462619D01*
X129369047Y-69367380D02*
X129321428Y-69415000D01*
X129321428Y-69415000D02*
X129178571Y-69462619D01*
X129178571Y-69462619D02*
X129083333Y-69462619D01*
X129083333Y-69462619D02*
X128940476Y-69415000D01*
X128940476Y-69415000D02*
X128845238Y-69319761D01*
X128845238Y-69319761D02*
X128797619Y-69224523D01*
X128797619Y-69224523D02*
X128750000Y-69034047D01*
X128750000Y-69034047D02*
X128750000Y-68891190D01*
X128750000Y-68891190D02*
X128797619Y-68700714D01*
X128797619Y-68700714D02*
X128845238Y-68605476D01*
X128845238Y-68605476D02*
X128940476Y-68510238D01*
X128940476Y-68510238D02*
X129083333Y-68462619D01*
X129083333Y-68462619D02*
X129178571Y-68462619D01*
X129178571Y-68462619D02*
X129321428Y-68510238D01*
X129321428Y-68510238D02*
X129369047Y-68557857D01*
%TO.C,J2*%
X69889666Y-67988619D02*
X69889666Y-68702904D01*
X69889666Y-68702904D02*
X69842047Y-68845761D01*
X69842047Y-68845761D02*
X69746809Y-68941000D01*
X69746809Y-68941000D02*
X69603952Y-68988619D01*
X69603952Y-68988619D02*
X69508714Y-68988619D01*
X70318238Y-68083857D02*
X70365857Y-68036238D01*
X70365857Y-68036238D02*
X70461095Y-67988619D01*
X70461095Y-67988619D02*
X70699190Y-67988619D01*
X70699190Y-67988619D02*
X70794428Y-68036238D01*
X70794428Y-68036238D02*
X70842047Y-68083857D01*
X70842047Y-68083857D02*
X70889666Y-68179095D01*
X70889666Y-68179095D02*
X70889666Y-68274333D01*
X70889666Y-68274333D02*
X70842047Y-68417190D01*
X70842047Y-68417190D02*
X70270619Y-68988619D01*
X70270619Y-68988619D02*
X70889666Y-68988619D01*
X72962619Y-68226190D02*
X72962619Y-68702380D01*
X72962619Y-68702380D02*
X71962619Y-68702380D01*
X72438809Y-67892856D02*
X72438809Y-67559523D01*
X72962619Y-67416666D02*
X72962619Y-67892856D01*
X72962619Y-67892856D02*
X71962619Y-67892856D01*
X71962619Y-67892856D02*
X71962619Y-67416666D01*
X72962619Y-66988094D02*
X71962619Y-66988094D01*
X71962619Y-66988094D02*
X71962619Y-66749999D01*
X71962619Y-66749999D02*
X72010238Y-66607142D01*
X72010238Y-66607142D02*
X72105476Y-66511904D01*
X72105476Y-66511904D02*
X72200714Y-66464285D01*
X72200714Y-66464285D02*
X72391190Y-66416666D01*
X72391190Y-66416666D02*
X72534047Y-66416666D01*
X72534047Y-66416666D02*
X72724523Y-66464285D01*
X72724523Y-66464285D02*
X72819761Y-66511904D01*
X72819761Y-66511904D02*
X72915000Y-66607142D01*
X72915000Y-66607142D02*
X72962619Y-66749999D01*
X72962619Y-66749999D02*
X72962619Y-66988094D01*
X71962619Y-65321427D02*
X72962619Y-65083332D01*
X72962619Y-65083332D02*
X72248333Y-64892856D01*
X72248333Y-64892856D02*
X72962619Y-64702380D01*
X72962619Y-64702380D02*
X71962619Y-64464285D01*
X72915000Y-64130951D02*
X72962619Y-63988094D01*
X72962619Y-63988094D02*
X72962619Y-63749999D01*
X72962619Y-63749999D02*
X72915000Y-63654761D01*
X72915000Y-63654761D02*
X72867380Y-63607142D01*
X72867380Y-63607142D02*
X72772142Y-63559523D01*
X72772142Y-63559523D02*
X72676904Y-63559523D01*
X72676904Y-63559523D02*
X72581666Y-63607142D01*
X72581666Y-63607142D02*
X72534047Y-63654761D01*
X72534047Y-63654761D02*
X72486428Y-63749999D01*
X72486428Y-63749999D02*
X72438809Y-63940475D01*
X72438809Y-63940475D02*
X72391190Y-64035713D01*
X72391190Y-64035713D02*
X72343571Y-64083332D01*
X72343571Y-64083332D02*
X72248333Y-64130951D01*
X72248333Y-64130951D02*
X72153095Y-64130951D01*
X72153095Y-64130951D02*
X72057857Y-64083332D01*
X72057857Y-64083332D02*
X72010238Y-64035713D01*
X72010238Y-64035713D02*
X71962619Y-63940475D01*
X71962619Y-63940475D02*
X71962619Y-63702380D01*
X71962619Y-63702380D02*
X72010238Y-63559523D01*
X72057857Y-63178570D02*
X72010238Y-63130951D01*
X72010238Y-63130951D02*
X71962619Y-63035713D01*
X71962619Y-63035713D02*
X71962619Y-62797618D01*
X71962619Y-62797618D02*
X72010238Y-62702380D01*
X72010238Y-62702380D02*
X72057857Y-62654761D01*
X72057857Y-62654761D02*
X72153095Y-62607142D01*
X72153095Y-62607142D02*
X72248333Y-62607142D01*
X72248333Y-62607142D02*
X72391190Y-62654761D01*
X72391190Y-62654761D02*
X72962619Y-63226189D01*
X72962619Y-63226189D02*
X72962619Y-62607142D01*
X72391190Y-62035713D02*
X72343571Y-62130951D01*
X72343571Y-62130951D02*
X72295952Y-62178570D01*
X72295952Y-62178570D02*
X72200714Y-62226189D01*
X72200714Y-62226189D02*
X72153095Y-62226189D01*
X72153095Y-62226189D02*
X72057857Y-62178570D01*
X72057857Y-62178570D02*
X72010238Y-62130951D01*
X72010238Y-62130951D02*
X71962619Y-62035713D01*
X71962619Y-62035713D02*
X71962619Y-61845237D01*
X71962619Y-61845237D02*
X72010238Y-61749999D01*
X72010238Y-61749999D02*
X72057857Y-61702380D01*
X72057857Y-61702380D02*
X72153095Y-61654761D01*
X72153095Y-61654761D02*
X72200714Y-61654761D01*
X72200714Y-61654761D02*
X72295952Y-61702380D01*
X72295952Y-61702380D02*
X72343571Y-61749999D01*
X72343571Y-61749999D02*
X72391190Y-61845237D01*
X72391190Y-61845237D02*
X72391190Y-62035713D01*
X72391190Y-62035713D02*
X72438809Y-62130951D01*
X72438809Y-62130951D02*
X72486428Y-62178570D01*
X72486428Y-62178570D02*
X72581666Y-62226189D01*
X72581666Y-62226189D02*
X72772142Y-62226189D01*
X72772142Y-62226189D02*
X72867380Y-62178570D01*
X72867380Y-62178570D02*
X72915000Y-62130951D01*
X72915000Y-62130951D02*
X72962619Y-62035713D01*
X72962619Y-62035713D02*
X72962619Y-61845237D01*
X72962619Y-61845237D02*
X72915000Y-61749999D01*
X72915000Y-61749999D02*
X72867380Y-61702380D01*
X72867380Y-61702380D02*
X72772142Y-61654761D01*
X72772142Y-61654761D02*
X72581666Y-61654761D01*
X72581666Y-61654761D02*
X72486428Y-61702380D01*
X72486428Y-61702380D02*
X72438809Y-61749999D01*
X72438809Y-61749999D02*
X72391190Y-61845237D01*
X72962619Y-60702380D02*
X72962619Y-61273808D01*
X72962619Y-60988094D02*
X71962619Y-60988094D01*
X71962619Y-60988094D02*
X72105476Y-61083332D01*
X72105476Y-61083332D02*
X72200714Y-61178570D01*
X72200714Y-61178570D02*
X72248333Y-61273808D01*
X72057857Y-60321427D02*
X72010238Y-60273808D01*
X72010238Y-60273808D02*
X71962619Y-60178570D01*
X71962619Y-60178570D02*
X71962619Y-59940475D01*
X71962619Y-59940475D02*
X72010238Y-59845237D01*
X72010238Y-59845237D02*
X72057857Y-59797618D01*
X72057857Y-59797618D02*
X72153095Y-59749999D01*
X72153095Y-59749999D02*
X72248333Y-59749999D01*
X72248333Y-59749999D02*
X72391190Y-59797618D01*
X72391190Y-59797618D02*
X72962619Y-60369046D01*
X72962619Y-60369046D02*
X72962619Y-59749999D01*
%TO.C,J1*%
X80023810Y-68712619D02*
X80642857Y-68712619D01*
X80642857Y-68712619D02*
X80309524Y-69093571D01*
X80309524Y-69093571D02*
X80452381Y-69093571D01*
X80452381Y-69093571D02*
X80547619Y-69141190D01*
X80547619Y-69141190D02*
X80595238Y-69188809D01*
X80595238Y-69188809D02*
X80642857Y-69284047D01*
X80642857Y-69284047D02*
X80642857Y-69522142D01*
X80642857Y-69522142D02*
X80595238Y-69617380D01*
X80595238Y-69617380D02*
X80547619Y-69665000D01*
X80547619Y-69665000D02*
X80452381Y-69712619D01*
X80452381Y-69712619D02*
X80166667Y-69712619D01*
X80166667Y-69712619D02*
X80071429Y-69665000D01*
X80071429Y-69665000D02*
X80023810Y-69617380D01*
X81119048Y-69665000D02*
X81119048Y-69712619D01*
X81119048Y-69712619D02*
X81071429Y-69807857D01*
X81071429Y-69807857D02*
X81023810Y-69855476D01*
X81452381Y-68712619D02*
X82119047Y-68712619D01*
X82119047Y-68712619D02*
X81690476Y-69712619D01*
X82357143Y-68712619D02*
X82690476Y-69712619D01*
X82690476Y-69712619D02*
X83023809Y-68712619D01*
%TO.C,C6*%
X111583333Y-67367380D02*
X111535714Y-67415000D01*
X111535714Y-67415000D02*
X111392857Y-67462619D01*
X111392857Y-67462619D02*
X111297619Y-67462619D01*
X111297619Y-67462619D02*
X111154762Y-67415000D01*
X111154762Y-67415000D02*
X111059524Y-67319761D01*
X111059524Y-67319761D02*
X111011905Y-67224523D01*
X111011905Y-67224523D02*
X110964286Y-67034047D01*
X110964286Y-67034047D02*
X110964286Y-66891190D01*
X110964286Y-66891190D02*
X111011905Y-66700714D01*
X111011905Y-66700714D02*
X111059524Y-66605476D01*
X111059524Y-66605476D02*
X111154762Y-66510238D01*
X111154762Y-66510238D02*
X111297619Y-66462619D01*
X111297619Y-66462619D02*
X111392857Y-66462619D01*
X111392857Y-66462619D02*
X111535714Y-66510238D01*
X111535714Y-66510238D02*
X111583333Y-66557857D01*
X112440476Y-66462619D02*
X112250000Y-66462619D01*
X112250000Y-66462619D02*
X112154762Y-66510238D01*
X112154762Y-66510238D02*
X112107143Y-66557857D01*
X112107143Y-66557857D02*
X112011905Y-66700714D01*
X112011905Y-66700714D02*
X111964286Y-66891190D01*
X111964286Y-66891190D02*
X111964286Y-67272142D01*
X111964286Y-67272142D02*
X112011905Y-67367380D01*
X112011905Y-67367380D02*
X112059524Y-67415000D01*
X112059524Y-67415000D02*
X112154762Y-67462619D01*
X112154762Y-67462619D02*
X112345238Y-67462619D01*
X112345238Y-67462619D02*
X112440476Y-67415000D01*
X112440476Y-67415000D02*
X112488095Y-67367380D01*
X112488095Y-67367380D02*
X112535714Y-67272142D01*
X112535714Y-67272142D02*
X112535714Y-67034047D01*
X112535714Y-67034047D02*
X112488095Y-66938809D01*
X112488095Y-66938809D02*
X112440476Y-66891190D01*
X112440476Y-66891190D02*
X112345238Y-66843571D01*
X112345238Y-66843571D02*
X112154762Y-66843571D01*
X112154762Y-66843571D02*
X112059524Y-66891190D01*
X112059524Y-66891190D02*
X112011905Y-66938809D01*
X112011905Y-66938809D02*
X111964286Y-67034047D01*
X109880952Y-68712619D02*
X109309524Y-68712619D01*
X109595238Y-68712619D02*
X109595238Y-67712619D01*
X109595238Y-67712619D02*
X109500000Y-67855476D01*
X109500000Y-67855476D02*
X109404762Y-67950714D01*
X109404762Y-67950714D02*
X109309524Y-67998333D01*
X110500000Y-67712619D02*
X110595238Y-67712619D01*
X110595238Y-67712619D02*
X110690476Y-67760238D01*
X110690476Y-67760238D02*
X110738095Y-67807857D01*
X110738095Y-67807857D02*
X110785714Y-67903095D01*
X110785714Y-67903095D02*
X110833333Y-68093571D01*
X110833333Y-68093571D02*
X110833333Y-68331666D01*
X110833333Y-68331666D02*
X110785714Y-68522142D01*
X110785714Y-68522142D02*
X110738095Y-68617380D01*
X110738095Y-68617380D02*
X110690476Y-68665000D01*
X110690476Y-68665000D02*
X110595238Y-68712619D01*
X110595238Y-68712619D02*
X110500000Y-68712619D01*
X110500000Y-68712619D02*
X110404762Y-68665000D01*
X110404762Y-68665000D02*
X110357143Y-68617380D01*
X110357143Y-68617380D02*
X110309524Y-68522142D01*
X110309524Y-68522142D02*
X110261905Y-68331666D01*
X110261905Y-68331666D02*
X110261905Y-68093571D01*
X110261905Y-68093571D02*
X110309524Y-67903095D01*
X110309524Y-67903095D02*
X110357143Y-67807857D01*
X110357143Y-67807857D02*
X110404762Y-67760238D01*
X110404762Y-67760238D02*
X110500000Y-67712619D01*
X111452381Y-67712619D02*
X111547619Y-67712619D01*
X111547619Y-67712619D02*
X111642857Y-67760238D01*
X111642857Y-67760238D02*
X111690476Y-67807857D01*
X111690476Y-67807857D02*
X111738095Y-67903095D01*
X111738095Y-67903095D02*
X111785714Y-68093571D01*
X111785714Y-68093571D02*
X111785714Y-68331666D01*
X111785714Y-68331666D02*
X111738095Y-68522142D01*
X111738095Y-68522142D02*
X111690476Y-68617380D01*
X111690476Y-68617380D02*
X111642857Y-68665000D01*
X111642857Y-68665000D02*
X111547619Y-68712619D01*
X111547619Y-68712619D02*
X111452381Y-68712619D01*
X111452381Y-68712619D02*
X111357143Y-68665000D01*
X111357143Y-68665000D02*
X111309524Y-68617380D01*
X111309524Y-68617380D02*
X111261905Y-68522142D01*
X111261905Y-68522142D02*
X111214286Y-68331666D01*
X111214286Y-68331666D02*
X111214286Y-68093571D01*
X111214286Y-68093571D02*
X111261905Y-67903095D01*
X111261905Y-67903095D02*
X111309524Y-67807857D01*
X111309524Y-67807857D02*
X111357143Y-67760238D01*
X111357143Y-67760238D02*
X111452381Y-67712619D01*
X112214286Y-68045952D02*
X112214286Y-68712619D01*
X112214286Y-68141190D02*
X112261905Y-68093571D01*
X112261905Y-68093571D02*
X112357143Y-68045952D01*
X112357143Y-68045952D02*
X112500000Y-68045952D01*
X112500000Y-68045952D02*
X112595238Y-68093571D01*
X112595238Y-68093571D02*
X112642857Y-68188809D01*
X112642857Y-68188809D02*
X112642857Y-68712619D01*
%TO.C,C3*%
X136833333Y-66617380D02*
X136785714Y-66665000D01*
X136785714Y-66665000D02*
X136642857Y-66712619D01*
X136642857Y-66712619D02*
X136547619Y-66712619D01*
X136547619Y-66712619D02*
X136404762Y-66665000D01*
X136404762Y-66665000D02*
X136309524Y-66569761D01*
X136309524Y-66569761D02*
X136261905Y-66474523D01*
X136261905Y-66474523D02*
X136214286Y-66284047D01*
X136214286Y-66284047D02*
X136214286Y-66141190D01*
X136214286Y-66141190D02*
X136261905Y-65950714D01*
X136261905Y-65950714D02*
X136309524Y-65855476D01*
X136309524Y-65855476D02*
X136404762Y-65760238D01*
X136404762Y-65760238D02*
X136547619Y-65712619D01*
X136547619Y-65712619D02*
X136642857Y-65712619D01*
X136642857Y-65712619D02*
X136785714Y-65760238D01*
X136785714Y-65760238D02*
X136833333Y-65807857D01*
X137166667Y-65712619D02*
X137785714Y-65712619D01*
X137785714Y-65712619D02*
X137452381Y-66093571D01*
X137452381Y-66093571D02*
X137595238Y-66093571D01*
X137595238Y-66093571D02*
X137690476Y-66141190D01*
X137690476Y-66141190D02*
X137738095Y-66188809D01*
X137738095Y-66188809D02*
X137785714Y-66284047D01*
X137785714Y-66284047D02*
X137785714Y-66522142D01*
X137785714Y-66522142D02*
X137738095Y-66617380D01*
X137738095Y-66617380D02*
X137690476Y-66665000D01*
X137690476Y-66665000D02*
X137595238Y-66712619D01*
X137595238Y-66712619D02*
X137309524Y-66712619D01*
X137309524Y-66712619D02*
X137214286Y-66665000D01*
X137214286Y-66665000D02*
X137166667Y-66617380D01*
X137083333Y-67962619D02*
X136511905Y-67962619D01*
X136797619Y-67962619D02*
X136797619Y-66962619D01*
X136797619Y-66962619D02*
X136702381Y-67105476D01*
X136702381Y-67105476D02*
X136607143Y-67200714D01*
X136607143Y-67200714D02*
X136511905Y-67248333D01*
X137940476Y-67295952D02*
X137940476Y-67962619D01*
X137511905Y-67295952D02*
X137511905Y-67819761D01*
X137511905Y-67819761D02*
X137559524Y-67915000D01*
X137559524Y-67915000D02*
X137654762Y-67962619D01*
X137654762Y-67962619D02*
X137797619Y-67962619D01*
X137797619Y-67962619D02*
X137892857Y-67915000D01*
X137892857Y-67915000D02*
X137940476Y-67867380D01*
%TO.C,C1*%
X92333333Y-66867380D02*
X92285714Y-66915000D01*
X92285714Y-66915000D02*
X92142857Y-66962619D01*
X92142857Y-66962619D02*
X92047619Y-66962619D01*
X92047619Y-66962619D02*
X91904762Y-66915000D01*
X91904762Y-66915000D02*
X91809524Y-66819761D01*
X91809524Y-66819761D02*
X91761905Y-66724523D01*
X91761905Y-66724523D02*
X91714286Y-66534047D01*
X91714286Y-66534047D02*
X91714286Y-66391190D01*
X91714286Y-66391190D02*
X91761905Y-66200714D01*
X91761905Y-66200714D02*
X91809524Y-66105476D01*
X91809524Y-66105476D02*
X91904762Y-66010238D01*
X91904762Y-66010238D02*
X92047619Y-65962619D01*
X92047619Y-65962619D02*
X92142857Y-65962619D01*
X92142857Y-65962619D02*
X92285714Y-66010238D01*
X92285714Y-66010238D02*
X92333333Y-66057857D01*
X93285714Y-66962619D02*
X92714286Y-66962619D01*
X93000000Y-66962619D02*
X93000000Y-65962619D01*
X93000000Y-65962619D02*
X92904762Y-66105476D01*
X92904762Y-66105476D02*
X92809524Y-66200714D01*
X92809524Y-66200714D02*
X92714286Y-66248333D01*
X93309523Y-59962619D02*
X92738095Y-59962619D01*
X93023809Y-59962619D02*
X93023809Y-58962619D01*
X93023809Y-58962619D02*
X92928571Y-59105476D01*
X92928571Y-59105476D02*
X92833333Y-59200714D01*
X92833333Y-59200714D02*
X92738095Y-59248333D01*
X93928571Y-58962619D02*
X94023809Y-58962619D01*
X94023809Y-58962619D02*
X94119047Y-59010238D01*
X94119047Y-59010238D02*
X94166666Y-59057857D01*
X94166666Y-59057857D02*
X94214285Y-59153095D01*
X94214285Y-59153095D02*
X94261904Y-59343571D01*
X94261904Y-59343571D02*
X94261904Y-59581666D01*
X94261904Y-59581666D02*
X94214285Y-59772142D01*
X94214285Y-59772142D02*
X94166666Y-59867380D01*
X94166666Y-59867380D02*
X94119047Y-59915000D01*
X94119047Y-59915000D02*
X94023809Y-59962619D01*
X94023809Y-59962619D02*
X93928571Y-59962619D01*
X93928571Y-59962619D02*
X93833333Y-59915000D01*
X93833333Y-59915000D02*
X93785714Y-59867380D01*
X93785714Y-59867380D02*
X93738095Y-59772142D01*
X93738095Y-59772142D02*
X93690476Y-59581666D01*
X93690476Y-59581666D02*
X93690476Y-59343571D01*
X93690476Y-59343571D02*
X93738095Y-59153095D01*
X93738095Y-59153095D02*
X93785714Y-59057857D01*
X93785714Y-59057857D02*
X93833333Y-59010238D01*
X93833333Y-59010238D02*
X93928571Y-58962619D01*
X94880952Y-58962619D02*
X94976190Y-58962619D01*
X94976190Y-58962619D02*
X95071428Y-59010238D01*
X95071428Y-59010238D02*
X95119047Y-59057857D01*
X95119047Y-59057857D02*
X95166666Y-59153095D01*
X95166666Y-59153095D02*
X95214285Y-59343571D01*
X95214285Y-59343571D02*
X95214285Y-59581666D01*
X95214285Y-59581666D02*
X95166666Y-59772142D01*
X95166666Y-59772142D02*
X95119047Y-59867380D01*
X95119047Y-59867380D02*
X95071428Y-59915000D01*
X95071428Y-59915000D02*
X94976190Y-59962619D01*
X94976190Y-59962619D02*
X94880952Y-59962619D01*
X94880952Y-59962619D02*
X94785714Y-59915000D01*
X94785714Y-59915000D02*
X94738095Y-59867380D01*
X94738095Y-59867380D02*
X94690476Y-59772142D01*
X94690476Y-59772142D02*
X94642857Y-59581666D01*
X94642857Y-59581666D02*
X94642857Y-59343571D01*
X94642857Y-59343571D02*
X94690476Y-59153095D01*
X94690476Y-59153095D02*
X94738095Y-59057857D01*
X94738095Y-59057857D02*
X94785714Y-59010238D01*
X94785714Y-59010238D02*
X94880952Y-58962619D01*
X95642857Y-59295952D02*
X95642857Y-60295952D01*
X96119047Y-59819761D02*
X96166666Y-59915000D01*
X96166666Y-59915000D02*
X96261904Y-59962619D01*
X95642857Y-59819761D02*
X95690476Y-59915000D01*
X95690476Y-59915000D02*
X95785714Y-59962619D01*
X95785714Y-59962619D02*
X95976190Y-59962619D01*
X95976190Y-59962619D02*
X96071428Y-59915000D01*
X96071428Y-59915000D02*
X96119047Y-59819761D01*
X96119047Y-59819761D02*
X96119047Y-59295952D01*
D13*
%TO.C,C2*%
X84831000Y-65790000D02*
X84831000Y-67098000D01*
X85711000Y-63051000D02*
X85711000Y-63710000D01*
X85991000Y-63431000D02*
X85991000Y-63710000D01*
X85951000Y-63367000D02*
X85951000Y-63710000D01*
X84230000Y-65790000D02*
X84230000Y-67286000D01*
X85031000Y-62503000D02*
X85031000Y-63710000D01*
X83750000Y-62170000D02*
X83750000Y-67330000D01*
X84911000Y-65790000D02*
X84911000Y-67060000D01*
X85591000Y-65790000D02*
X85591000Y-66576000D01*
X85191000Y-65790000D02*
X85191000Y-66899000D01*
X84471000Y-65790000D02*
X84471000Y-67230000D01*
X85231000Y-65790000D02*
X85231000Y-66872000D01*
X85911000Y-63307000D02*
X85911000Y-63710000D01*
X83830000Y-62171000D02*
X83830000Y-67329000D01*
X85351000Y-62715000D02*
X85351000Y-63710000D01*
X86311000Y-64232000D02*
X86311000Y-65268000D01*
X84551000Y-62295000D02*
X84551000Y-63710000D01*
X85071000Y-62526000D02*
X85071000Y-63710000D01*
X84871000Y-65790000D02*
X84871000Y-67079000D01*
X85671000Y-65790000D02*
X85671000Y-66493000D01*
X85391000Y-65790000D02*
X85391000Y-66754000D01*
X85991000Y-65790000D02*
X85991000Y-66069000D01*
X86031000Y-65790000D02*
X86031000Y-66001000D01*
X85551000Y-65790000D02*
X85551000Y-66614000D01*
X84310000Y-65790000D02*
X84310000Y-67270000D01*
X84230000Y-62214000D02*
X84230000Y-63710000D01*
X84471000Y-62270000D02*
X84471000Y-63710000D01*
X84671000Y-62336000D02*
X84671000Y-63710000D01*
X84430000Y-65790000D02*
X84430000Y-67241000D01*
X86271000Y-64073000D02*
X86271000Y-65427000D01*
X85151000Y-62575000D02*
X85151000Y-63710000D01*
X84511000Y-65790000D02*
X84511000Y-67218000D01*
X85631000Y-62965000D02*
X85631000Y-63710000D01*
X85911000Y-65790000D02*
X85911000Y-66193000D01*
X85471000Y-62813000D02*
X85471000Y-63710000D01*
X85191000Y-62601000D02*
X85191000Y-63710000D01*
X84871000Y-62421000D02*
X84871000Y-63710000D01*
X84110000Y-65790000D02*
X84110000Y-67306000D01*
X85951000Y-65790000D02*
X85951000Y-66133000D01*
X84350000Y-62239000D02*
X84350000Y-63710000D01*
X86111000Y-63652000D02*
X86111000Y-65848000D01*
X85671000Y-63007000D02*
X85671000Y-63710000D01*
X83990000Y-65790000D02*
X83990000Y-67319000D01*
X84270000Y-65790000D02*
X84270000Y-67278000D01*
X84190000Y-62207000D02*
X84190000Y-63710000D01*
X83910000Y-62174000D02*
X83910000Y-67326000D01*
X85271000Y-62655000D02*
X85271000Y-63710000D01*
X84991000Y-65790000D02*
X84991000Y-67018000D01*
X84751000Y-62368000D02*
X84751000Y-63710000D01*
X84390000Y-65790000D02*
X84390000Y-67251000D01*
X84270000Y-62222000D02*
X84270000Y-63710000D01*
X83790000Y-62170000D02*
X83790000Y-67330000D01*
X84791000Y-62385000D02*
X84791000Y-63710000D01*
X85751000Y-65790000D02*
X85751000Y-66403000D01*
X84390000Y-62249000D02*
X84390000Y-63710000D01*
X84070000Y-62189000D02*
X84070000Y-63710000D01*
X85111000Y-62550000D02*
X85111000Y-63710000D01*
X85351000Y-65790000D02*
X85351000Y-66785000D01*
X85591000Y-62924000D02*
X85591000Y-63710000D01*
X84150000Y-65790000D02*
X84150000Y-67300000D01*
X84591000Y-62308000D02*
X84591000Y-63710000D01*
X84310000Y-62230000D02*
X84310000Y-63710000D01*
X84150000Y-62200000D02*
X84150000Y-63710000D01*
X85151000Y-65790000D02*
X85151000Y-66925000D01*
X84711000Y-65790000D02*
X84711000Y-67148000D01*
X83870000Y-62172000D02*
X83870000Y-67328000D01*
X83950000Y-62177000D02*
X83950000Y-67323000D01*
X83990000Y-62181000D02*
X83990000Y-63710000D01*
X84350000Y-65790000D02*
X84350000Y-67261000D01*
X85631000Y-65790000D02*
X85631000Y-66535000D01*
X84951000Y-62460000D02*
X84951000Y-63710000D01*
X85311000Y-62685000D02*
X85311000Y-63710000D01*
X84791000Y-65790000D02*
X84791000Y-67115000D01*
X85751000Y-63097000D02*
X85751000Y-63710000D01*
X84110000Y-62194000D02*
X84110000Y-63710000D01*
X85471000Y-65790000D02*
X85471000Y-66687000D01*
X84591000Y-65790000D02*
X84591000Y-67192000D01*
X85311000Y-65790000D02*
X85311000Y-66815000D01*
X85031000Y-65790000D02*
X85031000Y-66997000D01*
X85511000Y-65790000D02*
X85511000Y-66651000D01*
X84551000Y-65790000D02*
X84551000Y-67205000D01*
X85071000Y-65790000D02*
X85071000Y-66974000D01*
X84711000Y-62352000D02*
X84711000Y-63710000D01*
X80945225Y-63275000D02*
X81445225Y-63275000D01*
X85791000Y-65790000D02*
X85791000Y-66355000D01*
X86231000Y-63945000D02*
X86231000Y-65555000D01*
X86031000Y-63499000D02*
X86031000Y-63710000D01*
X84631000Y-65790000D02*
X84631000Y-67178000D01*
X84030000Y-65790000D02*
X84030000Y-67315000D01*
X86351000Y-64466000D02*
X86351000Y-65034000D01*
X84631000Y-62322000D02*
X84631000Y-63710000D01*
X86151000Y-63739000D02*
X86151000Y-65761000D01*
X84751000Y-65790000D02*
X84751000Y-67132000D01*
X85391000Y-62746000D02*
X85391000Y-63710000D01*
X85871000Y-63250000D02*
X85871000Y-63710000D01*
X86071000Y-63572000D02*
X86071000Y-65928000D01*
X85231000Y-62628000D02*
X85231000Y-63710000D01*
X85111000Y-65790000D02*
X85111000Y-66950000D01*
X84671000Y-65790000D02*
X84671000Y-67164000D01*
X81195225Y-63025000D02*
X81195225Y-63525000D01*
X84831000Y-62402000D02*
X84831000Y-63710000D01*
X85431000Y-62779000D02*
X85431000Y-63710000D01*
X84430000Y-62259000D02*
X84430000Y-63710000D01*
X85271000Y-65790000D02*
X85271000Y-66845000D01*
X84070000Y-65790000D02*
X84070000Y-67311000D01*
X84951000Y-65790000D02*
X84951000Y-67040000D01*
X84991000Y-62482000D02*
X84991000Y-63710000D01*
X85831000Y-63196000D02*
X85831000Y-63710000D01*
X84911000Y-62440000D02*
X84911000Y-63710000D01*
X85831000Y-65790000D02*
X85831000Y-66304000D01*
X86191000Y-63835000D02*
X86191000Y-65665000D01*
X85431000Y-65790000D02*
X85431000Y-66721000D01*
X84030000Y-62185000D02*
X84030000Y-63710000D01*
X85871000Y-65790000D02*
X85871000Y-66250000D01*
X85511000Y-62849000D02*
X85511000Y-63710000D01*
X84190000Y-65790000D02*
X84190000Y-67293000D01*
X85791000Y-63145000D02*
X85791000Y-63710000D01*
X84511000Y-62282000D02*
X84511000Y-63710000D01*
X85711000Y-65790000D02*
X85711000Y-66449000D01*
X85551000Y-62886000D02*
X85551000Y-63710000D01*
X86370000Y-64750000D02*
G75*
G03*
X86370000Y-64750000I-2620000J0D01*
G01*
D14*
%TO.C,U3*%
X137733000Y-58561000D02*
X137733000Y-40781000D01*
X104713000Y-58561000D02*
X137733000Y-58561000D01*
X104713000Y-40781000D02*
X104713000Y-58561000D01*
X137733000Y-40781000D02*
X104713000Y-40781000D01*
%TO.C,U2*%
X68900000Y-58510000D02*
X101920000Y-58510000D01*
X101920000Y-58510000D02*
X101920000Y-40730000D01*
X101920000Y-40730000D02*
X68900000Y-40730000D01*
X68900000Y-40730000D02*
X68900000Y-58510000D01*
D13*
%TO.C,U1*%
X97150000Y-61790000D02*
X97150000Y-63440000D01*
X97150000Y-67090000D02*
X107430000Y-67090000D01*
X107430000Y-61790000D02*
X97150000Y-61790000D01*
X97150000Y-65440000D02*
X97150000Y-67090000D01*
X107430000Y-67090000D02*
X107430000Y-61790000D01*
X97150000Y-65440000D02*
G75*
G03*
X97150000Y-63440000I0J1000000D01*
G01*
%TO.C,R12*%
X120037000Y-64651936D02*
X120037000Y-66106064D01*
X118217000Y-64651936D02*
X118217000Y-66106064D01*
%TO.C,J5*%
X91540000Y-38330000D02*
X91540000Y-35670000D01*
X91540000Y-38330000D02*
X132240000Y-38330000D01*
X90270000Y-38330000D02*
X88940000Y-38330000D01*
X91540000Y-35670000D02*
X132240000Y-35670000D01*
X88940000Y-38330000D02*
X88940000Y-37000000D01*
X132240000Y-38330000D02*
X132240000Y-35670000D01*
%TO.C,J4*%
X70150000Y-34850000D02*
X70150000Y-34800000D01*
X70150000Y-34800000D02*
X68300000Y-34800000D01*
X70150000Y-36700000D02*
X70150000Y-34850000D01*
X68300000Y-36700000D02*
X70150000Y-36700000D01*
X68300000Y-34800000D02*
X68300000Y-36700000D01*
%TO.C,J3*%
X128930000Y-66275000D02*
X128930000Y-67605000D01*
X128930000Y-62405000D02*
X126270000Y-62405000D01*
X128930000Y-65005000D02*
X128930000Y-62405000D01*
X128930000Y-65005000D02*
X126270000Y-65005000D01*
X128930000Y-67605000D02*
X127600000Y-67605000D01*
X126270000Y-65005000D02*
X126270000Y-62405000D01*
%TO.C,J2*%
X71553000Y-59786000D02*
X68893000Y-59786000D01*
X71553000Y-64926000D02*
X71553000Y-59786000D01*
X71553000Y-66196000D02*
X71553000Y-67526000D01*
X68893000Y-64926000D02*
X68893000Y-59786000D01*
X71553000Y-67526000D02*
X70223000Y-67526000D01*
X71553000Y-64926000D02*
X68893000Y-64926000D01*
%TO.C,J1*%
X74710000Y-69580000D02*
X73380000Y-69580000D01*
X78580000Y-69580000D02*
X78580000Y-66920000D01*
X75980000Y-69580000D02*
X78580000Y-69580000D01*
X75980000Y-69580000D02*
X75980000Y-66920000D01*
X73380000Y-69580000D02*
X73380000Y-68250000D01*
X75980000Y-66920000D02*
X78580000Y-66920000D01*
%TO.C,C6*%
X114563748Y-66840000D02*
X115986252Y-66840000D01*
X114563748Y-68660000D02*
X115986252Y-68660000D01*
%TO.C,C3*%
X136331000Y-63790000D02*
X136331000Y-65098000D01*
X137211000Y-61051000D02*
X137211000Y-61710000D01*
X137491000Y-61431000D02*
X137491000Y-61710000D01*
X137451000Y-61367000D02*
X137451000Y-61710000D01*
X135730000Y-63790000D02*
X135730000Y-65286000D01*
X136531000Y-60503000D02*
X136531000Y-61710000D01*
X135250000Y-60170000D02*
X135250000Y-65330000D01*
X136411000Y-63790000D02*
X136411000Y-65060000D01*
X137091000Y-63790000D02*
X137091000Y-64576000D01*
X136691000Y-63790000D02*
X136691000Y-64899000D01*
X135971000Y-63790000D02*
X135971000Y-65230000D01*
X136731000Y-63790000D02*
X136731000Y-64872000D01*
X137411000Y-61307000D02*
X137411000Y-61710000D01*
X135330000Y-60171000D02*
X135330000Y-65329000D01*
X136851000Y-60715000D02*
X136851000Y-61710000D01*
X137811000Y-62232000D02*
X137811000Y-63268000D01*
X136051000Y-60295000D02*
X136051000Y-61710000D01*
X136571000Y-60526000D02*
X136571000Y-61710000D01*
X136371000Y-63790000D02*
X136371000Y-65079000D01*
X137171000Y-63790000D02*
X137171000Y-64493000D01*
X136891000Y-63790000D02*
X136891000Y-64754000D01*
X137491000Y-63790000D02*
X137491000Y-64069000D01*
X137531000Y-63790000D02*
X137531000Y-64001000D01*
X137051000Y-63790000D02*
X137051000Y-64614000D01*
X135810000Y-63790000D02*
X135810000Y-65270000D01*
X135730000Y-60214000D02*
X135730000Y-61710000D01*
X135971000Y-60270000D02*
X135971000Y-61710000D01*
X136171000Y-60336000D02*
X136171000Y-61710000D01*
X135930000Y-63790000D02*
X135930000Y-65241000D01*
X137771000Y-62073000D02*
X137771000Y-63427000D01*
X136651000Y-60575000D02*
X136651000Y-61710000D01*
X136011000Y-63790000D02*
X136011000Y-65218000D01*
X137131000Y-60965000D02*
X137131000Y-61710000D01*
X137411000Y-63790000D02*
X137411000Y-64193000D01*
X136971000Y-60813000D02*
X136971000Y-61710000D01*
X136691000Y-60601000D02*
X136691000Y-61710000D01*
X136371000Y-60421000D02*
X136371000Y-61710000D01*
X135610000Y-63790000D02*
X135610000Y-65306000D01*
X137451000Y-63790000D02*
X137451000Y-64133000D01*
X135850000Y-60239000D02*
X135850000Y-61710000D01*
X137611000Y-61652000D02*
X137611000Y-63848000D01*
X137171000Y-61007000D02*
X137171000Y-61710000D01*
X135490000Y-63790000D02*
X135490000Y-65319000D01*
X135770000Y-63790000D02*
X135770000Y-65278000D01*
X135690000Y-60207000D02*
X135690000Y-61710000D01*
X135410000Y-60174000D02*
X135410000Y-65326000D01*
X136771000Y-60655000D02*
X136771000Y-61710000D01*
X136491000Y-63790000D02*
X136491000Y-65018000D01*
X136251000Y-60368000D02*
X136251000Y-61710000D01*
X135890000Y-63790000D02*
X135890000Y-65251000D01*
X135770000Y-60222000D02*
X135770000Y-61710000D01*
X135290000Y-60170000D02*
X135290000Y-65330000D01*
X136291000Y-60385000D02*
X136291000Y-61710000D01*
X137251000Y-63790000D02*
X137251000Y-64403000D01*
X135890000Y-60249000D02*
X135890000Y-61710000D01*
X135570000Y-60189000D02*
X135570000Y-61710000D01*
X136611000Y-60550000D02*
X136611000Y-61710000D01*
X136851000Y-63790000D02*
X136851000Y-64785000D01*
X137091000Y-60924000D02*
X137091000Y-61710000D01*
X135650000Y-63790000D02*
X135650000Y-65300000D01*
X136091000Y-60308000D02*
X136091000Y-61710000D01*
X135810000Y-60230000D02*
X135810000Y-61710000D01*
X135650000Y-60200000D02*
X135650000Y-61710000D01*
X136651000Y-63790000D02*
X136651000Y-64925000D01*
X136211000Y-63790000D02*
X136211000Y-65148000D01*
X135370000Y-60172000D02*
X135370000Y-65328000D01*
X135450000Y-60177000D02*
X135450000Y-65323000D01*
X135490000Y-60181000D02*
X135490000Y-61710000D01*
X135850000Y-63790000D02*
X135850000Y-65261000D01*
X137131000Y-63790000D02*
X137131000Y-64535000D01*
X136451000Y-60460000D02*
X136451000Y-61710000D01*
X136811000Y-60685000D02*
X136811000Y-61710000D01*
X136291000Y-63790000D02*
X136291000Y-65115000D01*
X137251000Y-61097000D02*
X137251000Y-61710000D01*
X135610000Y-60194000D02*
X135610000Y-61710000D01*
X136971000Y-63790000D02*
X136971000Y-64687000D01*
X136091000Y-63790000D02*
X136091000Y-65192000D01*
X136811000Y-63790000D02*
X136811000Y-64815000D01*
X136531000Y-63790000D02*
X136531000Y-64997000D01*
X137011000Y-63790000D02*
X137011000Y-64651000D01*
X136051000Y-63790000D02*
X136051000Y-65205000D01*
X136571000Y-63790000D02*
X136571000Y-64974000D01*
X136211000Y-60352000D02*
X136211000Y-61710000D01*
X132445225Y-61275000D02*
X132945225Y-61275000D01*
X137291000Y-63790000D02*
X137291000Y-64355000D01*
X137731000Y-61945000D02*
X137731000Y-63555000D01*
X137531000Y-61499000D02*
X137531000Y-61710000D01*
X136131000Y-63790000D02*
X136131000Y-65178000D01*
X135530000Y-63790000D02*
X135530000Y-65315000D01*
X137851000Y-62466000D02*
X137851000Y-63034000D01*
X136131000Y-60322000D02*
X136131000Y-61710000D01*
X137651000Y-61739000D02*
X137651000Y-63761000D01*
X136251000Y-63790000D02*
X136251000Y-65132000D01*
X136891000Y-60746000D02*
X136891000Y-61710000D01*
X137371000Y-61250000D02*
X137371000Y-61710000D01*
X137571000Y-61572000D02*
X137571000Y-63928000D01*
X136731000Y-60628000D02*
X136731000Y-61710000D01*
X136611000Y-63790000D02*
X136611000Y-64950000D01*
X136171000Y-63790000D02*
X136171000Y-65164000D01*
X132695225Y-61025000D02*
X132695225Y-61525000D01*
X136331000Y-60402000D02*
X136331000Y-61710000D01*
X136931000Y-60779000D02*
X136931000Y-61710000D01*
X135930000Y-60259000D02*
X135930000Y-61710000D01*
X136771000Y-63790000D02*
X136771000Y-64845000D01*
X135570000Y-63790000D02*
X135570000Y-65311000D01*
X136451000Y-63790000D02*
X136451000Y-65040000D01*
X136491000Y-60482000D02*
X136491000Y-61710000D01*
X137331000Y-61196000D02*
X137331000Y-61710000D01*
X136411000Y-60440000D02*
X136411000Y-61710000D01*
X137331000Y-63790000D02*
X137331000Y-64304000D01*
X137691000Y-61835000D02*
X137691000Y-63665000D01*
X136931000Y-63790000D02*
X136931000Y-64721000D01*
X135530000Y-60185000D02*
X135530000Y-61710000D01*
X137371000Y-63790000D02*
X137371000Y-64250000D01*
X137011000Y-60849000D02*
X137011000Y-61710000D01*
X135690000Y-63790000D02*
X135690000Y-65293000D01*
X137291000Y-61145000D02*
X137291000Y-61710000D01*
X136011000Y-60282000D02*
X136011000Y-61710000D01*
X137211000Y-63790000D02*
X137211000Y-64449000D01*
X137051000Y-60886000D02*
X137051000Y-61710000D01*
X137870000Y-62750000D02*
G75*
G03*
X137870000Y-62750000I-2620000J0D01*
G01*
%TO.C,C1*%
X90960000Y-63875888D02*
X89652000Y-63875888D01*
X93699000Y-64755888D02*
X93040000Y-64755888D01*
X93319000Y-65035888D02*
X93040000Y-65035888D01*
X93383000Y-64995888D02*
X93040000Y-64995888D01*
X90960000Y-63274888D02*
X89464000Y-63274888D01*
X94247000Y-64075888D02*
X93040000Y-64075888D01*
X94580000Y-62794888D02*
X89420000Y-62794888D01*
X90960000Y-63955888D02*
X89690000Y-63955888D01*
X90960000Y-64635888D02*
X90174000Y-64635888D01*
X90960000Y-64235888D02*
X89851000Y-64235888D01*
X90960000Y-63515888D02*
X89520000Y-63515888D01*
X90960000Y-64275888D02*
X89878000Y-64275888D01*
X93443000Y-64955888D02*
X93040000Y-64955888D01*
X94579000Y-62874888D02*
X89421000Y-62874888D01*
X94035000Y-64395888D02*
X93040000Y-64395888D01*
X92518000Y-65355888D02*
X91482000Y-65355888D01*
X94455000Y-63595888D02*
X93040000Y-63595888D01*
X94224000Y-64115888D02*
X93040000Y-64115888D01*
X90960000Y-63915888D02*
X89671000Y-63915888D01*
X90960000Y-64715888D02*
X90257000Y-64715888D01*
X90960000Y-64435888D02*
X89996000Y-64435888D01*
X90960000Y-65035888D02*
X90681000Y-65035888D01*
X90960000Y-65075888D02*
X90749000Y-65075888D01*
X90960000Y-64595888D02*
X90136000Y-64595888D01*
X90960000Y-63354888D02*
X89480000Y-63354888D01*
X94536000Y-63274888D02*
X93040000Y-63274888D01*
X94480000Y-63515888D02*
X93040000Y-63515888D01*
X94414000Y-63715888D02*
X93040000Y-63715888D01*
X90960000Y-63474888D02*
X89509000Y-63474888D01*
X92677000Y-65315888D02*
X91323000Y-65315888D01*
X94175000Y-64195888D02*
X93040000Y-64195888D01*
X90960000Y-63555888D02*
X89532000Y-63555888D01*
X93785000Y-64675888D02*
X93040000Y-64675888D01*
X90960000Y-64955888D02*
X90557000Y-64955888D01*
X93937000Y-64515888D02*
X93040000Y-64515888D01*
X94149000Y-64235888D02*
X93040000Y-64235888D01*
X94329000Y-63915888D02*
X93040000Y-63915888D01*
X90960000Y-63154888D02*
X89444000Y-63154888D01*
X90960000Y-64995888D02*
X90617000Y-64995888D01*
X94511000Y-63394888D02*
X93040000Y-63394888D01*
X93098000Y-65155888D02*
X90902000Y-65155888D01*
X93743000Y-64715888D02*
X93040000Y-64715888D01*
X90960000Y-63034888D02*
X89431000Y-63034888D01*
X90960000Y-63314888D02*
X89472000Y-63314888D01*
X94543000Y-63234888D02*
X93040000Y-63234888D01*
X94576000Y-62954888D02*
X89424000Y-62954888D01*
X94095000Y-64315888D02*
X93040000Y-64315888D01*
X90960000Y-64035888D02*
X89732000Y-64035888D01*
X94382000Y-63795888D02*
X93040000Y-63795888D01*
X90960000Y-63434888D02*
X89499000Y-63434888D01*
X94528000Y-63314888D02*
X93040000Y-63314888D01*
X94580000Y-62834888D02*
X89420000Y-62834888D01*
X94365000Y-63835888D02*
X93040000Y-63835888D01*
X90960000Y-64795888D02*
X90347000Y-64795888D01*
X94501000Y-63434888D02*
X93040000Y-63434888D01*
X94561000Y-63114888D02*
X93040000Y-63114888D01*
X94200000Y-64155888D02*
X93040000Y-64155888D01*
X90960000Y-64395888D02*
X89965000Y-64395888D01*
X93826000Y-64635888D02*
X93040000Y-64635888D01*
X90960000Y-63194888D02*
X89450000Y-63194888D01*
X94442000Y-63635888D02*
X93040000Y-63635888D01*
X94520000Y-63354888D02*
X93040000Y-63354888D01*
X94550000Y-63194888D02*
X93040000Y-63194888D01*
X90960000Y-64195888D02*
X89825000Y-64195888D01*
X90960000Y-63755888D02*
X89602000Y-63755888D01*
X94578000Y-62914888D02*
X89422000Y-62914888D01*
X94573000Y-62994888D02*
X89427000Y-62994888D01*
X94569000Y-63034888D02*
X93040000Y-63034888D01*
X90960000Y-63394888D02*
X89489000Y-63394888D01*
X90960000Y-64675888D02*
X90215000Y-64675888D01*
X94290000Y-63995888D02*
X93040000Y-63995888D01*
X94065000Y-64355888D02*
X93040000Y-64355888D01*
X90960000Y-63835888D02*
X89635000Y-63835888D01*
X93653000Y-64795888D02*
X93040000Y-64795888D01*
X94556000Y-63154888D02*
X93040000Y-63154888D01*
X90960000Y-64515888D02*
X90063000Y-64515888D01*
X90960000Y-63635888D02*
X89558000Y-63635888D01*
X90960000Y-64355888D02*
X89935000Y-64355888D01*
X90960000Y-64075888D02*
X89753000Y-64075888D01*
X90960000Y-64555888D02*
X90099000Y-64555888D01*
X90960000Y-63595888D02*
X89545000Y-63595888D01*
X90960000Y-64115888D02*
X89776000Y-64115888D01*
X94398000Y-63755888D02*
X93040000Y-63755888D01*
X93475000Y-59990113D02*
X93475000Y-60490113D01*
X90960000Y-64835888D02*
X90395000Y-64835888D01*
X92805000Y-65275888D02*
X91195000Y-65275888D01*
X93251000Y-65075888D02*
X93040000Y-65075888D01*
X90960000Y-63675888D02*
X89572000Y-63675888D01*
X90960000Y-63074888D02*
X89435000Y-63074888D01*
X92284000Y-65395888D02*
X91716000Y-65395888D01*
X94428000Y-63675888D02*
X93040000Y-63675888D01*
X93011000Y-65195888D02*
X90989000Y-65195888D01*
X90960000Y-63795888D02*
X89618000Y-63795888D01*
X94004000Y-64435888D02*
X93040000Y-64435888D01*
X93500000Y-64915888D02*
X93040000Y-64915888D01*
X93178000Y-65115888D02*
X90822000Y-65115888D01*
X94122000Y-64275888D02*
X93040000Y-64275888D01*
X90960000Y-64155888D02*
X89800000Y-64155888D01*
X90960000Y-63715888D02*
X89586000Y-63715888D01*
X93725000Y-60240113D02*
X93225000Y-60240113D01*
X94348000Y-63875888D02*
X93040000Y-63875888D01*
X93971000Y-64475888D02*
X93040000Y-64475888D01*
X94491000Y-63474888D02*
X93040000Y-63474888D01*
X90960000Y-64315888D02*
X89905000Y-64315888D01*
X90960000Y-63114888D02*
X89439000Y-63114888D01*
X90960000Y-63995888D02*
X89710000Y-63995888D01*
X94268000Y-64035888D02*
X93040000Y-64035888D01*
X93554000Y-64875888D02*
X93040000Y-64875888D01*
X94310000Y-63955888D02*
X93040000Y-63955888D01*
X90960000Y-64875888D02*
X90446000Y-64875888D01*
X92915000Y-65235888D02*
X91085000Y-65235888D01*
X90960000Y-64475888D02*
X90029000Y-64475888D01*
X94565000Y-63074888D02*
X93040000Y-63074888D01*
X90960000Y-64915888D02*
X90500000Y-64915888D01*
X93901000Y-64555888D02*
X93040000Y-64555888D01*
X90960000Y-63234888D02*
X89457000Y-63234888D01*
X93605000Y-64835888D02*
X93040000Y-64835888D01*
X94468000Y-63555888D02*
X93040000Y-63555888D01*
X90960000Y-64755888D02*
X90301000Y-64755888D01*
X93864000Y-64595888D02*
X93040000Y-64595888D01*
X94620000Y-62794888D02*
G75*
G03*
X94620000Y-62794888I-2620000J0D01*
G01*
%TD*%
M02*
