%TF.GenerationSoftware,KiCad,Pcbnew,7.0.2*%
%TF.CreationDate,2023-05-22T23:48:16+02:00*%
%TF.ProjectId,ToneLighter,546f6e65-4c69-4676-9874-65722e6b6963,rev?*%
%TF.SameCoordinates,Original*%
%TF.FileFunction,Soldermask,Top*%
%TF.FilePolarity,Negative*%
%FSLAX46Y46*%
G04 Gerber Fmt 4.6, Leading zero omitted, Abs format (unit mm)*
G04 Created by KiCad (PCBNEW 7.0.2) date 2023-05-22 23:48:16*
%MOMM*%
%LPD*%
G01*
G04 APERTURE LIST*
G04 Aperture macros list*
%AMRoundRect*
0 Rectangle with rounded corners*
0 $1 Rounding radius*
0 $2 $3 $4 $5 $6 $7 $8 $9 X,Y pos of 4 corners*
0 Add a 4 corners polygon primitive as box body*
4,1,4,$2,$3,$4,$5,$6,$7,$8,$9,$2,$3,0*
0 Add four circle primitives for the rounded corners*
1,1,$1+$1,$2,$3*
1,1,$1+$1,$4,$5*
1,1,$1+$1,$6,$7*
1,1,$1+$1,$8,$9*
0 Add four rect primitives between the rounded corners*
20,1,$1+$1,$2,$3,$4,$5,0*
20,1,$1+$1,$4,$5,$6,$7,0*
20,1,$1+$1,$6,$7,$8,$9,0*
20,1,$1+$1,$8,$9,$2,$3,0*%
G04 Aperture macros list end*
%ADD10R,1.600000X1.600000*%
%ADD11C,1.600000*%
%ADD12C,2.500000*%
%ADD13C,1.879600*%
%ADD14O,1.600000X1.600000*%
%ADD15RoundRect,0.250000X-0.625000X0.400000X-0.625000X-0.400000X0.625000X-0.400000X0.625000X0.400000X0*%
%ADD16R,1.700000X1.700000*%
%ADD17O,1.700000X1.700000*%
%ADD18C,1.400000*%
%ADD19RoundRect,0.250000X-0.325000X-0.650000X0.325000X-0.650000X0.325000X0.650000X-0.325000X0.650000X0*%
G04 APERTURE END LIST*
D10*
%TO.C,C2*%
X82500000Y-64750000D03*
D11*
X85000000Y-64750000D03*
%TD*%
D12*
%TO.C,REF\u002A\u002A*%
X135500000Y-37500000D03*
%TD*%
%TO.C,REF\u002A\u002A*%
X75250000Y-63500000D03*
%TD*%
D13*
%TO.C,U3*%
X136463000Y-56021000D03*
X136463000Y-53481000D03*
X136463000Y-50941000D03*
X136463000Y-48401000D03*
X136463000Y-45861000D03*
X136463000Y-43321000D03*
X122620000Y-54370000D03*
X125160000Y-54370000D03*
X114746000Y-54370000D03*
X112206000Y-54370000D03*
X133923000Y-57291000D03*
X131383000Y-57291000D03*
X128843000Y-57291000D03*
X126303000Y-57291000D03*
X123763000Y-57291000D03*
X121223000Y-57291000D03*
X118683000Y-57291000D03*
X116143000Y-57291000D03*
X113603000Y-57291000D03*
X111063000Y-57291000D03*
X108523000Y-57291000D03*
X105983000Y-57291000D03*
X105983000Y-42051000D03*
X108523000Y-42051000D03*
X111063000Y-42051000D03*
X113603000Y-42051000D03*
X116143000Y-42051000D03*
X118683000Y-42051000D03*
X121223000Y-42051000D03*
X123763000Y-42051000D03*
X126303000Y-42051000D03*
X128843000Y-42051000D03*
X131383000Y-42051000D03*
X133923000Y-42051000D03*
%TD*%
%TO.C,U2*%
X72710000Y-57240000D03*
X75250000Y-57240000D03*
X77790000Y-57240000D03*
X80330000Y-57240000D03*
X82870000Y-57240000D03*
X85410000Y-57240000D03*
X87950000Y-57240000D03*
X90490000Y-57240000D03*
X93030000Y-57240000D03*
X95570000Y-57240000D03*
X98110000Y-57240000D03*
X100650000Y-57240000D03*
X100650000Y-42000000D03*
X98110000Y-42000000D03*
X95570000Y-42000000D03*
X93030000Y-42000000D03*
X90490000Y-42000000D03*
X87950000Y-42000000D03*
X85410000Y-42000000D03*
X82870000Y-42000000D03*
X80330000Y-42000000D03*
X77790000Y-42000000D03*
X75250000Y-42000000D03*
X72710000Y-42000000D03*
X94427000Y-44921000D03*
X91887000Y-44921000D03*
X81473000Y-44921000D03*
X84013000Y-44921000D03*
X70170000Y-55970000D03*
X70170000Y-53430000D03*
X70170000Y-50890000D03*
X70170000Y-48350000D03*
X70170000Y-45810000D03*
X70170000Y-43270000D03*
%TD*%
D10*
%TO.C,U1*%
X98480000Y-68250000D03*
D14*
X101020000Y-68250000D03*
X103560000Y-68250000D03*
X106100000Y-68250000D03*
X106100000Y-60630000D03*
X103560000Y-60630000D03*
X101020000Y-60630000D03*
X98480000Y-60630000D03*
%TD*%
D15*
%TO.C,R12*%
X119127000Y-63829000D03*
X119127000Y-66929000D03*
%TD*%
D16*
%TO.C,J5*%
X90270000Y-37000000D03*
D17*
X92810000Y-37000000D03*
X95350000Y-37000000D03*
X97890000Y-37000000D03*
X100430000Y-37000000D03*
X102970000Y-37000000D03*
X105510000Y-37000000D03*
X108050000Y-37000000D03*
X110590000Y-37000000D03*
X113130000Y-37000000D03*
X115670000Y-37000000D03*
X118210000Y-37000000D03*
X120750000Y-37000000D03*
X123290000Y-37000000D03*
X125830000Y-37000000D03*
X128370000Y-37000000D03*
X130910000Y-37000000D03*
%TD*%
D18*
%TO.C,J4*%
X69250000Y-35750000D03*
%TD*%
D16*
%TO.C,J3*%
X127600000Y-66275000D03*
D17*
X127600000Y-63735000D03*
%TD*%
D16*
%TO.C,J2*%
X70223000Y-66196000D03*
D17*
X70223000Y-63656000D03*
X70223000Y-61116000D03*
%TD*%
D16*
%TO.C,J1*%
X74710000Y-68250000D03*
D17*
X77250000Y-68250000D03*
%TD*%
D19*
%TO.C,C6*%
X113800000Y-67750000D03*
X116750000Y-67750000D03*
%TD*%
D10*
%TO.C,C3*%
X134000000Y-62750000D03*
D11*
X136500000Y-62750000D03*
%TD*%
D10*
%TO.C,C1*%
X92000000Y-61544888D03*
D11*
X92000000Y-64044888D03*
%TD*%
M02*
