M48
; DRILL file {KiCad 7.0.2} date Mon May 22 23:48:28 2023
; FORMAT={-:-/ absolute / inch / decimal}
; #@! TF.CreationDate,2023-05-22T23:48:28+02:00
; #@! TF.GenerationSoftware,Kicad,Pcbnew,7.0.2
; #@! TF.FileFunction,Plated,1,2,PTH
FMAT,2
INCH
; #@! TA.AperFunction,Plated,PTH,ViaDrill
T1C0.0157
; #@! TA.AperFunction,Plated,PTH,ComponentDrill
T2C0.0276
; #@! TA.AperFunction,Plated,PTH,ComponentDrill
T3C0.0315
; #@! TA.AperFunction,Plated,PTH,ComponentDrill
T4C0.0394
; #@! TA.AperFunction,Plated,PTH,ComponentDrill
T5C0.0400
%
G90
G05
T1
X2.8543Y-2.1555
X2.9724Y-2.3622
X3.061Y-2.3622
X3.1102Y-2.0965
X3.1791Y-2.4606
X3.4449Y-2.4213
X3.4646Y-1.811
X3.5039Y-2.0276
X4.0059Y-1.9094
X4.1437Y-2.0472
X4.2717Y-1.9685
X4.5079Y-1.8799
X4.7736Y-2.5098
X5.0098Y-1.9193
X5.0689Y-2.3819
X5.1378Y-2.5886
X5.1476Y-1.9094
T2
X2.7264Y-1.4075
T3
X3.248Y-2.5492
X3.3465Y-2.5492
X3.622Y-2.423
X3.622Y-2.5215
X3.8772Y-2.387
X3.8772Y-2.687
X3.9772Y-2.387
X3.9772Y-2.687
X4.0772Y-2.387
X4.0772Y-2.687
X4.1772Y-2.387
X4.1772Y-2.687
X5.2756Y-2.4705
X5.374Y-2.4705
T4
X2.7647Y-2.4061
X2.7647Y-2.5061
X2.7647Y-2.6061
X2.9413Y-2.687
X3.0413Y-2.687
X3.5539Y-1.4567
X3.6539Y-1.4567
X3.7539Y-1.4567
X3.8539Y-1.4567
X3.9539Y-1.4567
X4.0539Y-1.4567
X4.1539Y-1.4567
X4.2539Y-1.4567
X4.3539Y-1.4567
X4.4539Y-1.4567
X4.5539Y-1.4567
X4.6539Y-1.4567
X4.7539Y-1.4567
X4.8539Y-1.4567
X4.9539Y-1.4567
X5.0236Y-2.5093
X5.0236Y-2.6093
X5.0539Y-1.4567
X5.1539Y-1.4567
T5
X2.7626Y-1.7035
X2.7626Y-1.8035
X2.7626Y-1.9035
X2.7626Y-2.0035
X2.7626Y-2.1035
X2.7626Y-2.2035
X2.8626Y-1.6535
X2.8626Y-2.2535
X2.9626Y-1.6535
X2.9626Y-2.2535
X3.0626Y-1.6535
X3.0626Y-2.2535
X3.1626Y-1.6535
X3.1626Y-2.2535
X3.2076Y-1.7685
X3.2626Y-1.6535
X3.2626Y-2.2535
X3.3076Y-1.7685
X3.3626Y-1.6535
X3.3626Y-2.2535
X3.4626Y-1.6535
X3.4626Y-2.2535
X3.5626Y-1.6535
X3.5626Y-2.2535
X3.6176Y-1.7685
X3.6626Y-1.6535
X3.6626Y-2.2535
X3.7176Y-1.7685
X3.7626Y-1.6535
X3.7626Y-2.2535
X3.8626Y-1.6535
X3.8626Y-2.2535
X3.9626Y-1.6535
X3.9626Y-2.2535
X4.1726Y-1.6556
X4.1726Y-2.2556
X4.2726Y-1.6556
X4.2726Y-2.2556
X4.3726Y-1.6556
X4.3726Y-2.2556
X4.4176Y-2.1406
X4.4726Y-1.6556
X4.4726Y-2.2556
X4.5176Y-2.1406
X4.5726Y-1.6556
X4.5726Y-2.2556
X4.6726Y-1.6556
X4.6726Y-2.2556
X4.7726Y-1.6556
X4.7726Y-2.2556
X4.8276Y-2.1406
X4.8726Y-1.6556
X4.8726Y-2.2556
X4.9276Y-2.1406
X4.9726Y-1.6556
X4.9726Y-2.2556
X5.0726Y-1.6556
X5.0726Y-2.2556
X5.1726Y-1.6556
X5.1726Y-2.2556
X5.2726Y-1.6556
X5.2726Y-2.2556
X5.3726Y-1.7056
X5.3726Y-1.8056
X5.3726Y-1.9056
X5.3726Y-2.0056
X5.3726Y-2.1056
X5.3726Y-2.2056
T0
M30
