%TF.GenerationSoftware,KiCad,Pcbnew,7.0.2*%
%TF.CreationDate,2023-05-22T23:48:16+02:00*%
%TF.ProjectId,ToneLighter,546f6e65-4c69-4676-9874-65722e6b6963,rev?*%
%TF.SameCoordinates,Original*%
%TF.FileFunction,Copper,L2,Bot*%
%TF.FilePolarity,Positive*%
%FSLAX46Y46*%
G04 Gerber Fmt 4.6, Leading zero omitted, Abs format (unit mm)*
G04 Created by KiCad (PCBNEW 7.0.2) date 2023-05-22 23:48:16*
%MOMM*%
%LPD*%
G01*
G04 APERTURE LIST*
G04 Aperture macros list*
%AMRoundRect*
0 Rectangle with rounded corners*
0 $1 Rounding radius*
0 $2 $3 $4 $5 $6 $7 $8 $9 X,Y pos of 4 corners*
0 Add a 4 corners polygon primitive as box body*
4,1,4,$2,$3,$4,$5,$6,$7,$8,$9,$2,$3,0*
0 Add four circle primitives for the rounded corners*
1,1,$1+$1,$2,$3*
1,1,$1+$1,$4,$5*
1,1,$1+$1,$6,$7*
1,1,$1+$1,$8,$9*
0 Add four rect primitives between the rounded corners*
20,1,$1+$1,$2,$3,$4,$5,0*
20,1,$1+$1,$4,$5,$6,$7,0*
20,1,$1+$1,$6,$7,$8,$9,0*
20,1,$1+$1,$8,$9,$2,$3,0*%
G04 Aperture macros list end*
%TA.AperFunction,ComponentPad*%
%ADD10R,1.600000X1.600000*%
%TD*%
%TA.AperFunction,ComponentPad*%
%ADD11C,1.600000*%
%TD*%
%TA.AperFunction,ComponentPad*%
%ADD12C,1.879600*%
%TD*%
%TA.AperFunction,ComponentPad*%
%ADD13O,1.600000X1.600000*%
%TD*%
%TA.AperFunction,SMDPad,CuDef*%
%ADD14RoundRect,0.250000X0.625000X-0.400000X0.625000X0.400000X-0.625000X0.400000X-0.625000X-0.400000X0*%
%TD*%
%TA.AperFunction,SMDPad,CuDef*%
%ADD15RoundRect,0.250000X0.400000X0.625000X-0.400000X0.625000X-0.400000X-0.625000X0.400000X-0.625000X0*%
%TD*%
%TA.AperFunction,SMDPad,CuDef*%
%ADD16RoundRect,0.250000X-0.400000X-0.625000X0.400000X-0.625000X0.400000X0.625000X-0.400000X0.625000X0*%
%TD*%
%TA.AperFunction,ComponentPad*%
%ADD17R,1.700000X1.700000*%
%TD*%
%TA.AperFunction,ComponentPad*%
%ADD18O,1.700000X1.700000*%
%TD*%
%TA.AperFunction,ComponentPad*%
%ADD19C,1.400000*%
%TD*%
%TA.AperFunction,SMDPad,CuDef*%
%ADD20RoundRect,0.250000X0.650000X-0.325000X0.650000X0.325000X-0.650000X0.325000X-0.650000X-0.325000X0*%
%TD*%
%TA.AperFunction,SMDPad,CuDef*%
%ADD21RoundRect,0.250000X-0.650000X0.325000X-0.650000X-0.325000X0.650000X-0.325000X0.650000X0.325000X0*%
%TD*%
%TA.AperFunction,ViaPad*%
%ADD22C,0.800000*%
%TD*%
%TA.AperFunction,Conductor*%
%ADD23C,0.500000*%
%TD*%
%TA.AperFunction,Conductor*%
%ADD24C,0.250000*%
%TD*%
G04 APERTURE END LIST*
D10*
%TO.P,C2,1*%
%TO.N,VCCP*%
X82500000Y-64750000D03*
D11*
%TO.P,C2,2*%
%TO.N,GND*%
X85000000Y-64750000D03*
%TD*%
D12*
%TO.P,U3,JP1_1,DTR*%
%TO.N,unconnected-(U3-DTR-PadJP1_1)*%
X136463000Y-56021000D03*
%TO.P,U3,JP1_2,TXO*%
%TO.N,Net-(U3-TXO)*%
X136463000Y-53481000D03*
%TO.P,U3,JP1_3,RXI*%
%TO.N,unconnected-(U3-RXI-PadJP1_3)*%
X136463000Y-50941000D03*
%TO.P,U3,JP1_4,VCC*%
%TO.N,Net-(U3-VCC)*%
X136463000Y-48401000D03*
%TO.P,U3,JP1_5,GND*%
%TO.N,GND*%
X136463000Y-45861000D03*
%TO.P,U3,JP1_6,GND*%
X136463000Y-43321000D03*
%TO.P,U3,JP2_1,A4*%
%TO.N,unconnected-(U3-A4-PadJP2_1)*%
X122620000Y-54370000D03*
%TO.P,U3,JP2_2,A5*%
%TO.N,unconnected-(U3-A5-PadJP2_2)*%
X125160000Y-54370000D03*
%TO.P,U3,JP3_2,A7*%
%TO.N,unconnected-(U3-A7-PadJP3_2)*%
X114746000Y-54370000D03*
%TO.P,U3,JP3_1,A6*%
%TO.N,unconnected-(U3-A6-PadJP3_1)*%
X112206000Y-54370000D03*
%TO.P,U3,JP6_1,RAW*%
%TO.N,unconnected-(U3-RAW-PadJP6_1)*%
X133923000Y-57291000D03*
%TO.P,U3,JP6_2,GND_1*%
%TO.N,GND*%
X131383000Y-57291000D03*
%TO.P,U3,JP6_3,RST_1*%
%TO.N,unconnected-(U3-RST_1-PadJP6_3)*%
X128843000Y-57291000D03*
%TO.P,U3,JP6_4,VCC_1*%
%TO.N,unconnected-(U3-VCC_1-PadJP6_4)*%
X126303000Y-57291000D03*
%TO.P,U3,JP6_5,A3*%
%TO.N,unconnected-(U3-A3-PadJP6_5)*%
X123763000Y-57291000D03*
%TO.P,U3,JP6_6,A2*%
%TO.N,unconnected-(U3-A2-PadJP6_6)*%
X121223000Y-57291000D03*
%TO.P,U3,JP6_7,A1*%
%TO.N,unconnected-(U3-A1-PadJP6_7)*%
X118683000Y-57291000D03*
%TO.P,U3,JP6_8,A0*%
%TO.N,unconnected-(U3-A0-PadJP6_8)*%
X116143000Y-57291000D03*
%TO.P,U3,JP6_9,SCK*%
%TO.N,unconnected-(U3-SCK-PadJP6_9)*%
X113603000Y-57291000D03*
%TO.P,U3,JP6_10,MISO*%
%TO.N,unconnected-(U3-MISO-PadJP6_10)*%
X111063000Y-57291000D03*
%TO.P,U3,JP6_11,MOSI*%
%TO.N,unconnected-(U3-MOSI-PadJP6_11)*%
X108523000Y-57291000D03*
%TO.P,U3,JP6_12,D10*%
%TO.N,unconnected-(U3-D10-PadJP6_12)*%
X105983000Y-57291000D03*
%TO.P,U3,JP7_1,D9*%
%TO.N,unconnected-(U3-D9-PadJP7_1)*%
X105983000Y-42051000D03*
%TO.P,U3,JP7_2,D8*%
%TO.N,unconnected-(U3-D8-PadJP7_2)*%
X108523000Y-42051000D03*
%TO.P,U3,JP7_3,D7*%
%TO.N,unconnected-(U3-D7-PadJP7_3)*%
X111063000Y-42051000D03*
%TO.P,U3,JP7_4,D6*%
%TO.N,unconnected-(U3-D6-PadJP7_4)*%
X113603000Y-42051000D03*
%TO.P,U3,JP7_5,D5*%
%TO.N,unconnected-(U3-D5-PadJP7_5)*%
X116143000Y-42051000D03*
%TO.P,U3,JP7_6,D4*%
%TO.N,RF_VCC*%
X118683000Y-42051000D03*
%TO.P,U3,JP7_7,D3*%
%TO.N,unconnected-(U3-D3-PadJP7_7)*%
X121223000Y-42051000D03*
%TO.P,U3,JP7_8,D2*%
%TO.N,RF_DATA*%
X123763000Y-42051000D03*
%TO.P,U3,JP7_9,GND_2*%
%TO.N,GND*%
X126303000Y-42051000D03*
%TO.P,U3,JP7_10,RST_2*%
%TO.N,unconnected-(U3-RST_2-PadJP7_10)*%
X128843000Y-42051000D03*
%TO.P,U3,JP7_11,RXI_2*%
%TO.N,unconnected-(U3-RXI_2-PadJP7_11)*%
X131383000Y-42051000D03*
%TO.P,U3,JP7_12,TXO_2*%
%TO.N,unconnected-(U3-TXO_2-PadJP7_12)*%
X133923000Y-42051000D03*
%TD*%
%TO.P,U2,JP7_12,TXO_2*%
%TO.N,unconnected-(U2-TXO_2-PadJP7_12)*%
X72710000Y-57240000D03*
%TO.P,U2,JP7_11,RXI_2*%
%TO.N,unconnected-(U2-RXI_2-PadJP7_11)*%
X75250000Y-57240000D03*
%TO.P,U2,JP7_10,RST_2*%
%TO.N,unconnected-(U2-RST_2-PadJP7_10)*%
X77790000Y-57240000D03*
%TO.P,U2,JP7_9,GND_2*%
%TO.N,GND*%
X80330000Y-57240000D03*
%TO.P,U2,JP7_8,D2*%
%TO.N,unconnected-(U2-D2-PadJP7_8)*%
X82870000Y-57240000D03*
%TO.P,U2,JP7_7,D3*%
%TO.N,unconnected-(U2-D3-PadJP7_7)*%
X85410000Y-57240000D03*
%TO.P,U2,JP7_6,D4*%
%TO.N,unconnected-(U2-D4-PadJP7_6)*%
X87950000Y-57240000D03*
%TO.P,U2,JP7_5,D5*%
%TO.N,unconnected-(U2-D5-PadJP7_5)*%
X90490000Y-57240000D03*
%TO.P,U2,JP7_4,D6*%
%TO.N,Net-(U2-D6)*%
X93030000Y-57240000D03*
%TO.P,U2,JP7_3,D7*%
%TO.N,unconnected-(U2-D7-PadJP7_3)*%
X95570000Y-57240000D03*
%TO.P,U2,JP7_2,D8*%
%TO.N,Gain1*%
X98110000Y-57240000D03*
%TO.P,U2,JP7_1,D9*%
%TO.N,Gain2*%
X100650000Y-57240000D03*
%TO.P,U2,JP6_12,D10*%
%TO.N,unconnected-(U2-D10-PadJP6_12)*%
X100650000Y-42000000D03*
%TO.P,U2,JP6_11,MOSI*%
%TO.N,unconnected-(U2-MOSI-PadJP6_11)*%
X98110000Y-42000000D03*
%TO.P,U2,JP6_10,MISO*%
%TO.N,unconnected-(U2-MISO-PadJP6_10)*%
X95570000Y-42000000D03*
%TO.P,U2,JP6_9,SCK*%
%TO.N,unconnected-(U2-SCK-PadJP6_9)*%
X93030000Y-42000000D03*
%TO.P,U2,JP6_8,A0*%
%TO.N,Net-(U2-A0)*%
X90490000Y-42000000D03*
%TO.P,U2,JP6_7,A1*%
%TO.N,unconnected-(U2-A1-PadJP6_7)*%
X87950000Y-42000000D03*
%TO.P,U2,JP6_6,A2*%
%TO.N,unconnected-(U2-A2-PadJP6_6)*%
X85410000Y-42000000D03*
%TO.P,U2,JP6_5,A3*%
%TO.N,unconnected-(U2-A3-PadJP6_5)*%
X82870000Y-42000000D03*
%TO.P,U2,JP6_4,VCC_1*%
%TO.N,unconnected-(U2-VCC_1-PadJP6_4)*%
X80330000Y-42000000D03*
%TO.P,U2,JP6_3,RST_1*%
%TO.N,unconnected-(U2-RST_1-PadJP6_3)*%
X77790000Y-42000000D03*
%TO.P,U2,JP6_2,GND_1*%
%TO.N,GND*%
X75250000Y-42000000D03*
%TO.P,U2,JP6_1,RAW*%
%TO.N,unconnected-(U2-RAW-PadJP6_1)*%
X72710000Y-42000000D03*
%TO.P,U2,JP3_1,A6*%
%TO.N,unconnected-(U2-A6-PadJP3_1)*%
X94427000Y-44921000D03*
%TO.P,U2,JP3_2,A7*%
%TO.N,unconnected-(U2-A7-PadJP3_2)*%
X91887000Y-44921000D03*
%TO.P,U2,JP2_2,A5*%
%TO.N,unconnected-(U2-A5-PadJP2_2)*%
X81473000Y-44921000D03*
%TO.P,U2,JP2_1,A4*%
%TO.N,unconnected-(U2-A4-PadJP2_1)*%
X84013000Y-44921000D03*
%TO.P,U2,JP1_6,GND*%
%TO.N,GND*%
X70170000Y-55970000D03*
%TO.P,U2,JP1_5,GND*%
X70170000Y-53430000D03*
%TO.P,U2,JP1_4,VCC*%
%TO.N,+3.3V*%
X70170000Y-50890000D03*
%TO.P,U2,JP1_3,RXI*%
%TO.N,RXI*%
X70170000Y-48350000D03*
%TO.P,U2,JP1_2,TXO*%
%TO.N,unconnected-(U2-TXO-PadJP1_2)*%
X70170000Y-45810000D03*
%TO.P,U2,JP1_1,DTR*%
%TO.N,unconnected-(U2-DTR-PadJP1_1)*%
X70170000Y-43270000D03*
%TD*%
D10*
%TO.P,U1,1*%
%TO.N,Net-(C4-Pad1)*%
X98480000Y-68250000D03*
D13*
%TO.P,U1,2,-*%
%TO.N,Net-(U1A--)*%
X101020000Y-68250000D03*
%TO.P,U1,3,+*%
%TO.N,Net-(J3-Pin_2)*%
X103560000Y-68250000D03*
%TO.P,U1,4,V-*%
%TO.N,GND*%
X106100000Y-68250000D03*
%TO.P,U1,5,+*%
%TO.N,Net-(U1B-+)*%
X106100000Y-60630000D03*
%TO.P,U1,6,-*%
%TO.N,Net-(U1B--)*%
X103560000Y-60630000D03*
%TO.P,U1,7*%
%TO.N,Net-(R10-Pad2)*%
X101020000Y-60630000D03*
%TO.P,U1,8,V+*%
%TO.N,+3.3V*%
X98480000Y-60630000D03*
%TD*%
D14*
%TO.P,R15,1*%
%TO.N,Net-(U3-TXO)*%
X103523000Y-51971000D03*
%TO.P,R15,2*%
%TO.N,RXI*%
X103523000Y-48871000D03*
%TD*%
D15*
%TO.P,R14,1*%
%TO.N,Net-(U3-VCC)*%
X113000000Y-48750000D03*
%TO.P,R14,2*%
%TO.N,VCCP*%
X109900000Y-48750000D03*
%TD*%
D14*
%TO.P,R13,1*%
%TO.N,GND*%
X123000000Y-66850000D03*
%TO.P,R13,2*%
%TO.N,Gain1*%
X123000000Y-63750000D03*
%TD*%
D15*
%TO.P,R11,1*%
%TO.N,GND*%
X106850000Y-63000000D03*
%TO.P,R11,2*%
%TO.N,Net-(U1B--)*%
X103750000Y-63000000D03*
%TD*%
%TO.P,R10,1*%
%TO.N,Net-(U1B--)*%
X101900000Y-63000000D03*
%TO.P,R10,2*%
%TO.N,Net-(R10-Pad2)*%
X98800000Y-63000000D03*
%TD*%
%TO.P,R9,1*%
%TO.N,Net-(U1A--)*%
X101450000Y-65500000D03*
%TO.P,R9,2*%
%TO.N,Net-(C4-Pad1)*%
X98350000Y-65500000D03*
%TD*%
%TO.P,R8,1*%
%TO.N,GND*%
X117100000Y-62500000D03*
%TO.P,R8,2*%
%TO.N,Net-(U1B-+)*%
X114000000Y-62500000D03*
%TD*%
%TO.P,R7,1*%
%TO.N,Gain2*%
X112100000Y-60250000D03*
%TO.P,R7,2*%
%TO.N,Net-(U1B-+)*%
X109000000Y-60250000D03*
%TD*%
D14*
%TO.P,R6,1*%
%TO.N,Net-(R10-Pad2)*%
X87723000Y-50521000D03*
%TO.P,R6,2*%
%TO.N,Net-(U2-A0)*%
X87723000Y-47421000D03*
%TD*%
D15*
%TO.P,R5,1*%
%TO.N,Net-(U1B-+)*%
X112350000Y-65000000D03*
%TO.P,R5,2*%
%TO.N,Net-(C4-Pad2)*%
X109250000Y-65000000D03*
%TD*%
%TO.P,R4,1*%
%TO.N,Net-(U2-D6)*%
X77273000Y-53171000D03*
%TO.P,R4,2*%
%TO.N,Net-(J2-Pin_2)*%
X74173000Y-53171000D03*
%TD*%
D16*
%TO.P,R3,2*%
%TO.N,Net-(C3-Pad1)*%
X135050000Y-66000000D03*
%TO.P,R3,1*%
%TO.N,Net-(J3-Pin_2)*%
X131950000Y-66000000D03*
%TD*%
D14*
%TO.P,R2,1*%
%TO.N,Net-(C3-Pad1)*%
X130750000Y-63600000D03*
%TO.P,R2,2*%
%TO.N,+3.3V*%
X130750000Y-60500000D03*
%TD*%
D15*
%TO.P,R1,1*%
%TO.N,+3.3V*%
X85800000Y-61500000D03*
%TO.P,R1,2*%
%TO.N,VCCP*%
X82700000Y-61500000D03*
%TD*%
D17*
%TO.P,J5,1,Pin_1*%
%TO.N,antenna*%
X90270000Y-37000000D03*
D18*
%TO.P,J5,2,Pin_2*%
%TO.N,GND*%
X92810000Y-37000000D03*
%TO.P,J5,3,Pin_3*%
X95350000Y-37000000D03*
%TO.P,J5,4,Pin_4*%
%TO.N,unconnected-(J5-Pin_4-Pad4)*%
X97890000Y-37000000D03*
%TO.P,J5,5,Pin_5*%
%TO.N,unconnected-(J5-Pin_5-Pad5)*%
X100430000Y-37000000D03*
%TO.P,J5,6,Pin_6*%
%TO.N,unconnected-(J5-Pin_6-Pad6)*%
X102970000Y-37000000D03*
%TO.P,J5,7,Pin_7*%
%TO.N,unconnected-(J5-Pin_7-Pad7)*%
X105510000Y-37000000D03*
%TO.P,J5,8,Pin_8*%
%TO.N,unconnected-(J5-Pin_8-Pad8)*%
X108050000Y-37000000D03*
%TO.P,J5,9,Pin_9*%
%TO.N,unconnected-(J5-Pin_9-Pad9)*%
X110590000Y-37000000D03*
%TO.P,J5,10,Pin_10*%
%TO.N,unconnected-(J5-Pin_10-Pad10)*%
X113130000Y-37000000D03*
%TO.P,J5,11,Pin_11*%
%TO.N,unconnected-(J5-Pin_11-Pad11)*%
X115670000Y-37000000D03*
%TO.P,J5,12,Pin_12*%
%TO.N,unconnected-(J5-Pin_12-Pad12)*%
X118210000Y-37000000D03*
%TO.P,J5,13,Pin_13*%
%TO.N,unconnected-(J5-Pin_13-Pad13)*%
X120750000Y-37000000D03*
%TO.P,J5,14,Pin_14*%
%TO.N,RF_VCC*%
X123290000Y-37000000D03*
%TO.P,J5,15,Pin_15*%
%TO.N,unconnected-(J5-Pin_15-Pad15)*%
X125830000Y-37000000D03*
%TO.P,J5,16,Pin_16*%
%TO.N,RF_DATA*%
X128370000Y-37000000D03*
%TO.P,J5,17,Pin_17*%
%TO.N,GND*%
X130910000Y-37000000D03*
%TD*%
D19*
%TO.P,J4,1,Pin_1*%
%TO.N,antenna*%
X69250000Y-35750000D03*
%TD*%
D17*
%TO.P,J3,1,Pin_1*%
%TO.N,GND*%
X127600000Y-66275000D03*
D18*
%TO.P,J3,2,Pin_2*%
%TO.N,Net-(J3-Pin_2)*%
X127600000Y-63735000D03*
%TD*%
D17*
%TO.P,J2,1,Pin_1*%
%TO.N,VCCP*%
X70223000Y-66196000D03*
D18*
%TO.P,J2,2,Pin_2*%
%TO.N,Net-(J2-Pin_2)*%
X70223000Y-63656000D03*
%TO.P,J2,3,Pin_3*%
%TO.N,GND*%
X70223000Y-61116000D03*
%TD*%
D17*
%TO.P,J1,1,Pin_1*%
%TO.N,VCCP*%
X74710000Y-68250000D03*
D18*
%TO.P,J1,2,Pin_2*%
%TO.N,GND*%
X77250000Y-68250000D03*
%TD*%
D20*
%TO.P,C7,1*%
%TO.N,Net-(U3-VCC)*%
X129000000Y-48646000D03*
%TO.P,C7,2*%
%TO.N,GND*%
X129000000Y-45696000D03*
%TD*%
D21*
%TO.P,C5,1*%
%TO.N,Net-(U2-A0)*%
X91223000Y-47221000D03*
%TO.P,C5,2*%
%TO.N,GND*%
X91223000Y-50171000D03*
%TD*%
D20*
%TO.P,C4,2*%
%TO.N,Net-(C4-Pad2)*%
X95100000Y-65000000D03*
%TO.P,C4,1*%
%TO.N,Net-(C4-Pad1)*%
X95100000Y-67950000D03*
%TD*%
D10*
%TO.P,C3,1*%
%TO.N,Net-(C3-Pad1)*%
X134000000Y-62750000D03*
D11*
%TO.P,C3,2*%
%TO.N,GND*%
X136500000Y-62750000D03*
%TD*%
D10*
%TO.P,C1,1*%
%TO.N,+3.3V*%
X92000000Y-61544888D03*
D11*
%TO.P,C1,2*%
%TO.N,GND*%
X92000000Y-64044888D03*
%TD*%
D22*
%TO.N,+3.3V*%
X128750000Y-60500000D03*
%TO.N,Net-(J3-Pin_2)*%
X130500000Y-65750000D03*
%TO.N,Gain1*%
X121250000Y-63750000D03*
%TO.N,+3.3V*%
X77750000Y-60000000D03*
X75500000Y-60000000D03*
X87500000Y-61500000D03*
%TO.N,VCCP*%
X80750000Y-62500000D03*
X108500000Y-50000000D03*
%TO.N,Net-(U3-VCC)*%
X127250000Y-48750000D03*
X114500000Y-47750000D03*
X130750000Y-48500000D03*
%TO.N,Net-(U3-TXO)*%
X105250000Y-52000000D03*
%TO.N,RXI*%
X101750000Y-48500000D03*
%TO.N,Net-(R10-Pad2)*%
X89000000Y-51500000D03*
%TO.N,Net-(U2-A0)*%
X88000000Y-46000000D03*
%TO.N,Net-(U2-D6)*%
X79000000Y-53250000D03*
%TO.N,Net-(J2-Pin_2)*%
X72500000Y-54750000D03*
%TD*%
D23*
%TO.N,Net-(U1B-+)*%
X106100000Y-60630000D02*
X108620000Y-60630000D01*
X108620000Y-60630000D02*
X109000000Y-60250000D01*
D24*
X111250000Y-62500000D02*
X109000000Y-60250000D01*
%TO.N,+3.3V*%
X130750000Y-60500000D02*
X128750000Y-60500000D01*
%TO.N,Net-(C3-Pad1)*%
X131600000Y-62750000D02*
X130750000Y-63600000D01*
X134000000Y-62750000D02*
X131600000Y-62750000D01*
X134000000Y-64950000D02*
X134000000Y-62750000D01*
X135050000Y-66000000D02*
X134000000Y-64950000D01*
%TO.N,Net-(J3-Pin_2)*%
X130750000Y-66000000D02*
X130500000Y-65750000D01*
X131950000Y-66000000D02*
X130750000Y-66000000D01*
%TO.N,Gain1*%
X121250000Y-63750000D02*
X123000000Y-63750000D01*
%TO.N,Gain2*%
X110405800Y-58555800D02*
X101965800Y-58555800D01*
X112100000Y-60250000D02*
X110405800Y-58555800D01*
X101965800Y-58555800D02*
X100650000Y-57240000D01*
%TO.N,Net-(C4-Pad2)*%
X95800000Y-64300000D02*
X95100000Y-65000000D01*
X109250000Y-65000000D02*
X108550000Y-64300000D01*
X108550000Y-64300000D02*
X95800000Y-64300000D01*
%TO.N,Net-(U1B-+)*%
X114000000Y-62500000D02*
X111250000Y-62500000D01*
X112350000Y-64150000D02*
X114000000Y-62500000D01*
X112350000Y-65000000D02*
X112350000Y-64150000D01*
%TO.N,+3.3V*%
X75500000Y-60000000D02*
X77750000Y-60000000D01*
X85800000Y-61500000D02*
X87500000Y-61500000D01*
%TO.N,VCCP*%
X81750000Y-61500000D02*
X80750000Y-62500000D01*
X82700000Y-61500000D02*
X81750000Y-61500000D01*
X109750000Y-48750000D02*
X108500000Y-50000000D01*
X109900000Y-48750000D02*
X109750000Y-48750000D01*
%TO.N,Net-(U3-VCC)*%
X114000000Y-47750000D02*
X113000000Y-48750000D01*
X127354000Y-48646000D02*
X127250000Y-48750000D01*
X129000000Y-48646000D02*
X127354000Y-48646000D01*
X114500000Y-47750000D02*
X114000000Y-47750000D01*
X130604000Y-48646000D02*
X130750000Y-48500000D01*
X129000000Y-48646000D02*
X130604000Y-48646000D01*
%TO.N,Net-(U3-TXO)*%
X105221000Y-51971000D02*
X105250000Y-52000000D01*
X103523000Y-51971000D02*
X105221000Y-51971000D01*
%TO.N,RXI*%
X101750000Y-48500000D02*
X103152000Y-48500000D01*
X103152000Y-48500000D02*
X103523000Y-48871000D01*
%TO.N,Net-(R10-Pad2)*%
X88021000Y-50521000D02*
X89000000Y-51500000D01*
X87723000Y-50521000D02*
X88021000Y-50521000D01*
%TO.N,Net-(U2-A0)*%
X88000000Y-46500000D02*
X87723000Y-46777000D01*
X88000000Y-46000000D02*
X88000000Y-46500000D01*
X87723000Y-46777000D02*
X87723000Y-47421000D01*
X91023000Y-47421000D02*
X91223000Y-47221000D01*
X87723000Y-47421000D02*
X91023000Y-47421000D01*
%TO.N,Net-(U2-D6)*%
X79000000Y-53250000D02*
X77352000Y-53250000D01*
X77352000Y-53250000D02*
X77273000Y-53171000D01*
%TO.N,Net-(J2-Pin_2)*%
X72750000Y-54500000D02*
X72500000Y-54750000D01*
X72844000Y-54500000D02*
X72750000Y-54500000D01*
X72844000Y-54500000D02*
X74173000Y-53171000D01*
D23*
%TO.N,Net-(U1B--)*%
X103750000Y-60820000D02*
X103560000Y-60630000D01*
X103750000Y-63000000D02*
X103750000Y-60820000D01*
X101900000Y-63000000D02*
X103750000Y-63000000D01*
%TO.N,Net-(R10-Pad2)*%
X98800000Y-63000000D02*
X98800000Y-62850000D01*
X98800000Y-62850000D02*
X101020000Y-60630000D01*
%TO.N,Net-(U1A--)*%
X101450000Y-67820000D02*
X101020000Y-68250000D01*
X101450000Y-65500000D02*
X101450000Y-67820000D01*
%TO.N,Net-(C4-Pad1)*%
X98350000Y-68120000D02*
X98480000Y-68250000D01*
X98350000Y-65500000D02*
X98350000Y-68120000D01*
X95400000Y-68250000D02*
X95100000Y-67950000D01*
X98480000Y-68250000D02*
X95400000Y-68250000D01*
%TD*%
%TA.AperFunction,Conductor*%
%TO.N,GND*%
G36*
X138165539Y-34769685D02*
G01*
X138211294Y-34822489D01*
X138222500Y-34874000D01*
X138222500Y-69876000D01*
X138202815Y-69943039D01*
X138150011Y-69988794D01*
X138098500Y-70000000D01*
X68374000Y-70000000D01*
X68306961Y-69980315D01*
X68261206Y-69927511D01*
X68250000Y-69876000D01*
X68250000Y-69144578D01*
X73359500Y-69144578D01*
X73359501Y-69147872D01*
X73365909Y-69207483D01*
X73416204Y-69342331D01*
X73502454Y-69457546D01*
X73617669Y-69543796D01*
X73752517Y-69594091D01*
X73812127Y-69600500D01*
X75607872Y-69600499D01*
X75667483Y-69594091D01*
X75802331Y-69543796D01*
X75917546Y-69457546D01*
X76003796Y-69342331D01*
X76053003Y-69210399D01*
X76094873Y-69154467D01*
X76160337Y-69130050D01*
X76228610Y-69144901D01*
X76256865Y-69166053D01*
X76378918Y-69288106D01*
X76572423Y-69423600D01*
X76786509Y-69523430D01*
X77000000Y-69580634D01*
X77000000Y-68685501D01*
X77107685Y-68734680D01*
X77214237Y-68750000D01*
X77285763Y-68750000D01*
X77392315Y-68734680D01*
X77500000Y-68685501D01*
X77500000Y-69580633D01*
X77713490Y-69523430D01*
X77927576Y-69423600D01*
X78121081Y-69288106D01*
X78288106Y-69121081D01*
X78423600Y-68927576D01*
X78523430Y-68713492D01*
X78580636Y-68500000D01*
X77683686Y-68500000D01*
X77709493Y-68459844D01*
X77750000Y-68321889D01*
X77750000Y-68178111D01*
X77709493Y-68040156D01*
X77683686Y-68000000D01*
X78580636Y-68000000D01*
X78580635Y-67999999D01*
X78523430Y-67786507D01*
X78423599Y-67572421D01*
X78288109Y-67378921D01*
X78121081Y-67211893D01*
X77927576Y-67076399D01*
X77713492Y-66976569D01*
X77500000Y-66919364D01*
X77500000Y-67814498D01*
X77392315Y-67765320D01*
X77285763Y-67750000D01*
X77214237Y-67750000D01*
X77107685Y-67765320D01*
X77000000Y-67814498D01*
X77000000Y-66919364D01*
X76999999Y-66919364D01*
X76786507Y-66976569D01*
X76572421Y-67076400D01*
X76378924Y-67211888D01*
X76256865Y-67333947D01*
X76195542Y-67367431D01*
X76125850Y-67362447D01*
X76069917Y-67320575D01*
X76053002Y-67289598D01*
X76003796Y-67157669D01*
X75917546Y-67042454D01*
X75802331Y-66956204D01*
X75667483Y-66905909D01*
X75607873Y-66899500D01*
X75604550Y-66899500D01*
X73815439Y-66899500D01*
X73815420Y-66899500D01*
X73812128Y-66899501D01*
X73808848Y-66899853D01*
X73808840Y-66899854D01*
X73752515Y-66905909D01*
X73617669Y-66956204D01*
X73502454Y-67042454D01*
X73416204Y-67157668D01*
X73365909Y-67292516D01*
X73361455Y-67333947D01*
X73359500Y-67352127D01*
X73359500Y-67355448D01*
X73359500Y-67355449D01*
X73359500Y-69144560D01*
X73359500Y-69144578D01*
X68250000Y-69144578D01*
X68250000Y-63656000D01*
X68867340Y-63656000D01*
X68887936Y-63891407D01*
X68928848Y-64044091D01*
X68949097Y-64119663D01*
X69048965Y-64333830D01*
X69184505Y-64527401D01*
X69184508Y-64527403D01*
X69184508Y-64527404D01*
X69306430Y-64649326D01*
X69339915Y-64710649D01*
X69334931Y-64780341D01*
X69293059Y-64836274D01*
X69262083Y-64853189D01*
X69130669Y-64902204D01*
X69015454Y-64988454D01*
X68929204Y-65103668D01*
X68878909Y-65238516D01*
X68872966Y-65293796D01*
X68872500Y-65298127D01*
X68872500Y-65301448D01*
X68872500Y-65301449D01*
X68872500Y-67090560D01*
X68872500Y-67090578D01*
X68872501Y-67093872D01*
X68872853Y-67097152D01*
X68872854Y-67097159D01*
X68878909Y-67153484D01*
X68899119Y-67207668D01*
X68929204Y-67288331D01*
X69015454Y-67403546D01*
X69130669Y-67489796D01*
X69265517Y-67540091D01*
X69325127Y-67546500D01*
X71120872Y-67546499D01*
X71180483Y-67540091D01*
X71315331Y-67489796D01*
X71430546Y-67403546D01*
X71516796Y-67288331D01*
X71567091Y-67153483D01*
X71573500Y-67093873D01*
X71573499Y-65594578D01*
X81199500Y-65594578D01*
X81199501Y-65597872D01*
X81199853Y-65601152D01*
X81199854Y-65601159D01*
X81205909Y-65657484D01*
X81225680Y-65710493D01*
X81256204Y-65792331D01*
X81342454Y-65907546D01*
X81457669Y-65993796D01*
X81592517Y-66044091D01*
X81652127Y-66050500D01*
X83347872Y-66050499D01*
X83407483Y-66044091D01*
X83542331Y-65993796D01*
X83657546Y-65907546D01*
X83743796Y-65792331D01*
X83794091Y-65657483D01*
X83800500Y-65597873D01*
X83800499Y-65594525D01*
X83800549Y-65593612D01*
X83823791Y-65527721D01*
X83878966Y-65484855D01*
X83917115Y-65479330D01*
X84602046Y-64794399D01*
X84614835Y-64875148D01*
X84672359Y-64988045D01*
X84761955Y-65077641D01*
X84874852Y-65135165D01*
X84955599Y-65147953D01*
X84274526Y-65829025D01*
X84274526Y-65829026D01*
X84347515Y-65880133D01*
X84553673Y-65976266D01*
X84773397Y-66035141D01*
X85000000Y-66054966D01*
X85226602Y-66035141D01*
X85446326Y-65976266D01*
X85652480Y-65880134D01*
X85725472Y-65829025D01*
X85044401Y-65147953D01*
X85125148Y-65135165D01*
X85238045Y-65077641D01*
X85327641Y-64988045D01*
X85385165Y-64875148D01*
X85397953Y-64794399D01*
X86079025Y-65475472D01*
X86130134Y-65402480D01*
X86226266Y-65196326D01*
X86285141Y-64976602D01*
X86304966Y-64750000D01*
X86285141Y-64523397D01*
X86226266Y-64303673D01*
X86130133Y-64097515D01*
X86093283Y-64044888D01*
X90695033Y-64044888D01*
X90714858Y-64271490D01*
X90773733Y-64491214D01*
X90869866Y-64697372D01*
X90920972Y-64770359D01*
X90920974Y-64770360D01*
X91602046Y-64089287D01*
X91614835Y-64170036D01*
X91672359Y-64282933D01*
X91761955Y-64372529D01*
X91874852Y-64430053D01*
X91955599Y-64442841D01*
X91274526Y-65123913D01*
X91274526Y-65123914D01*
X91347515Y-65175021D01*
X91553673Y-65271154D01*
X91773397Y-65330029D01*
X92000000Y-65349854D01*
X92226602Y-65330029D01*
X92446326Y-65271154D01*
X92652480Y-65175022D01*
X92725472Y-65123913D01*
X92044401Y-64442841D01*
X92125148Y-64430053D01*
X92238045Y-64372529D01*
X92327641Y-64282933D01*
X92385165Y-64170036D01*
X92397953Y-64089287D01*
X93079025Y-64770360D01*
X93130134Y-64697368D01*
X93226266Y-64491214D01*
X93285141Y-64271490D01*
X93304966Y-64044888D01*
X93285141Y-63818285D01*
X93226266Y-63598561D01*
X93130133Y-63392403D01*
X93079025Y-63319414D01*
X92397953Y-64000485D01*
X92385165Y-63919740D01*
X92327641Y-63806843D01*
X92238045Y-63717247D01*
X92125148Y-63659723D01*
X92044400Y-63646934D01*
X92730600Y-62960733D01*
X92740481Y-62911567D01*
X92789096Y-62861384D01*
X92843621Y-62845436D01*
X92844536Y-62845387D01*
X92847872Y-62845387D01*
X92907483Y-62838979D01*
X93042331Y-62788684D01*
X93157546Y-62702434D01*
X93243796Y-62587219D01*
X93294091Y-62452371D01*
X93300500Y-62392761D01*
X93300499Y-60697016D01*
X93294091Y-60637405D01*
X93243796Y-60502557D01*
X93157546Y-60387342D01*
X93042331Y-60301092D01*
X92907483Y-60250797D01*
X92907482Y-60250796D01*
X92851166Y-60244742D01*
X92851165Y-60244741D01*
X92847873Y-60244388D01*
X92844550Y-60244388D01*
X91155439Y-60244388D01*
X91155420Y-60244388D01*
X91152128Y-60244389D01*
X91148848Y-60244741D01*
X91148840Y-60244742D01*
X91092515Y-60250797D01*
X90957669Y-60301092D01*
X90842454Y-60387342D01*
X90756204Y-60502556D01*
X90705909Y-60637404D01*
X90700142Y-60691048D01*
X90699500Y-60697015D01*
X90699500Y-60700336D01*
X90699500Y-60700337D01*
X90699500Y-62389448D01*
X90699500Y-62389466D01*
X90699501Y-62392760D01*
X90699853Y-62396040D01*
X90699854Y-62396047D01*
X90705909Y-62452372D01*
X90716947Y-62481965D01*
X90756204Y-62587219D01*
X90842454Y-62702434D01*
X90957669Y-62788684D01*
X91092517Y-62838979D01*
X91152127Y-62845388D01*
X91155455Y-62845387D01*
X91156388Y-62845438D01*
X91222278Y-62868680D01*
X91265143Y-62923855D01*
X91270667Y-62962002D01*
X91955600Y-63646934D01*
X91874852Y-63659723D01*
X91761955Y-63717247D01*
X91672359Y-63806843D01*
X91614835Y-63919740D01*
X91602046Y-64000487D01*
X90920973Y-63319414D01*
X90920973Y-63319415D01*
X90869865Y-63392404D01*
X90773733Y-63598560D01*
X90714858Y-63818285D01*
X90695033Y-64044888D01*
X86093283Y-64044888D01*
X86079025Y-64024526D01*
X85397953Y-64705597D01*
X85385165Y-64624852D01*
X85327641Y-64511955D01*
X85238045Y-64422359D01*
X85125148Y-64364835D01*
X85044400Y-64352046D01*
X85725472Y-63670974D01*
X85725471Y-63670972D01*
X85652484Y-63619866D01*
X85446326Y-63523733D01*
X85226602Y-63464858D01*
X85000000Y-63445033D01*
X84773397Y-63464858D01*
X84553672Y-63523733D01*
X84347516Y-63619865D01*
X84274527Y-63670973D01*
X84274526Y-63670973D01*
X84955600Y-64352046D01*
X84874852Y-64364835D01*
X84761955Y-64422359D01*
X84672359Y-64511955D01*
X84614835Y-64624852D01*
X84602046Y-64705599D01*
X83915844Y-64019397D01*
X83866676Y-64009515D01*
X83816494Y-63960899D01*
X83800548Y-63906379D01*
X83800499Y-63905462D01*
X83800499Y-63902128D01*
X83794091Y-63842517D01*
X83743796Y-63707669D01*
X83657546Y-63592454D01*
X83542331Y-63506204D01*
X83407483Y-63455909D01*
X83347873Y-63449500D01*
X83344550Y-63449500D01*
X81655439Y-63449500D01*
X81655420Y-63449500D01*
X81652128Y-63449501D01*
X81648848Y-63449853D01*
X81648840Y-63449854D01*
X81592515Y-63455909D01*
X81457669Y-63506204D01*
X81342454Y-63592454D01*
X81256204Y-63707668D01*
X81205909Y-63842516D01*
X81200653Y-63891407D01*
X81199500Y-63902127D01*
X81199500Y-63905448D01*
X81199500Y-63905449D01*
X81199500Y-65594560D01*
X81199500Y-65594578D01*
X71573499Y-65594578D01*
X71573499Y-65298128D01*
X71567091Y-65238517D01*
X71516796Y-65103669D01*
X71430546Y-64988454D01*
X71315331Y-64902204D01*
X71242790Y-64875148D01*
X71183916Y-64853189D01*
X71127983Y-64811317D01*
X71103566Y-64745853D01*
X71118418Y-64677580D01*
X71139563Y-64649332D01*
X71261495Y-64527401D01*
X71397035Y-64333830D01*
X71496903Y-64119663D01*
X71558063Y-63891408D01*
X71578659Y-63656000D01*
X71575889Y-63624335D01*
X73749500Y-63624335D01*
X73765081Y-63717711D01*
X73790429Y-63869615D01*
X73871170Y-64104805D01*
X73871172Y-64104810D01*
X73987267Y-64319334D01*
X73989529Y-64323514D01*
X74120056Y-64491214D01*
X74142262Y-64519744D01*
X74325215Y-64688164D01*
X74533393Y-64824173D01*
X74533395Y-64824174D01*
X74546757Y-64830035D01*
X74761119Y-64924063D01*
X75002179Y-64985108D01*
X75187933Y-65000500D01*
X75190503Y-65000500D01*
X75309497Y-65000500D01*
X75312067Y-65000500D01*
X75497821Y-64985108D01*
X75738881Y-64924063D01*
X75966607Y-64824173D01*
X76174785Y-64688164D01*
X76357738Y-64519744D01*
X76510474Y-64323509D01*
X76628828Y-64104810D01*
X76709571Y-63869614D01*
X76750500Y-63624335D01*
X76750500Y-63375665D01*
X76709571Y-63130386D01*
X76628828Y-62895190D01*
X76510474Y-62676491D01*
X76510471Y-62676487D01*
X76510470Y-62676485D01*
X76373105Y-62500000D01*
X79844540Y-62500000D01*
X79846136Y-62515186D01*
X79864326Y-62688257D01*
X79922820Y-62868284D01*
X80017466Y-63032216D01*
X80144129Y-63172889D01*
X80297269Y-63284151D01*
X80470197Y-63361144D01*
X80655352Y-63400500D01*
X80655354Y-63400500D01*
X80844648Y-63400500D01*
X80968083Y-63374262D01*
X81029803Y-63361144D01*
X81202730Y-63284151D01*
X81294078Y-63217783D01*
X81355870Y-63172889D01*
X81356825Y-63171829D01*
X81482533Y-63032216D01*
X81577179Y-62868284D01*
X81613906Y-62755249D01*
X81653343Y-62697575D01*
X81717702Y-62670376D01*
X81786548Y-62682290D01*
X81819518Y-62705887D01*
X81831342Y-62717711D01*
X81831344Y-62717712D01*
X81980666Y-62809814D01*
X82068677Y-62838978D01*
X82147202Y-62864999D01*
X82246858Y-62875180D01*
X82246859Y-62875180D01*
X82249991Y-62875500D01*
X83150008Y-62875499D01*
X83252797Y-62864999D01*
X83419334Y-62809814D01*
X83568656Y-62717712D01*
X83692712Y-62593656D01*
X83784814Y-62444334D01*
X83839999Y-62277797D01*
X83850500Y-62175009D01*
X83850500Y-62171878D01*
X84649500Y-62171878D01*
X84649501Y-62175008D01*
X84649820Y-62178140D01*
X84649821Y-62178141D01*
X84660000Y-62277796D01*
X84715186Y-62444334D01*
X84807288Y-62593657D01*
X84931342Y-62717711D01*
X84931344Y-62717712D01*
X85080666Y-62809814D01*
X85168677Y-62838978D01*
X85247202Y-62864999D01*
X85346858Y-62875180D01*
X85346859Y-62875180D01*
X85349991Y-62875500D01*
X86250008Y-62875499D01*
X86352797Y-62864999D01*
X86519334Y-62809814D01*
X86668656Y-62717712D01*
X86792712Y-62593656D01*
X86884814Y-62444334D01*
X86908890Y-62371675D01*
X86948661Y-62314233D01*
X87013176Y-62287409D01*
X87077031Y-62297402D01*
X87220197Y-62361144D01*
X87405352Y-62400500D01*
X87405354Y-62400500D01*
X87594648Y-62400500D01*
X87730244Y-62371678D01*
X87779803Y-62361144D01*
X87952730Y-62284151D01*
X88036643Y-62223185D01*
X88105870Y-62172889D01*
X88106798Y-62171859D01*
X88232533Y-62032216D01*
X88327179Y-61868284D01*
X88385674Y-61688256D01*
X88405460Y-61500000D01*
X88385674Y-61311744D01*
X88333761Y-61151973D01*
X88327179Y-61131715D01*
X88232533Y-60967783D01*
X88105870Y-60827110D01*
X87952730Y-60715848D01*
X87779802Y-60638855D01*
X87594648Y-60599500D01*
X87594646Y-60599500D01*
X87405354Y-60599500D01*
X87405352Y-60599500D01*
X87220199Y-60638854D01*
X87077030Y-60702598D01*
X87007780Y-60711882D01*
X86944504Y-60682254D01*
X86908890Y-60628322D01*
X86884814Y-60555666D01*
X86792712Y-60406344D01*
X86792711Y-60406342D01*
X86668657Y-60282288D01*
X86519334Y-60190186D01*
X86352797Y-60135000D01*
X86253141Y-60124819D01*
X86253122Y-60124818D01*
X86250009Y-60124500D01*
X86246860Y-60124500D01*
X85353141Y-60124500D01*
X85353121Y-60124500D01*
X85349992Y-60124501D01*
X85346860Y-60124820D01*
X85346858Y-60124821D01*
X85247203Y-60135000D01*
X85080665Y-60190186D01*
X84931342Y-60282288D01*
X84807288Y-60406342D01*
X84715186Y-60555665D01*
X84660000Y-60722202D01*
X84649819Y-60821858D01*
X84649817Y-60821878D01*
X84649500Y-60824991D01*
X84649500Y-60828138D01*
X84649500Y-60828139D01*
X84649500Y-62171859D01*
X84649500Y-62171878D01*
X83850500Y-62171878D01*
X83850499Y-60824992D01*
X83839999Y-60722203D01*
X83784814Y-60555666D01*
X83692712Y-60406344D01*
X83692711Y-60406342D01*
X83568657Y-60282288D01*
X83419334Y-60190186D01*
X83252797Y-60135000D01*
X83153141Y-60124819D01*
X83153122Y-60124818D01*
X83150009Y-60124500D01*
X83146860Y-60124500D01*
X82253141Y-60124500D01*
X82253121Y-60124500D01*
X82249992Y-60124501D01*
X82246860Y-60124820D01*
X82246858Y-60124821D01*
X82147203Y-60135000D01*
X81980665Y-60190186D01*
X81831342Y-60282288D01*
X81707288Y-60406342D01*
X81615186Y-60555665D01*
X81560000Y-60722202D01*
X81549820Y-60821852D01*
X81549820Y-60821858D01*
X81549500Y-60824991D01*
X81549500Y-60827464D01*
X81526463Y-60893299D01*
X81488814Y-60927766D01*
X81482362Y-60931581D01*
X81464904Y-60940133D01*
X81446267Y-60947512D01*
X81410931Y-60973185D01*
X81401174Y-60979595D01*
X81363580Y-61001829D01*
X81349413Y-61015996D01*
X81334624Y-61028626D01*
X81318413Y-61040404D01*
X81290572Y-61074058D01*
X81282711Y-61082697D01*
X80802228Y-61563181D01*
X80740905Y-61596666D01*
X80714547Y-61599500D01*
X80655352Y-61599500D01*
X80470197Y-61638855D01*
X80297269Y-61715848D01*
X80144129Y-61827110D01*
X80017466Y-61967783D01*
X79922820Y-62131715D01*
X79864326Y-62311742D01*
X79845878Y-62487269D01*
X79844540Y-62500000D01*
X76373105Y-62500000D01*
X76357738Y-62480256D01*
X76174785Y-62311836D01*
X75966607Y-62175827D01*
X75966604Y-62175825D01*
X75824046Y-62113294D01*
X75738881Y-62075937D01*
X75515611Y-62019397D01*
X75497822Y-62014892D01*
X75463854Y-62012077D01*
X75312067Y-61999500D01*
X75187933Y-61999500D01*
X75070111Y-62009262D01*
X75002177Y-62014892D01*
X74933768Y-62032216D01*
X74761119Y-62075937D01*
X74761116Y-62075938D01*
X74761117Y-62075938D01*
X74533395Y-62175825D01*
X74419862Y-62250000D01*
X74325215Y-62311836D01*
X74178751Y-62446666D01*
X74142259Y-62480259D01*
X73989529Y-62676485D01*
X73967219Y-62717711D01*
X73885519Y-62868680D01*
X73871170Y-62895194D01*
X73790429Y-63130384D01*
X73751923Y-63361144D01*
X73749500Y-63375665D01*
X73749500Y-63624335D01*
X71575889Y-63624335D01*
X71558063Y-63420592D01*
X71496903Y-63192337D01*
X71397035Y-62978171D01*
X71261495Y-62784599D01*
X71094401Y-62617505D01*
X70908402Y-62487267D01*
X70864780Y-62432692D01*
X70857587Y-62363193D01*
X70889109Y-62300839D01*
X70908405Y-62284119D01*
X71094078Y-62154109D01*
X71261106Y-61987081D01*
X71396600Y-61793576D01*
X71496430Y-61579492D01*
X71553636Y-61366000D01*
X70656686Y-61366000D01*
X70682493Y-61325844D01*
X70723000Y-61187889D01*
X70723000Y-61044111D01*
X70682493Y-60906156D01*
X70656686Y-60866000D01*
X71553636Y-60866000D01*
X71553635Y-60865999D01*
X71496430Y-60652507D01*
X71396599Y-60438421D01*
X71261109Y-60244921D01*
X71094081Y-60077893D01*
X70982839Y-60000000D01*
X74594540Y-60000000D01*
X74614326Y-60188257D01*
X74672820Y-60368284D01*
X74767466Y-60532216D01*
X74894129Y-60672889D01*
X75047269Y-60784151D01*
X75220197Y-60861144D01*
X75405352Y-60900500D01*
X75405354Y-60900500D01*
X75594648Y-60900500D01*
X75718083Y-60874262D01*
X75779803Y-60861144D01*
X75952730Y-60784151D01*
X76105871Y-60672888D01*
X76111598Y-60666527D01*
X76171084Y-60629879D01*
X76203747Y-60625500D01*
X77046253Y-60625500D01*
X77113292Y-60645185D01*
X77138400Y-60666526D01*
X77144129Y-60672888D01*
X77297270Y-60784151D01*
X77297271Y-60784151D01*
X77297272Y-60784152D01*
X77470197Y-60861144D01*
X77655352Y-60900500D01*
X77655354Y-60900500D01*
X77844648Y-60900500D01*
X77968084Y-60874262D01*
X78029803Y-60861144D01*
X78202730Y-60784151D01*
X78355870Y-60672889D01*
X78361598Y-60666528D01*
X78482533Y-60532216D01*
X78577179Y-60368284D01*
X78635674Y-60188256D01*
X78655460Y-60000000D01*
X78635674Y-59811744D01*
X78577179Y-59631716D01*
X78577179Y-59631715D01*
X78482533Y-59467783D01*
X78355870Y-59327110D01*
X78202730Y-59215848D01*
X78029802Y-59138855D01*
X77844648Y-59099500D01*
X77844646Y-59099500D01*
X77655354Y-59099500D01*
X77655352Y-59099500D01*
X77470197Y-59138855D01*
X77297272Y-59215847D01*
X77195175Y-59290024D01*
X77144129Y-59327112D01*
X77138401Y-59333472D01*
X77078916Y-59370121D01*
X77046253Y-59374500D01*
X76203747Y-59374500D01*
X76136708Y-59354815D01*
X76111599Y-59333473D01*
X76105871Y-59327112D01*
X75952730Y-59215849D01*
X75952729Y-59215848D01*
X75952727Y-59215847D01*
X75779802Y-59138855D01*
X75594648Y-59099500D01*
X75594646Y-59099500D01*
X75405354Y-59099500D01*
X75405352Y-59099500D01*
X75220197Y-59138855D01*
X75047269Y-59215848D01*
X74894129Y-59327110D01*
X74767466Y-59467783D01*
X74672820Y-59631715D01*
X74614326Y-59811742D01*
X74594540Y-60000000D01*
X70982839Y-60000000D01*
X70900576Y-59942399D01*
X70686492Y-59842569D01*
X70473000Y-59785364D01*
X70473000Y-60680498D01*
X70365315Y-60631320D01*
X70258763Y-60616000D01*
X70187237Y-60616000D01*
X70080685Y-60631320D01*
X69973000Y-60680498D01*
X69973000Y-59785364D01*
X69972999Y-59785364D01*
X69759507Y-59842569D01*
X69545421Y-59942400D01*
X69351921Y-60077890D01*
X69184890Y-60244921D01*
X69049400Y-60438421D01*
X68949569Y-60652507D01*
X68892364Y-60865999D01*
X68892364Y-60866000D01*
X69789314Y-60866000D01*
X69763507Y-60906156D01*
X69723000Y-61044111D01*
X69723000Y-61187889D01*
X69763507Y-61325844D01*
X69789314Y-61366000D01*
X68892364Y-61366000D01*
X68949569Y-61579492D01*
X69049399Y-61793576D01*
X69184893Y-61987081D01*
X69351918Y-62154106D01*
X69537595Y-62284119D01*
X69581219Y-62338696D01*
X69588412Y-62408195D01*
X69556890Y-62470549D01*
X69537595Y-62487269D01*
X69394852Y-62587219D01*
X69362318Y-62610000D01*
X69351595Y-62617508D01*
X69184505Y-62784598D01*
X69048965Y-62978170D01*
X68949097Y-63192336D01*
X68887936Y-63420592D01*
X68867340Y-63656000D01*
X68250000Y-63656000D01*
X68250000Y-41619985D01*
X68269685Y-41552946D01*
X68322489Y-41507191D01*
X68372666Y-41495992D01*
X71198920Y-41465602D01*
X71266164Y-41484565D01*
X71312484Y-41536874D01*
X71323171Y-41605921D01*
X71320456Y-41620035D01*
X71284474Y-41762126D01*
X71264763Y-41999994D01*
X71267721Y-42035685D01*
X71253639Y-42104121D01*
X71204793Y-42154080D01*
X71136692Y-42169700D01*
X71070957Y-42146022D01*
X71068012Y-42143801D01*
X70960469Y-42060097D01*
X70750545Y-41946491D01*
X70750543Y-41946490D01*
X70750539Y-41946488D01*
X70524788Y-41868988D01*
X70336434Y-41837557D01*
X70289347Y-41829700D01*
X70050653Y-41829700D01*
X70011413Y-41836248D01*
X69815211Y-41868988D01*
X69589460Y-41946488D01*
X69379529Y-42060098D01*
X69191167Y-42206705D01*
X69029507Y-42382316D01*
X68898952Y-42582146D01*
X68803071Y-42800731D01*
X68744474Y-43032126D01*
X68724763Y-43270000D01*
X68744474Y-43507873D01*
X68744474Y-43507876D01*
X68744475Y-43507878D01*
X68767168Y-43597491D01*
X68803071Y-43739268D01*
X68855023Y-43857705D01*
X68898953Y-43957856D01*
X69029506Y-44157682D01*
X69191168Y-44333295D01*
X69331021Y-44442146D01*
X69371834Y-44498857D01*
X69375509Y-44568630D01*
X69340878Y-44629313D01*
X69331025Y-44637850D01*
X69191168Y-44746705D01*
X69029507Y-44922316D01*
X68898952Y-45122146D01*
X68803071Y-45340731D01*
X68744474Y-45572126D01*
X68724763Y-45810000D01*
X68744474Y-46047873D01*
X68744474Y-46047876D01*
X68744475Y-46047878D01*
X68751118Y-46074109D01*
X68803071Y-46279268D01*
X68858808Y-46406335D01*
X68898953Y-46497856D01*
X69029506Y-46697682D01*
X69191168Y-46873295D01*
X69331021Y-46982146D01*
X69371834Y-47038857D01*
X69375509Y-47108630D01*
X69340878Y-47169313D01*
X69331025Y-47177850D01*
X69201548Y-47278626D01*
X69191168Y-47286705D01*
X69029507Y-47462316D01*
X69029506Y-47462318D01*
X68902743Y-47656344D01*
X68898952Y-47662146D01*
X68803071Y-47880731D01*
X68744474Y-48112126D01*
X68724763Y-48350000D01*
X68744474Y-48587873D01*
X68744474Y-48587876D01*
X68744475Y-48587878D01*
X68756829Y-48636662D01*
X68803071Y-48819268D01*
X68855264Y-48938256D01*
X68898953Y-49037856D01*
X69029506Y-49237682D01*
X69191168Y-49413295D01*
X69315671Y-49510199D01*
X69331021Y-49522146D01*
X69371834Y-49578857D01*
X69375509Y-49648630D01*
X69340878Y-49709313D01*
X69331025Y-49717850D01*
X69234616Y-49792888D01*
X69191168Y-49826705D01*
X69029507Y-50002316D01*
X68984640Y-50070991D01*
X68908027Y-50188256D01*
X68898952Y-50202146D01*
X68803071Y-50420731D01*
X68744474Y-50652126D01*
X68724763Y-50890000D01*
X68744474Y-51127873D01*
X68744474Y-51127876D01*
X68744475Y-51127878D01*
X68766752Y-51215848D01*
X68803071Y-51359268D01*
X68850671Y-51467784D01*
X68898953Y-51577856D01*
X69029506Y-51777682D01*
X69076455Y-51828683D01*
X69191168Y-51953295D01*
X69331427Y-52062463D01*
X69372239Y-52119173D01*
X69375914Y-52188946D01*
X69343006Y-52246606D01*
X69342840Y-52249287D01*
X70030400Y-52936847D01*
X70025408Y-52937565D01*
X69892530Y-52998248D01*
X69782131Y-53093910D01*
X69703155Y-53216799D01*
X69680478Y-53294030D01*
X68990057Y-52603609D01*
X68899391Y-52742384D01*
X68803546Y-52960891D01*
X68744968Y-53192209D01*
X68725264Y-53430000D01*
X68744968Y-53667790D01*
X68803546Y-53899108D01*
X68899393Y-54117620D01*
X68990056Y-54256389D01*
X68990057Y-54256389D01*
X69680477Y-53565969D01*
X69703155Y-53643201D01*
X69782131Y-53766090D01*
X69892530Y-53861752D01*
X70025408Y-53922435D01*
X70030399Y-53923152D01*
X69342839Y-54610711D01*
X69343296Y-54618072D01*
X69372648Y-54658857D01*
X69376321Y-54728630D01*
X69342979Y-54787052D01*
X69342840Y-54789287D01*
X70030400Y-55476847D01*
X70025408Y-55477565D01*
X69892530Y-55538248D01*
X69782131Y-55633910D01*
X69703155Y-55756799D01*
X69680477Y-55834030D01*
X68990057Y-55143609D01*
X68899391Y-55282384D01*
X68803546Y-55500891D01*
X68744968Y-55732209D01*
X68725264Y-55970000D01*
X68744968Y-56207790D01*
X68803546Y-56439108D01*
X68899393Y-56657620D01*
X68990056Y-56796389D01*
X68990057Y-56796389D01*
X69680477Y-56105968D01*
X69703155Y-56183201D01*
X69782131Y-56306090D01*
X69892530Y-56401752D01*
X70025408Y-56462435D01*
X70030399Y-56463152D01*
X69342839Y-57150711D01*
X69342840Y-57150712D01*
X69379804Y-57179483D01*
X69589658Y-57293050D01*
X69815336Y-57370525D01*
X70050696Y-57409800D01*
X70289304Y-57409800D01*
X70524663Y-57370525D01*
X70750339Y-57293051D01*
X70960196Y-57179482D01*
X71068037Y-57095546D01*
X71133031Y-57069903D01*
X71201571Y-57083469D01*
X71251896Y-57131937D01*
X71268028Y-57199919D01*
X71267777Y-57203638D01*
X71264764Y-57240000D01*
X71284474Y-57477873D01*
X71343071Y-57709268D01*
X71394186Y-57825798D01*
X71438953Y-57927856D01*
X71569506Y-58127682D01*
X71731168Y-58303295D01*
X71919531Y-58449903D01*
X72129455Y-58563509D01*
X72129458Y-58563510D01*
X72129460Y-58563511D01*
X72355211Y-58641011D01*
X72355215Y-58641011D01*
X72355216Y-58641012D01*
X72590653Y-58680300D01*
X72590654Y-58680300D01*
X72829346Y-58680300D01*
X72829347Y-58680300D01*
X73064784Y-58641012D01*
X73064785Y-58641011D01*
X73064788Y-58641011D01*
X73290539Y-58563511D01*
X73290538Y-58563511D01*
X73290545Y-58563509D01*
X73500469Y-58449903D01*
X73688832Y-58303295D01*
X73850494Y-58127682D01*
X73876192Y-58088348D01*
X73929337Y-58042992D01*
X73998568Y-58033568D01*
X74061904Y-58063069D01*
X74083807Y-58088346D01*
X74109506Y-58127682D01*
X74271168Y-58303295D01*
X74459531Y-58449903D01*
X74669455Y-58563509D01*
X74669458Y-58563510D01*
X74669460Y-58563511D01*
X74895211Y-58641011D01*
X74895215Y-58641011D01*
X74895216Y-58641012D01*
X75130653Y-58680300D01*
X75130654Y-58680300D01*
X75369346Y-58680300D01*
X75369347Y-58680300D01*
X75604784Y-58641012D01*
X75604785Y-58641011D01*
X75604788Y-58641011D01*
X75830539Y-58563511D01*
X75830538Y-58563511D01*
X75830545Y-58563509D01*
X76040469Y-58449903D01*
X76228832Y-58303295D01*
X76390494Y-58127682D01*
X76416192Y-58088348D01*
X76469337Y-58042992D01*
X76538568Y-58033568D01*
X76601904Y-58063069D01*
X76623807Y-58088346D01*
X76649506Y-58127682D01*
X76811168Y-58303295D01*
X76999531Y-58449903D01*
X77209455Y-58563509D01*
X77209458Y-58563510D01*
X77209460Y-58563511D01*
X77435211Y-58641011D01*
X77435215Y-58641011D01*
X77435216Y-58641012D01*
X77670653Y-58680300D01*
X77670654Y-58680300D01*
X77909346Y-58680300D01*
X77909347Y-58680300D01*
X78144784Y-58641012D01*
X78144785Y-58641011D01*
X78144788Y-58641011D01*
X78370539Y-58563511D01*
X78370538Y-58563511D01*
X78370545Y-58563509D01*
X78580469Y-58449903D01*
X78768832Y-58303295D01*
X78930494Y-58127682D01*
X78956490Y-58087892D01*
X79009635Y-58042536D01*
X79078866Y-58033112D01*
X79142202Y-58062613D01*
X79145021Y-58065867D01*
X79150057Y-58066389D01*
X79840477Y-57375968D01*
X79863155Y-57453201D01*
X79942131Y-57576090D01*
X80052530Y-57671752D01*
X80185408Y-57732435D01*
X80190399Y-57733152D01*
X79502839Y-58420711D01*
X79502840Y-58420712D01*
X79539804Y-58449483D01*
X79749658Y-58563050D01*
X79975336Y-58640525D01*
X80210696Y-58679800D01*
X80449304Y-58679800D01*
X80684663Y-58640525D01*
X80910342Y-58563050D01*
X81120193Y-58449485D01*
X81157158Y-58420712D01*
X81157158Y-58420711D01*
X80469599Y-57733152D01*
X80474592Y-57732435D01*
X80607470Y-57671752D01*
X80717869Y-57576090D01*
X80796845Y-57453201D01*
X80819521Y-57375969D01*
X81509941Y-58066389D01*
X81522629Y-58065073D01*
X81549037Y-58042536D01*
X81618268Y-58033111D01*
X81681604Y-58062612D01*
X81703509Y-58087891D01*
X81729506Y-58127682D01*
X81891168Y-58303295D01*
X82079531Y-58449903D01*
X82289455Y-58563509D01*
X82289458Y-58563510D01*
X82289460Y-58563511D01*
X82515211Y-58641011D01*
X82515215Y-58641011D01*
X82515216Y-58641012D01*
X82750653Y-58680300D01*
X82750654Y-58680300D01*
X82989346Y-58680300D01*
X82989347Y-58680300D01*
X83224784Y-58641012D01*
X83224785Y-58641011D01*
X83224788Y-58641011D01*
X83450539Y-58563511D01*
X83450538Y-58563511D01*
X83450545Y-58563509D01*
X83660469Y-58449903D01*
X83848832Y-58303295D01*
X84010494Y-58127682D01*
X84036192Y-58088348D01*
X84089337Y-58042992D01*
X84158568Y-58033568D01*
X84221904Y-58063069D01*
X84243807Y-58088346D01*
X84269506Y-58127682D01*
X84431168Y-58303295D01*
X84619531Y-58449903D01*
X84829455Y-58563509D01*
X84829458Y-58563510D01*
X84829460Y-58563511D01*
X85055211Y-58641011D01*
X85055215Y-58641011D01*
X85055216Y-58641012D01*
X85290653Y-58680300D01*
X85290654Y-58680300D01*
X85529346Y-58680300D01*
X85529347Y-58680300D01*
X85764784Y-58641012D01*
X85764785Y-58641011D01*
X85764788Y-58641011D01*
X85990539Y-58563511D01*
X85990538Y-58563511D01*
X85990545Y-58563509D01*
X86200469Y-58449903D01*
X86388832Y-58303295D01*
X86550494Y-58127682D01*
X86576192Y-58088348D01*
X86629337Y-58042992D01*
X86698568Y-58033568D01*
X86761904Y-58063069D01*
X86783807Y-58088346D01*
X86809506Y-58127682D01*
X86971168Y-58303295D01*
X87159531Y-58449903D01*
X87369455Y-58563509D01*
X87369458Y-58563510D01*
X87369460Y-58563511D01*
X87595211Y-58641011D01*
X87595215Y-58641011D01*
X87595216Y-58641012D01*
X87830653Y-58680300D01*
X87830654Y-58680300D01*
X88069346Y-58680300D01*
X88069347Y-58680300D01*
X88304784Y-58641012D01*
X88304785Y-58641011D01*
X88304788Y-58641011D01*
X88530539Y-58563511D01*
X88530538Y-58563511D01*
X88530545Y-58563509D01*
X88740469Y-58449903D01*
X88928832Y-58303295D01*
X89090494Y-58127682D01*
X89116192Y-58088348D01*
X89169337Y-58042992D01*
X89238568Y-58033568D01*
X89301904Y-58063069D01*
X89323807Y-58088346D01*
X89349506Y-58127682D01*
X89511168Y-58303295D01*
X89699531Y-58449903D01*
X89909455Y-58563509D01*
X89909458Y-58563510D01*
X89909460Y-58563511D01*
X90135211Y-58641011D01*
X90135215Y-58641011D01*
X90135216Y-58641012D01*
X90370653Y-58680300D01*
X90370654Y-58680300D01*
X90609346Y-58680300D01*
X90609347Y-58680300D01*
X90844784Y-58641012D01*
X90844785Y-58641011D01*
X90844788Y-58641011D01*
X91070539Y-58563511D01*
X91070538Y-58563511D01*
X91070545Y-58563509D01*
X91280469Y-58449903D01*
X91468832Y-58303295D01*
X91630494Y-58127682D01*
X91656191Y-58088349D01*
X91709334Y-58042993D01*
X91778565Y-58033568D01*
X91841902Y-58063068D01*
X91863807Y-58088348D01*
X91880314Y-58113613D01*
X91889506Y-58127682D01*
X92051168Y-58303295D01*
X92239531Y-58449903D01*
X92449455Y-58563509D01*
X92449458Y-58563510D01*
X92449460Y-58563511D01*
X92675211Y-58641011D01*
X92675215Y-58641011D01*
X92675216Y-58641012D01*
X92910653Y-58680300D01*
X92910654Y-58680300D01*
X93149346Y-58680300D01*
X93149347Y-58680300D01*
X93384784Y-58641012D01*
X93384785Y-58641011D01*
X93384788Y-58641011D01*
X93610539Y-58563511D01*
X93610538Y-58563511D01*
X93610545Y-58563509D01*
X93820469Y-58449903D01*
X94008832Y-58303295D01*
X94170494Y-58127682D01*
X94196192Y-58088348D01*
X94249337Y-58042992D01*
X94318568Y-58033568D01*
X94381904Y-58063069D01*
X94403807Y-58088346D01*
X94429506Y-58127682D01*
X94591168Y-58303295D01*
X94779531Y-58449903D01*
X94989455Y-58563509D01*
X94989458Y-58563510D01*
X94989460Y-58563511D01*
X95215211Y-58641011D01*
X95215215Y-58641011D01*
X95215216Y-58641012D01*
X95450653Y-58680300D01*
X95450654Y-58680300D01*
X95689346Y-58680300D01*
X95689347Y-58680300D01*
X95924784Y-58641012D01*
X95924785Y-58641011D01*
X95924788Y-58641011D01*
X96150539Y-58563511D01*
X96150538Y-58563511D01*
X96150545Y-58563509D01*
X96360469Y-58449903D01*
X96548832Y-58303295D01*
X96710494Y-58127682D01*
X96736192Y-58088348D01*
X96789337Y-58042992D01*
X96858568Y-58033568D01*
X96921904Y-58063069D01*
X96943807Y-58088346D01*
X96969506Y-58127682D01*
X97131168Y-58303295D01*
X97319531Y-58449903D01*
X97529455Y-58563509D01*
X97529458Y-58563510D01*
X97529460Y-58563511D01*
X97755211Y-58641011D01*
X97755215Y-58641011D01*
X97755216Y-58641012D01*
X97990653Y-58680300D01*
X97990654Y-58680300D01*
X98229346Y-58680300D01*
X98229347Y-58680300D01*
X98464784Y-58641012D01*
X98464785Y-58641011D01*
X98464788Y-58641011D01*
X98690539Y-58563511D01*
X98690538Y-58563511D01*
X98690545Y-58563509D01*
X98900469Y-58449903D01*
X99088832Y-58303295D01*
X99250494Y-58127682D01*
X99276192Y-58088348D01*
X99329337Y-58042992D01*
X99398568Y-58033568D01*
X99461904Y-58063069D01*
X99483807Y-58088346D01*
X99509506Y-58127682D01*
X99671168Y-58303295D01*
X99859531Y-58449903D01*
X100069455Y-58563509D01*
X100069458Y-58563510D01*
X100069460Y-58563511D01*
X100295211Y-58641011D01*
X100295215Y-58641011D01*
X100295216Y-58641012D01*
X100530653Y-58680300D01*
X100530654Y-58680300D01*
X100769346Y-58680300D01*
X100769347Y-58680300D01*
X101004784Y-58641012D01*
X101051900Y-58624836D01*
X101121697Y-58621685D01*
X101179845Y-58654436D01*
X101464996Y-58939587D01*
X101477896Y-58955688D01*
X101529023Y-59003700D01*
X101531820Y-59006411D01*
X101551329Y-59025920D01*
X101554509Y-59028387D01*
X101563371Y-59035955D01*
X101595218Y-59065862D01*
X101612770Y-59075511D01*
X101629038Y-59086197D01*
X101644864Y-59098473D01*
X101684946Y-59115817D01*
X101695433Y-59120955D01*
X101733707Y-59141997D01*
X101742210Y-59144179D01*
X101753108Y-59146978D01*
X101771513Y-59153278D01*
X101789904Y-59161237D01*
X101833050Y-59168070D01*
X101844468Y-59170435D01*
X101886781Y-59181300D01*
X101906816Y-59181300D01*
X101926215Y-59182827D01*
X101945996Y-59185960D01*
X101989474Y-59181850D01*
X102001144Y-59181300D01*
X103030173Y-59181300D01*
X103097212Y-59200985D01*
X103142967Y-59253789D01*
X103152911Y-59322947D01*
X103123886Y-59386503D01*
X103082578Y-59417682D01*
X102907264Y-59499432D01*
X102720859Y-59629953D01*
X102559953Y-59790859D01*
X102429433Y-59977263D01*
X102402382Y-60035275D01*
X102356209Y-60087714D01*
X102289015Y-60106865D01*
X102222134Y-60086649D01*
X102177618Y-60035275D01*
X102150568Y-59977266D01*
X102042228Y-59822539D01*
X102020046Y-59790859D01*
X101859140Y-59629953D01*
X101672735Y-59499432D01*
X101466497Y-59403261D01*
X101246689Y-59344364D01*
X101020000Y-59324531D01*
X100793310Y-59344364D01*
X100573502Y-59403261D01*
X100367264Y-59499432D01*
X100180859Y-59629953D01*
X100019953Y-59790859D01*
X99889433Y-59977263D01*
X99862382Y-60035275D01*
X99816209Y-60087714D01*
X99749015Y-60106865D01*
X99682134Y-60086649D01*
X99637618Y-60035275D01*
X99610568Y-59977266D01*
X99502228Y-59822539D01*
X99480046Y-59790859D01*
X99319140Y-59629953D01*
X99132735Y-59499432D01*
X98926497Y-59403261D01*
X98706689Y-59344364D01*
X98480000Y-59324531D01*
X98253310Y-59344364D01*
X98033502Y-59403261D01*
X97827264Y-59499432D01*
X97640859Y-59629953D01*
X97479953Y-59790859D01*
X97349432Y-59977264D01*
X97253261Y-60183502D01*
X97194364Y-60403310D01*
X97174531Y-60630000D01*
X97194364Y-60856689D01*
X97253261Y-61076497D01*
X97349432Y-61282735D01*
X97479953Y-61469140D01*
X97640859Y-61630046D01*
X97670071Y-61650500D01*
X97772617Y-61722303D01*
X97780277Y-61727666D01*
X97823902Y-61782242D01*
X97831096Y-61851740D01*
X97814693Y-61894337D01*
X97715186Y-62055665D01*
X97660000Y-62222202D01*
X97649819Y-62321858D01*
X97649817Y-62321878D01*
X97649500Y-62324991D01*
X97649500Y-62988045D01*
X97649501Y-63550500D01*
X97629816Y-63617539D01*
X97577013Y-63663294D01*
X97525501Y-63674500D01*
X95882740Y-63674500D01*
X95862236Y-63672236D01*
X95792144Y-63674439D01*
X95788250Y-63674500D01*
X95760650Y-63674500D01*
X95756789Y-63674987D01*
X95756778Y-63674988D01*
X95756645Y-63675005D01*
X95745029Y-63675918D01*
X95701368Y-63677290D01*
X95682129Y-63682880D01*
X95663080Y-63686825D01*
X95643208Y-63689335D01*
X95602593Y-63705415D01*
X95591549Y-63709196D01*
X95549611Y-63721382D01*
X95532364Y-63731581D01*
X95514900Y-63740136D01*
X95496267Y-63747514D01*
X95460926Y-63773189D01*
X95451168Y-63779599D01*
X95413579Y-63801829D01*
X95399410Y-63815998D01*
X95384622Y-63828628D01*
X95368413Y-63840405D01*
X95340572Y-63874058D01*
X95332711Y-63882696D01*
X95327226Y-63888181D01*
X95265903Y-63921666D01*
X95239545Y-63924500D01*
X94403141Y-63924500D01*
X94403121Y-63924500D01*
X94399992Y-63924501D01*
X94396860Y-63924820D01*
X94396858Y-63924821D01*
X94297203Y-63935000D01*
X94130665Y-63990186D01*
X93981342Y-64082288D01*
X93857288Y-64206342D01*
X93765186Y-64355665D01*
X93710000Y-64522202D01*
X93699819Y-64621858D01*
X93699817Y-64621878D01*
X93699500Y-64624991D01*
X93699500Y-64628138D01*
X93699500Y-64628139D01*
X93699500Y-65371858D01*
X93699500Y-65371877D01*
X93699501Y-65375008D01*
X93699820Y-65378140D01*
X93699821Y-65378141D01*
X93710000Y-65477796D01*
X93765186Y-65644334D01*
X93857288Y-65793657D01*
X93981342Y-65917711D01*
X93981344Y-65917712D01*
X94130666Y-66009814D01*
X94207098Y-66035141D01*
X94297202Y-66064999D01*
X94396858Y-66075180D01*
X94396859Y-66075180D01*
X94399991Y-66075500D01*
X95800008Y-66075499D01*
X95902797Y-66064999D01*
X96069334Y-66009814D01*
X96218656Y-65917712D01*
X96342712Y-65793656D01*
X96434814Y-65644334D01*
X96489999Y-65477797D01*
X96500500Y-65375009D01*
X96500499Y-65049499D01*
X96520183Y-64982461D01*
X96572987Y-64936706D01*
X96624499Y-64925500D01*
X97075500Y-64925500D01*
X97142539Y-64945185D01*
X97188294Y-64997989D01*
X97199500Y-65049500D01*
X97199500Y-66171859D01*
X97199500Y-66171878D01*
X97199501Y-66175008D01*
X97199820Y-66178140D01*
X97199821Y-66178141D01*
X97210000Y-66277796D01*
X97265186Y-66444334D01*
X97357286Y-66593654D01*
X97357287Y-66593655D01*
X97357288Y-66593656D01*
X97481344Y-66717712D01*
X97540547Y-66754228D01*
X97587272Y-66806176D01*
X97598495Y-66875138D01*
X97570652Y-66939220D01*
X97518786Y-66975948D01*
X97437671Y-67006203D01*
X97437670Y-67006203D01*
X97437669Y-67006204D01*
X97343901Y-67076399D01*
X97322454Y-67092454D01*
X97236204Y-67207668D01*
X97185910Y-67342515D01*
X97185909Y-67342517D01*
X97182398Y-67375178D01*
X97180938Y-67388755D01*
X97154200Y-67453306D01*
X97096807Y-67493154D01*
X97057648Y-67499500D01*
X96588585Y-67499500D01*
X96521546Y-67479815D01*
X96475791Y-67427011D01*
X96470879Y-67414504D01*
X96469672Y-67410861D01*
X96434814Y-67305666D01*
X96342712Y-67156344D01*
X96342711Y-67156342D01*
X96218657Y-67032288D01*
X96069334Y-66940186D01*
X95902797Y-66885000D01*
X95803141Y-66874819D01*
X95803122Y-66874818D01*
X95800009Y-66874500D01*
X95796860Y-66874500D01*
X94403140Y-66874500D01*
X94403120Y-66874500D01*
X94399992Y-66874501D01*
X94396860Y-66874820D01*
X94396858Y-66874821D01*
X94297203Y-66885000D01*
X94130665Y-66940186D01*
X93981342Y-67032288D01*
X93857288Y-67156342D01*
X93765186Y-67305665D01*
X93710000Y-67472202D01*
X93699819Y-67571858D01*
X93699817Y-67571878D01*
X93699500Y-67574991D01*
X93699500Y-67578138D01*
X93699500Y-67578139D01*
X93699500Y-68321858D01*
X93699500Y-68321877D01*
X93699501Y-68325008D01*
X93699820Y-68328140D01*
X93699821Y-68328141D01*
X93710000Y-68427796D01*
X93765186Y-68594334D01*
X93857288Y-68743657D01*
X93981342Y-68867711D01*
X93981344Y-68867712D01*
X94130666Y-68959814D01*
X94242017Y-68996712D01*
X94297202Y-69014999D01*
X94396858Y-69025180D01*
X94396859Y-69025180D01*
X94399991Y-69025500D01*
X95800008Y-69025499D01*
X95902797Y-69014999D01*
X95927558Y-69006793D01*
X95966562Y-69000500D01*
X97057649Y-69000500D01*
X97124688Y-69020185D01*
X97170443Y-69072989D01*
X97180938Y-69111245D01*
X97185909Y-69157483D01*
X97236204Y-69292331D01*
X97322454Y-69407546D01*
X97437669Y-69493796D01*
X97572517Y-69544091D01*
X97632127Y-69550500D01*
X99327872Y-69550499D01*
X99387483Y-69544091D01*
X99522331Y-69493796D01*
X99637546Y-69407546D01*
X99723796Y-69292331D01*
X99774091Y-69157483D01*
X99777862Y-69122404D01*
X99804598Y-69057856D01*
X99861989Y-69018006D01*
X99931814Y-69015511D01*
X99991904Y-69051162D01*
X100002726Y-69064537D01*
X100019953Y-69089140D01*
X100180859Y-69250046D01*
X100367264Y-69380567D01*
X100367265Y-69380567D01*
X100367266Y-69380568D01*
X100573504Y-69476739D01*
X100793308Y-69535635D01*
X101020000Y-69555468D01*
X101246692Y-69535635D01*
X101466496Y-69476739D01*
X101672734Y-69380568D01*
X101859139Y-69250047D01*
X102020047Y-69089139D01*
X102150568Y-68902734D01*
X102177618Y-68844724D01*
X102223790Y-68792285D01*
X102290983Y-68773133D01*
X102357865Y-68793348D01*
X102402382Y-68844725D01*
X102429431Y-68902733D01*
X102559953Y-69089140D01*
X102720859Y-69250046D01*
X102907264Y-69380567D01*
X102907265Y-69380567D01*
X102907266Y-69380568D01*
X103113504Y-69476739D01*
X103333308Y-69535635D01*
X103560000Y-69555468D01*
X103786692Y-69535635D01*
X104006496Y-69476739D01*
X104212734Y-69380568D01*
X104399139Y-69250047D01*
X104560047Y-69089139D01*
X104690568Y-68902734D01*
X104717893Y-68844134D01*
X104764065Y-68791695D01*
X104831258Y-68772543D01*
X104898139Y-68792758D01*
X104942657Y-68844133D01*
X104969866Y-68902482D01*
X105100341Y-69088819D01*
X105261180Y-69249658D01*
X105447519Y-69380134D01*
X105653673Y-69476266D01*
X105849999Y-69528871D01*
X105850000Y-69528871D01*
X105850000Y-68565686D01*
X105861955Y-68577641D01*
X105974852Y-68635165D01*
X106068519Y-68650000D01*
X106131481Y-68650000D01*
X106225148Y-68635165D01*
X106338045Y-68577641D01*
X106350000Y-68565686D01*
X106350000Y-69528871D01*
X106546326Y-69476266D01*
X106752480Y-69380134D01*
X106938819Y-69249658D01*
X107099658Y-69088819D01*
X107230134Y-68902480D01*
X107326266Y-68696326D01*
X107378872Y-68500000D01*
X106415686Y-68500000D01*
X106427641Y-68488045D01*
X106485165Y-68375148D01*
X106504986Y-68250000D01*
X106485165Y-68124852D01*
X106427641Y-68011955D01*
X106415686Y-68000000D01*
X107378872Y-68000000D01*
X107378871Y-67999999D01*
X107326266Y-67803673D01*
X107230134Y-67597519D01*
X107099658Y-67411180D01*
X106938819Y-67250341D01*
X106752480Y-67119865D01*
X106709880Y-67100000D01*
X121625001Y-67100000D01*
X121625001Y-67296829D01*
X121625321Y-67303111D01*
X121635493Y-67402695D01*
X121690642Y-67569122D01*
X121782683Y-67718345D01*
X121906654Y-67842316D01*
X122055877Y-67934357D01*
X122222303Y-67989506D01*
X122321890Y-67999680D01*
X122328168Y-67999999D01*
X122749999Y-67999999D01*
X122750000Y-67999998D01*
X122750000Y-67100000D01*
X123250000Y-67100000D01*
X123250000Y-67999999D01*
X123671829Y-67999999D01*
X123678111Y-67999678D01*
X123777695Y-67989506D01*
X123944122Y-67934357D01*
X124093345Y-67842316D01*
X124217316Y-67718345D01*
X124309357Y-67569122D01*
X124364506Y-67402696D01*
X124374680Y-67303109D01*
X124375000Y-67296831D01*
X124375000Y-67100000D01*
X123250000Y-67100000D01*
X122750000Y-67100000D01*
X121625001Y-67100000D01*
X106709880Y-67100000D01*
X106546326Y-67023733D01*
X106350000Y-66971126D01*
X106350000Y-67934314D01*
X106338045Y-67922359D01*
X106225148Y-67864835D01*
X106131481Y-67850000D01*
X106068519Y-67850000D01*
X105974852Y-67864835D01*
X105861955Y-67922359D01*
X105850000Y-67934314D01*
X105850000Y-66971126D01*
X105849999Y-66971126D01*
X105653673Y-67023733D01*
X105447519Y-67119865D01*
X105261180Y-67250341D01*
X105100341Y-67411180D01*
X104969863Y-67597522D01*
X104942656Y-67655866D01*
X104896483Y-67708305D01*
X104829290Y-67727456D01*
X104762409Y-67707239D01*
X104717893Y-67655865D01*
X104703500Y-67625000D01*
X104690568Y-67597266D01*
X104677176Y-67578139D01*
X104560046Y-67410859D01*
X104399140Y-67249953D01*
X104212735Y-67119432D01*
X104006497Y-67023261D01*
X103786689Y-66964364D01*
X103559999Y-66944531D01*
X103333310Y-66964364D01*
X103113502Y-67023261D01*
X102907264Y-67119432D01*
X102720859Y-67249953D01*
X102559952Y-67410860D01*
X102426074Y-67602060D01*
X102371497Y-67645685D01*
X102301999Y-67652879D01*
X102239644Y-67621356D01*
X102204230Y-67561126D01*
X102200499Y-67530943D01*
X102200499Y-66859796D01*
X102220184Y-66792758D01*
X102259401Y-66754259D01*
X102318656Y-66717712D01*
X102436368Y-66600000D01*
X121625000Y-66600000D01*
X122750000Y-66600000D01*
X122750000Y-65700000D01*
X123250000Y-65700000D01*
X123250000Y-66600000D01*
X124374999Y-66600000D01*
X124374999Y-66403170D01*
X124374678Y-66396888D01*
X124364506Y-66297304D01*
X124309357Y-66130877D01*
X124217316Y-65981654D01*
X124093345Y-65857683D01*
X123944122Y-65765642D01*
X123777696Y-65710493D01*
X123678109Y-65700319D01*
X123671832Y-65700000D01*
X123250000Y-65700000D01*
X122750000Y-65700000D01*
X122328171Y-65700000D01*
X122321888Y-65700321D01*
X122222304Y-65710493D01*
X122055877Y-65765642D01*
X121906654Y-65857683D01*
X121782683Y-65981654D01*
X121690642Y-66130877D01*
X121635493Y-66297303D01*
X121625319Y-66396890D01*
X121625000Y-66403168D01*
X121625000Y-66600000D01*
X102436368Y-66600000D01*
X102442712Y-66593656D01*
X102534814Y-66444334D01*
X102589999Y-66277797D01*
X102600500Y-66175009D01*
X102600499Y-65049499D01*
X102620184Y-64982461D01*
X102672987Y-64936706D01*
X102724499Y-64925500D01*
X107975500Y-64925500D01*
X108042539Y-64945185D01*
X108088294Y-64997989D01*
X108099500Y-65049500D01*
X108099500Y-65671858D01*
X108099500Y-65671877D01*
X108099501Y-65675008D01*
X108099820Y-65678140D01*
X108099821Y-65678141D01*
X108110000Y-65777796D01*
X108165186Y-65944334D01*
X108257288Y-66093657D01*
X108381342Y-66217711D01*
X108381344Y-66217712D01*
X108530666Y-66309814D01*
X108642016Y-66346712D01*
X108697202Y-66364999D01*
X108796858Y-66375180D01*
X108796859Y-66375180D01*
X108799991Y-66375500D01*
X109700008Y-66375499D01*
X109802797Y-66364999D01*
X109969334Y-66309814D01*
X110118656Y-66217712D01*
X110242712Y-66093656D01*
X110334814Y-65944334D01*
X110389999Y-65777797D01*
X110400500Y-65675009D01*
X110400499Y-64324992D01*
X110389999Y-64222203D01*
X110334814Y-64055666D01*
X110250975Y-63919740D01*
X110242711Y-63906342D01*
X110118657Y-63782288D01*
X109969334Y-63690186D01*
X109802797Y-63635000D01*
X109703141Y-63624819D01*
X109703122Y-63624818D01*
X109700009Y-63624500D01*
X109696860Y-63624500D01*
X108803141Y-63624500D01*
X108803121Y-63624500D01*
X108799992Y-63624501D01*
X108796860Y-63624820D01*
X108796858Y-63624821D01*
X108697201Y-63635001D01*
X108613485Y-63662741D01*
X108585085Y-63665070D01*
X108585397Y-63668366D01*
X108526325Y-63673950D01*
X108514655Y-63674500D01*
X108124000Y-63674500D01*
X108056961Y-63654815D01*
X108011206Y-63602011D01*
X108000000Y-63550500D01*
X108000000Y-63250000D01*
X105700001Y-63250000D01*
X105700001Y-63550500D01*
X105680316Y-63617539D01*
X105627512Y-63663294D01*
X105576001Y-63674500D01*
X105024500Y-63674500D01*
X104957461Y-63654815D01*
X104911706Y-63602011D01*
X104900500Y-63550500D01*
X104900499Y-62328140D01*
X104900499Y-62328139D01*
X104900499Y-62324992D01*
X104889999Y-62222203D01*
X104834814Y-62055666D01*
X104742712Y-61906344D01*
X104742711Y-61906342D01*
X104618655Y-61782286D01*
X104559403Y-61745739D01*
X104512678Y-61693791D01*
X104500500Y-61640201D01*
X104500500Y-61580048D01*
X104520185Y-61513009D01*
X104536819Y-61492367D01*
X104546333Y-61482853D01*
X104560047Y-61469139D01*
X104690568Y-61282734D01*
X104717618Y-61224724D01*
X104763790Y-61172285D01*
X104830983Y-61153133D01*
X104897865Y-61173348D01*
X104942382Y-61224725D01*
X104969431Y-61282733D01*
X105099953Y-61469140D01*
X105260859Y-61630046D01*
X105447264Y-61760567D01*
X105447265Y-61760567D01*
X105447266Y-61760568D01*
X105653504Y-61856739D01*
X105694261Y-61867659D01*
X105753920Y-61904023D01*
X105784450Y-61966870D01*
X105776156Y-62036246D01*
X105767710Y-62052524D01*
X105765643Y-62055875D01*
X105710493Y-62222303D01*
X105700319Y-62321890D01*
X105700000Y-62328168D01*
X105700000Y-62750000D01*
X107999999Y-62750000D01*
X107999999Y-62328170D01*
X107999678Y-62321888D01*
X107989506Y-62222304D01*
X107934357Y-62055877D01*
X107842316Y-61906654D01*
X107718345Y-61782683D01*
X107569122Y-61690642D01*
X107402695Y-61635493D01*
X107327955Y-61627858D01*
X107263263Y-61601462D01*
X107223111Y-61544281D01*
X107220248Y-61474470D01*
X107255582Y-61414193D01*
X107317895Y-61382588D01*
X107340557Y-61380500D01*
X107992770Y-61380500D01*
X108059809Y-61400185D01*
X108080446Y-61416814D01*
X108108665Y-61445033D01*
X108131345Y-61467713D01*
X108193750Y-61506204D01*
X108280666Y-61559814D01*
X108379167Y-61592454D01*
X108447202Y-61614999D01*
X108546858Y-61625180D01*
X108546859Y-61625180D01*
X108549991Y-61625500D01*
X109439547Y-61625499D01*
X109506586Y-61645183D01*
X109527228Y-61661818D01*
X110749197Y-62883787D01*
X110762098Y-62899889D01*
X110764212Y-62901874D01*
X110764214Y-62901877D01*
X110795578Y-62931330D01*
X110813240Y-62947916D01*
X110816036Y-62950626D01*
X110835530Y-62970120D01*
X110838615Y-62972513D01*
X110838701Y-62972580D01*
X110847573Y-62980158D01*
X110879418Y-63010062D01*
X110896974Y-63019714D01*
X110913231Y-63030392D01*
X110929064Y-63042674D01*
X110939531Y-63047203D01*
X110969156Y-63060023D01*
X110979643Y-63065160D01*
X111017908Y-63086197D01*
X111037316Y-63091180D01*
X111055710Y-63097478D01*
X111074105Y-63105438D01*
X111117254Y-63112271D01*
X111128680Y-63114638D01*
X111144222Y-63118629D01*
X111170980Y-63125500D01*
X111170981Y-63125500D01*
X111191016Y-63125500D01*
X111210413Y-63127026D01*
X111230196Y-63130160D01*
X111273674Y-63126050D01*
X111285344Y-63125500D01*
X112190547Y-63125500D01*
X112257586Y-63145185D01*
X112303341Y-63197989D01*
X112313285Y-63267147D01*
X112284260Y-63330703D01*
X112278247Y-63337161D01*
X112087687Y-63527721D01*
X112027226Y-63588182D01*
X111965903Y-63621666D01*
X111939548Y-63624500D01*
X111903142Y-63624500D01*
X111903123Y-63624500D01*
X111899992Y-63624501D01*
X111896861Y-63624820D01*
X111896857Y-63624821D01*
X111797203Y-63635000D01*
X111630665Y-63690186D01*
X111481342Y-63782288D01*
X111357288Y-63906342D01*
X111265186Y-64055665D01*
X111210000Y-64222202D01*
X111199819Y-64321858D01*
X111199817Y-64321878D01*
X111199500Y-64324991D01*
X111199500Y-64328138D01*
X111199500Y-64328139D01*
X111199500Y-65671859D01*
X111199500Y-65671878D01*
X111199501Y-65675008D01*
X111199820Y-65678140D01*
X111199821Y-65678141D01*
X111210000Y-65777796D01*
X111265186Y-65944334D01*
X111357288Y-66093657D01*
X111481342Y-66217711D01*
X111481344Y-66217712D01*
X111630666Y-66309814D01*
X111742017Y-66346712D01*
X111797202Y-66364999D01*
X111896858Y-66375180D01*
X111896859Y-66375180D01*
X111899991Y-66375500D01*
X112800008Y-66375499D01*
X112902797Y-66364999D01*
X113069334Y-66309814D01*
X113218656Y-66217712D01*
X113342712Y-66093656D01*
X113434814Y-65944334D01*
X113489999Y-65777797D01*
X113500500Y-65675009D01*
X113500499Y-64324992D01*
X113489999Y-64222203D01*
X113434814Y-64055666D01*
X113434813Y-64055665D01*
X113432516Y-64048732D01*
X113430114Y-63978904D01*
X113462539Y-63922049D01*
X113472772Y-63911816D01*
X113534093Y-63878333D01*
X113560441Y-63875499D01*
X114450008Y-63875499D01*
X114552797Y-63864999D01*
X114719334Y-63809814D01*
X114868656Y-63717712D01*
X114992712Y-63593656D01*
X115084814Y-63444334D01*
X115139999Y-63277797D01*
X115150500Y-63175009D01*
X115150500Y-62750000D01*
X115950001Y-62750000D01*
X115950001Y-63171829D01*
X115950321Y-63178111D01*
X115960493Y-63277695D01*
X116015642Y-63444122D01*
X116107683Y-63593345D01*
X116231654Y-63717316D01*
X116380877Y-63809357D01*
X116547303Y-63864506D01*
X116646890Y-63874680D01*
X116653168Y-63874999D01*
X116849999Y-63874999D01*
X116850000Y-63874998D01*
X116850000Y-62750000D01*
X117350000Y-62750000D01*
X117350000Y-63874999D01*
X117546829Y-63874999D01*
X117553111Y-63874678D01*
X117652695Y-63864506D01*
X117819122Y-63809357D01*
X117915356Y-63750000D01*
X120344540Y-63750000D01*
X120364326Y-63938257D01*
X120422820Y-64118284D01*
X120517466Y-64282216D01*
X120644129Y-64422889D01*
X120797269Y-64534151D01*
X120970197Y-64611144D01*
X121155352Y-64650500D01*
X121155354Y-64650500D01*
X121344648Y-64650500D01*
X121479397Y-64621858D01*
X121529803Y-64611144D01*
X121579509Y-64589013D01*
X121625201Y-64568670D01*
X121694451Y-64559385D01*
X121757728Y-64589013D01*
X121781173Y-64616848D01*
X121782288Y-64618656D01*
X121848445Y-64684813D01*
X121906345Y-64742713D01*
X121918970Y-64750500D01*
X122055666Y-64834814D01*
X122167016Y-64871712D01*
X122222202Y-64889999D01*
X122321858Y-64900180D01*
X122321859Y-64900180D01*
X122324991Y-64900500D01*
X123675008Y-64900499D01*
X123777797Y-64889999D01*
X123944334Y-64834814D01*
X124093656Y-64742712D01*
X124217712Y-64618656D01*
X124309814Y-64469334D01*
X124364999Y-64302797D01*
X124375500Y-64200009D01*
X124375499Y-63734999D01*
X126244340Y-63734999D01*
X126264936Y-63970407D01*
X126304560Y-64118284D01*
X126326097Y-64198663D01*
X126425965Y-64412830D01*
X126561505Y-64606401D01*
X126561507Y-64606403D01*
X126561508Y-64606404D01*
X126683818Y-64728714D01*
X126717303Y-64790037D01*
X126712319Y-64859729D01*
X126670447Y-64915662D01*
X126639472Y-64932576D01*
X126507913Y-64981646D01*
X126392811Y-65067811D01*
X126306647Y-65182910D01*
X126256400Y-65317628D01*
X126250354Y-65373867D01*
X126250000Y-65380481D01*
X126250000Y-66025000D01*
X127166314Y-66025000D01*
X127140507Y-66065156D01*
X127100000Y-66203111D01*
X127100000Y-66346889D01*
X127140507Y-66484844D01*
X127166314Y-66525000D01*
X126250000Y-66525000D01*
X126250000Y-67169518D01*
X126250354Y-67176132D01*
X126256400Y-67232371D01*
X126306647Y-67367089D01*
X126392811Y-67482188D01*
X126507910Y-67568352D01*
X126642628Y-67618599D01*
X126698867Y-67624645D01*
X126705482Y-67625000D01*
X127350000Y-67625000D01*
X127350000Y-66710501D01*
X127457685Y-66759680D01*
X127564237Y-66775000D01*
X127635763Y-66775000D01*
X127742315Y-66759680D01*
X127849999Y-66710501D01*
X127849999Y-67624999D01*
X127850000Y-67625000D01*
X128494518Y-67625000D01*
X128501132Y-67624645D01*
X128557371Y-67618599D01*
X128692089Y-67568352D01*
X128807188Y-67482188D01*
X128893352Y-67367089D01*
X128943599Y-67232371D01*
X128949645Y-67176132D01*
X128950000Y-67169518D01*
X128950000Y-66525000D01*
X128033686Y-66525000D01*
X128059493Y-66484844D01*
X128100000Y-66346889D01*
X128100000Y-66203111D01*
X128059493Y-66065156D01*
X128033686Y-66025000D01*
X128950000Y-66025000D01*
X128950000Y-65380481D01*
X128949645Y-65373867D01*
X128943599Y-65317628D01*
X128893352Y-65182910D01*
X128807188Y-65067811D01*
X128692088Y-64981647D01*
X128560528Y-64932577D01*
X128504594Y-64890705D01*
X128480178Y-64825240D01*
X128495030Y-64756967D01*
X128516175Y-64728720D01*
X128638495Y-64606401D01*
X128774035Y-64412830D01*
X128873903Y-64198663D01*
X128914573Y-64046877D01*
X129374500Y-64046877D01*
X129374501Y-64050008D01*
X129374820Y-64053140D01*
X129374821Y-64053141D01*
X129385000Y-64152796D01*
X129440186Y-64319334D01*
X129532288Y-64468657D01*
X129656342Y-64592711D01*
X129698406Y-64618656D01*
X129805666Y-64684814D01*
X129883631Y-64710649D01*
X129972202Y-64739999D01*
X129987785Y-64741591D01*
X130052477Y-64767986D01*
X130092629Y-64825167D01*
X130095493Y-64894978D01*
X130060160Y-64955255D01*
X130048070Y-64965267D01*
X129894127Y-65077112D01*
X129767466Y-65217783D01*
X129672820Y-65381715D01*
X129614326Y-65561742D01*
X129594540Y-65750000D01*
X129614326Y-65938257D01*
X129672820Y-66118284D01*
X129767466Y-66282216D01*
X129894129Y-66422889D01*
X130047269Y-66534151D01*
X130220197Y-66611144D01*
X130405352Y-66650500D01*
X130405354Y-66650500D01*
X130594645Y-66650500D01*
X130594646Y-66650500D01*
X130657595Y-66637119D01*
X130727259Y-66642434D01*
X130782993Y-66684570D01*
X130806733Y-66745808D01*
X130810000Y-66777796D01*
X130865186Y-66944334D01*
X130957288Y-67093657D01*
X131081342Y-67217711D01*
X131081344Y-67217712D01*
X131230666Y-67309814D01*
X131329351Y-67342515D01*
X131397202Y-67364999D01*
X131496858Y-67375180D01*
X131496859Y-67375180D01*
X131499991Y-67375500D01*
X132400008Y-67375499D01*
X132502797Y-67364999D01*
X132669334Y-67309814D01*
X132818656Y-67217712D01*
X132942712Y-67093656D01*
X133034814Y-66944334D01*
X133089999Y-66777797D01*
X133100500Y-66675009D01*
X133100499Y-65324992D01*
X133089999Y-65222203D01*
X133034814Y-65055666D01*
X132958892Y-64932576D01*
X132942711Y-64906342D01*
X132818657Y-64782288D01*
X132669334Y-64690186D01*
X132502797Y-64635000D01*
X132403141Y-64624819D01*
X132403122Y-64624818D01*
X132400009Y-64624500D01*
X132396860Y-64624500D01*
X132093761Y-64624500D01*
X132026722Y-64604815D01*
X131980967Y-64552011D01*
X131971023Y-64482853D01*
X131988222Y-64435404D01*
X131996268Y-64422359D01*
X132059814Y-64319334D01*
X132114999Y-64152797D01*
X132125500Y-64050009D01*
X132125499Y-63499499D01*
X132145183Y-63432461D01*
X132197987Y-63386706D01*
X132249499Y-63375500D01*
X132575501Y-63375500D01*
X132642540Y-63395185D01*
X132688295Y-63447989D01*
X132699501Y-63499500D01*
X132699501Y-63597872D01*
X132699853Y-63601152D01*
X132699854Y-63601159D01*
X132705909Y-63657484D01*
X132728225Y-63717316D01*
X132756204Y-63792331D01*
X132842454Y-63907546D01*
X132957669Y-63993796D01*
X133092517Y-64044091D01*
X133152127Y-64050500D01*
X133250500Y-64050499D01*
X133317538Y-64070183D01*
X133363294Y-64122986D01*
X133374500Y-64174499D01*
X133374500Y-64867256D01*
X133372235Y-64887766D01*
X133374439Y-64957872D01*
X133374500Y-64961767D01*
X133374500Y-64989350D01*
X133374988Y-64993219D01*
X133374989Y-64993225D01*
X133375004Y-64993343D01*
X133375918Y-65004967D01*
X133377290Y-65048626D01*
X133382879Y-65067860D01*
X133386825Y-65086916D01*
X133389335Y-65106792D01*
X133405414Y-65147404D01*
X133409197Y-65158451D01*
X133421382Y-65200391D01*
X133431580Y-65217635D01*
X133440136Y-65235100D01*
X133447514Y-65253732D01*
X133447515Y-65253733D01*
X133473180Y-65289059D01*
X133479593Y-65298822D01*
X133501826Y-65336416D01*
X133501829Y-65336419D01*
X133501830Y-65336420D01*
X133515995Y-65350585D01*
X133528627Y-65365375D01*
X133540406Y-65381587D01*
X133574058Y-65409426D01*
X133582699Y-65417289D01*
X133863181Y-65697771D01*
X133896666Y-65759094D01*
X133899500Y-65785452D01*
X133899500Y-66671858D01*
X133899500Y-66671877D01*
X133899501Y-66675008D01*
X133899820Y-66678140D01*
X133899821Y-66678141D01*
X133910000Y-66777796D01*
X133965186Y-66944334D01*
X134057288Y-67093657D01*
X134181342Y-67217711D01*
X134181344Y-67217712D01*
X134330666Y-67309814D01*
X134429351Y-67342515D01*
X134497202Y-67364999D01*
X134596858Y-67375180D01*
X134596859Y-67375180D01*
X134599991Y-67375500D01*
X135500008Y-67375499D01*
X135602797Y-67364999D01*
X135769334Y-67309814D01*
X135918656Y-67217712D01*
X136042712Y-67093656D01*
X136134814Y-66944334D01*
X136189999Y-66777797D01*
X136200500Y-66675009D01*
X136200499Y-65324992D01*
X136189999Y-65222203D01*
X136134814Y-65055666D01*
X136058892Y-64932576D01*
X136042711Y-64906342D01*
X135918657Y-64782288D01*
X135769334Y-64690186D01*
X135602797Y-64635000D01*
X135503141Y-64624819D01*
X135503122Y-64624818D01*
X135500009Y-64624500D01*
X135496860Y-64624500D01*
X134749500Y-64624500D01*
X134682461Y-64604815D01*
X134636706Y-64552011D01*
X134625500Y-64500500D01*
X134625500Y-64174499D01*
X134645185Y-64107460D01*
X134697989Y-64061705D01*
X134749500Y-64050499D01*
X134844561Y-64050499D01*
X134847872Y-64050499D01*
X134907483Y-64044091D01*
X135042331Y-63993796D01*
X135157546Y-63907546D01*
X135243796Y-63792331D01*
X135294091Y-63657483D01*
X135300500Y-63597873D01*
X135300499Y-63594525D01*
X135300549Y-63593612D01*
X135323791Y-63527721D01*
X135378966Y-63484855D01*
X135417115Y-63479330D01*
X136102045Y-62794399D01*
X136114835Y-62875148D01*
X136172359Y-62988045D01*
X136261955Y-63077641D01*
X136374852Y-63135165D01*
X136455599Y-63147953D01*
X135774526Y-63829025D01*
X135774526Y-63829026D01*
X135847515Y-63880133D01*
X136053673Y-63976266D01*
X136273397Y-64035141D01*
X136500000Y-64054966D01*
X136726602Y-64035141D01*
X136946326Y-63976266D01*
X137152480Y-63880134D01*
X137225472Y-63829025D01*
X136544401Y-63147953D01*
X136625148Y-63135165D01*
X136738045Y-63077641D01*
X136827641Y-62988045D01*
X136885165Y-62875148D01*
X136897953Y-62794400D01*
X137579025Y-63475472D01*
X137630134Y-63402480D01*
X137726266Y-63196326D01*
X137785141Y-62976602D01*
X137804966Y-62749999D01*
X137785141Y-62523397D01*
X137726266Y-62303673D01*
X137630133Y-62097515D01*
X137579025Y-62024526D01*
X136897953Y-62705598D01*
X136885165Y-62624852D01*
X136827641Y-62511955D01*
X136738045Y-62422359D01*
X136625148Y-62364835D01*
X136544400Y-62352046D01*
X137225472Y-61670974D01*
X137225471Y-61670972D01*
X137152484Y-61619866D01*
X136946326Y-61523733D01*
X136726602Y-61464858D01*
X136500000Y-61445033D01*
X136273397Y-61464858D01*
X136053672Y-61523733D01*
X135847516Y-61619865D01*
X135774527Y-61670973D01*
X135774526Y-61670973D01*
X136455600Y-62352046D01*
X136374852Y-62364835D01*
X136261955Y-62422359D01*
X136172359Y-62511955D01*
X136114835Y-62624852D01*
X136102046Y-62705598D01*
X135415843Y-62019397D01*
X135366677Y-62009515D01*
X135316494Y-61960899D01*
X135300548Y-61906379D01*
X135300499Y-61905462D01*
X135300499Y-61902128D01*
X135294091Y-61842517D01*
X135243796Y-61707669D01*
X135157546Y-61592454D01*
X135042331Y-61506204D01*
X134907483Y-61455909D01*
X134847873Y-61449500D01*
X134844550Y-61449500D01*
X133155439Y-61449500D01*
X133155420Y-61449500D01*
X133152128Y-61449501D01*
X133148848Y-61449853D01*
X133148840Y-61449854D01*
X133092515Y-61455909D01*
X132957669Y-61506204D01*
X132842454Y-61592454D01*
X132756204Y-61707668D01*
X132705909Y-61842516D01*
X132700338Y-61894337D01*
X132699500Y-61902127D01*
X132699500Y-61905449D01*
X132699500Y-62000500D01*
X132679815Y-62067539D01*
X132627011Y-62113294D01*
X132575500Y-62124500D01*
X131682744Y-62124500D01*
X131662236Y-62122235D01*
X131592113Y-62124439D01*
X131588219Y-62124500D01*
X131560650Y-62124500D01*
X131556794Y-62124986D01*
X131556791Y-62124987D01*
X131556735Y-62124994D01*
X131556662Y-62125003D01*
X131545043Y-62125917D01*
X131501372Y-62127289D01*
X131482128Y-62132880D01*
X131463084Y-62136824D01*
X131443208Y-62139335D01*
X131402600Y-62155413D01*
X131391554Y-62159194D01*
X131364654Y-62167011D01*
X131349607Y-62171383D01*
X131332365Y-62181579D01*
X131314904Y-62190133D01*
X131296267Y-62197512D01*
X131260931Y-62223185D01*
X131251174Y-62229595D01*
X131213580Y-62251829D01*
X131199413Y-62265996D01*
X131184624Y-62278626D01*
X131168413Y-62290404D01*
X131140572Y-62324058D01*
X131132711Y-62332697D01*
X131052227Y-62413181D01*
X130990904Y-62446666D01*
X130964546Y-62449500D01*
X130078141Y-62449500D01*
X130078121Y-62449500D01*
X130074992Y-62449501D01*
X130071860Y-62449820D01*
X130071858Y-62449821D01*
X129972203Y-62460000D01*
X129805665Y-62515186D01*
X129656342Y-62607288D01*
X129532288Y-62731342D01*
X129440186Y-62880665D01*
X129385000Y-63047202D01*
X129374819Y-63146858D01*
X129374817Y-63146878D01*
X129374500Y-63149991D01*
X129374500Y-63153138D01*
X129374500Y-63153139D01*
X129374500Y-64046858D01*
X129374500Y-64046877D01*
X128914573Y-64046877D01*
X128935063Y-63970408D01*
X128955659Y-63735000D01*
X128954146Y-63717712D01*
X128935063Y-63499592D01*
X128920200Y-63444122D01*
X128873903Y-63271337D01*
X128774035Y-63057171D01*
X128638495Y-62863599D01*
X128471401Y-62696505D01*
X128277830Y-62560965D01*
X128063663Y-62461097D01*
X128001098Y-62444333D01*
X127835407Y-62399936D01*
X127600000Y-62379340D01*
X127364592Y-62399936D01*
X127136336Y-62461097D01*
X126922170Y-62560965D01*
X126728598Y-62696505D01*
X126561505Y-62863598D01*
X126425965Y-63057170D01*
X126326097Y-63271336D01*
X126264936Y-63499592D01*
X126244340Y-63734999D01*
X124375499Y-63734999D01*
X124375499Y-63299992D01*
X124364999Y-63197203D01*
X124309814Y-63030666D01*
X124223959Y-62891472D01*
X124217711Y-62881342D01*
X124093657Y-62757288D01*
X123944334Y-62665186D01*
X123777797Y-62610000D01*
X123678141Y-62599819D01*
X123678122Y-62599818D01*
X123675009Y-62599500D01*
X123671860Y-62599500D01*
X122328140Y-62599500D01*
X122328120Y-62599500D01*
X122324992Y-62599501D01*
X122321860Y-62599820D01*
X122321858Y-62599821D01*
X122222203Y-62610000D01*
X122055665Y-62665186D01*
X121906342Y-62757288D01*
X121782285Y-62881345D01*
X121781171Y-62883152D01*
X121774294Y-62889336D01*
X121772039Y-62891592D01*
X121771919Y-62891472D01*
X121729221Y-62929874D01*
X121660258Y-62941093D01*
X121625200Y-62931330D01*
X121535948Y-62891592D01*
X121529803Y-62888856D01*
X121529802Y-62888855D01*
X121529798Y-62888854D01*
X121344648Y-62849500D01*
X121344646Y-62849500D01*
X121155354Y-62849500D01*
X121155352Y-62849500D01*
X120970197Y-62888855D01*
X120797269Y-62965848D01*
X120644129Y-63077110D01*
X120517466Y-63217783D01*
X120422820Y-63381715D01*
X120364326Y-63561742D01*
X120344540Y-63750000D01*
X117915356Y-63750000D01*
X117968345Y-63717316D01*
X118092316Y-63593345D01*
X118184357Y-63444122D01*
X118239506Y-63277696D01*
X118249680Y-63178109D01*
X118250000Y-63171831D01*
X118250000Y-62750000D01*
X117350000Y-62750000D01*
X116850000Y-62750000D01*
X115950001Y-62750000D01*
X115150500Y-62750000D01*
X115150499Y-62250000D01*
X115950000Y-62250000D01*
X116850000Y-62250000D01*
X116850000Y-61125000D01*
X117350000Y-61125000D01*
X117350000Y-62250000D01*
X118249999Y-62250000D01*
X118249999Y-61828170D01*
X118249678Y-61821888D01*
X118239506Y-61722304D01*
X118184357Y-61555877D01*
X118092316Y-61406654D01*
X117968345Y-61282683D01*
X117819122Y-61190642D01*
X117652696Y-61135493D01*
X117553109Y-61125319D01*
X117546832Y-61125000D01*
X117350000Y-61125000D01*
X116850000Y-61125000D01*
X116653171Y-61125000D01*
X116646888Y-61125321D01*
X116547304Y-61135493D01*
X116380877Y-61190642D01*
X116231654Y-61282683D01*
X116107683Y-61406654D01*
X116015642Y-61555877D01*
X115960493Y-61722303D01*
X115950319Y-61821890D01*
X115950000Y-61828168D01*
X115950000Y-62250000D01*
X115150499Y-62250000D01*
X115150499Y-61824992D01*
X115139999Y-61722203D01*
X115084814Y-61555666D01*
X114992712Y-61406344D01*
X114992711Y-61406342D01*
X114868657Y-61282288D01*
X114719334Y-61190186D01*
X114552797Y-61135000D01*
X114453141Y-61124819D01*
X114453122Y-61124818D01*
X114450009Y-61124500D01*
X114446860Y-61124500D01*
X113553141Y-61124500D01*
X113553121Y-61124500D01*
X113549992Y-61124501D01*
X113546860Y-61124820D01*
X113546858Y-61124821D01*
X113447203Y-61135000D01*
X113403233Y-61149571D01*
X113333404Y-61151973D01*
X113273362Y-61116241D01*
X113242170Y-61053720D01*
X113240871Y-61019263D01*
X113249321Y-60936546D01*
X113250500Y-60925009D01*
X113250500Y-60500000D01*
X127844540Y-60500000D01*
X127864326Y-60688257D01*
X127922820Y-60868284D01*
X128017466Y-61032216D01*
X128144129Y-61172889D01*
X128297269Y-61284151D01*
X128470197Y-61361144D01*
X128655352Y-61400500D01*
X128655354Y-61400500D01*
X128844648Y-61400500D01*
X128968083Y-61374262D01*
X129029803Y-61361144D01*
X129202730Y-61284151D01*
X129286105Y-61223575D01*
X129351907Y-61200096D01*
X129419961Y-61215921D01*
X129464527Y-61258798D01*
X129532288Y-61368657D01*
X129656342Y-61492711D01*
X129674238Y-61503749D01*
X129805666Y-61584814D01*
X129896758Y-61614999D01*
X129972202Y-61639999D01*
X130071858Y-61650180D01*
X130071859Y-61650180D01*
X130074991Y-61650500D01*
X131425008Y-61650499D01*
X131527797Y-61639999D01*
X131694334Y-61584814D01*
X131843656Y-61492712D01*
X131967712Y-61368656D01*
X132059814Y-61219334D01*
X132114999Y-61052797D01*
X132125500Y-60950009D01*
X132125499Y-60049992D01*
X132114999Y-59947203D01*
X132059814Y-59780666D01*
X132002592Y-59687895D01*
X131967711Y-59631342D01*
X131843657Y-59507288D01*
X131694334Y-59415186D01*
X131527797Y-59360000D01*
X131428141Y-59349819D01*
X131428122Y-59349818D01*
X131425009Y-59349500D01*
X131421860Y-59349500D01*
X130078140Y-59349500D01*
X130078120Y-59349500D01*
X130074992Y-59349501D01*
X130071860Y-59349820D01*
X130071858Y-59349821D01*
X129972203Y-59360000D01*
X129805665Y-59415186D01*
X129656342Y-59507288D01*
X129532289Y-59631341D01*
X129464527Y-59741202D01*
X129412579Y-59787926D01*
X129343616Y-59799149D01*
X129286104Y-59776424D01*
X129237626Y-59741202D01*
X129202727Y-59715846D01*
X129029802Y-59638855D01*
X128844648Y-59599500D01*
X128844646Y-59599500D01*
X128655354Y-59599500D01*
X128655352Y-59599500D01*
X128470197Y-59638855D01*
X128297269Y-59715848D01*
X128144129Y-59827110D01*
X128017466Y-59967783D01*
X127922820Y-60131715D01*
X127864326Y-60311742D01*
X127844540Y-60500000D01*
X113250500Y-60500000D01*
X113250499Y-59574992D01*
X113239999Y-59472203D01*
X113184814Y-59305666D01*
X113095730Y-59161237D01*
X113092711Y-59156342D01*
X112968657Y-59032288D01*
X112819334Y-58940186D01*
X112652797Y-58885000D01*
X112553141Y-58874819D01*
X112553122Y-58874818D01*
X112550009Y-58874500D01*
X112546860Y-58874500D01*
X111660453Y-58874500D01*
X111593414Y-58854815D01*
X111572772Y-58838181D01*
X111564812Y-58830221D01*
X111531327Y-58768898D01*
X111536311Y-58699206D01*
X111578183Y-58643273D01*
X111612228Y-58625259D01*
X111643545Y-58614509D01*
X111853469Y-58500903D01*
X112041832Y-58354295D01*
X112203494Y-58178682D01*
X112229192Y-58139348D01*
X112282337Y-58093992D01*
X112351568Y-58084568D01*
X112414904Y-58114069D01*
X112436807Y-58139346D01*
X112462506Y-58178682D01*
X112624168Y-58354295D01*
X112812531Y-58500903D01*
X113022455Y-58614509D01*
X113022458Y-58614510D01*
X113022460Y-58614511D01*
X113248211Y-58692011D01*
X113248215Y-58692011D01*
X113248216Y-58692012D01*
X113483653Y-58731300D01*
X113483654Y-58731300D01*
X113722346Y-58731300D01*
X113722347Y-58731300D01*
X113957784Y-58692012D01*
X113957785Y-58692011D01*
X113957788Y-58692011D01*
X114183539Y-58614511D01*
X114183538Y-58614511D01*
X114183545Y-58614509D01*
X114393469Y-58500903D01*
X114581832Y-58354295D01*
X114743494Y-58178682D01*
X114769191Y-58139349D01*
X114822334Y-58093993D01*
X114891565Y-58084568D01*
X114954902Y-58114068D01*
X114976807Y-58139348D01*
X115002503Y-58178678D01*
X115002506Y-58178682D01*
X115164168Y-58354295D01*
X115352531Y-58500903D01*
X115562455Y-58614509D01*
X115562458Y-58614510D01*
X115562460Y-58614511D01*
X115788211Y-58692011D01*
X115788215Y-58692011D01*
X115788216Y-58692012D01*
X116023653Y-58731300D01*
X116023654Y-58731300D01*
X116262346Y-58731300D01*
X116262347Y-58731300D01*
X116497784Y-58692012D01*
X116497785Y-58692011D01*
X116497788Y-58692011D01*
X116723539Y-58614511D01*
X116723538Y-58614511D01*
X116723545Y-58614509D01*
X116933469Y-58500903D01*
X117121832Y-58354295D01*
X117283494Y-58178682D01*
X117309191Y-58139349D01*
X117362334Y-58093993D01*
X117431565Y-58084568D01*
X117494902Y-58114068D01*
X117516807Y-58139348D01*
X117542503Y-58178678D01*
X117542506Y-58178682D01*
X117704168Y-58354295D01*
X117892531Y-58500903D01*
X118102455Y-58614509D01*
X118102458Y-58614510D01*
X118102460Y-58614511D01*
X118328211Y-58692011D01*
X118328215Y-58692011D01*
X118328216Y-58692012D01*
X118563653Y-58731300D01*
X118563654Y-58731300D01*
X118802346Y-58731300D01*
X118802347Y-58731300D01*
X119037784Y-58692012D01*
X119037785Y-58692011D01*
X119037788Y-58692011D01*
X119263539Y-58614511D01*
X119263538Y-58614511D01*
X119263545Y-58614509D01*
X119473469Y-58500903D01*
X119661832Y-58354295D01*
X119823494Y-58178682D01*
X119849191Y-58139349D01*
X119902334Y-58093993D01*
X119971565Y-58084568D01*
X120034902Y-58114068D01*
X120056807Y-58139348D01*
X120082503Y-58178678D01*
X120082506Y-58178682D01*
X120244168Y-58354295D01*
X120432531Y-58500903D01*
X120642455Y-58614509D01*
X120642458Y-58614510D01*
X120642460Y-58614511D01*
X120868211Y-58692011D01*
X120868215Y-58692011D01*
X120868216Y-58692012D01*
X121103653Y-58731300D01*
X121103654Y-58731300D01*
X121342346Y-58731300D01*
X121342347Y-58731300D01*
X121577784Y-58692012D01*
X121577785Y-58692011D01*
X121577788Y-58692011D01*
X121803539Y-58614511D01*
X121803538Y-58614511D01*
X121803545Y-58614509D01*
X122013469Y-58500903D01*
X122201832Y-58354295D01*
X122363494Y-58178682D01*
X122389192Y-58139348D01*
X122442337Y-58093992D01*
X122511568Y-58084568D01*
X122574904Y-58114069D01*
X122596807Y-58139346D01*
X122622506Y-58178682D01*
X122784168Y-58354295D01*
X122972531Y-58500903D01*
X123182455Y-58614509D01*
X123182458Y-58614510D01*
X123182460Y-58614511D01*
X123408211Y-58692011D01*
X123408215Y-58692011D01*
X123408216Y-58692012D01*
X123643653Y-58731300D01*
X123643654Y-58731300D01*
X123882346Y-58731300D01*
X123882347Y-58731300D01*
X124117784Y-58692012D01*
X124117785Y-58692011D01*
X124117788Y-58692011D01*
X124343539Y-58614511D01*
X124343538Y-58614511D01*
X124343545Y-58614509D01*
X124553469Y-58500903D01*
X124741832Y-58354295D01*
X124903494Y-58178682D01*
X124929192Y-58139348D01*
X124982337Y-58093992D01*
X125051568Y-58084568D01*
X125114904Y-58114069D01*
X125136807Y-58139346D01*
X125162506Y-58178682D01*
X125324168Y-58354295D01*
X125512531Y-58500903D01*
X125722455Y-58614509D01*
X125722458Y-58614510D01*
X125722460Y-58614511D01*
X125948211Y-58692011D01*
X125948215Y-58692011D01*
X125948216Y-58692012D01*
X126183653Y-58731300D01*
X126183654Y-58731300D01*
X126422346Y-58731300D01*
X126422347Y-58731300D01*
X126657784Y-58692012D01*
X126657785Y-58692011D01*
X126657788Y-58692011D01*
X126883539Y-58614511D01*
X126883538Y-58614511D01*
X126883545Y-58614509D01*
X127093469Y-58500903D01*
X127281832Y-58354295D01*
X127443494Y-58178682D01*
X127469191Y-58139348D01*
X127522334Y-58093993D01*
X127591565Y-58084568D01*
X127654902Y-58114068D01*
X127676807Y-58139348D01*
X127702503Y-58178678D01*
X127702506Y-58178682D01*
X127864168Y-58354295D01*
X128052531Y-58500903D01*
X128262455Y-58614509D01*
X128262458Y-58614510D01*
X128262460Y-58614511D01*
X128488211Y-58692011D01*
X128488215Y-58692011D01*
X128488216Y-58692012D01*
X128723653Y-58731300D01*
X128723654Y-58731300D01*
X128962346Y-58731300D01*
X128962347Y-58731300D01*
X129197784Y-58692012D01*
X129197785Y-58692011D01*
X129197788Y-58692011D01*
X129423539Y-58614511D01*
X129423538Y-58614511D01*
X129423545Y-58614509D01*
X129633469Y-58500903D01*
X129821832Y-58354295D01*
X129983494Y-58178682D01*
X130009490Y-58138892D01*
X130062635Y-58093536D01*
X130131866Y-58084112D01*
X130195202Y-58113613D01*
X130198021Y-58116867D01*
X130203057Y-58117389D01*
X130893477Y-57426969D01*
X130916155Y-57504201D01*
X130995131Y-57627090D01*
X131105530Y-57722752D01*
X131238408Y-57783435D01*
X131243399Y-57784152D01*
X130555839Y-58471711D01*
X130555840Y-58471712D01*
X130592804Y-58500483D01*
X130802658Y-58614050D01*
X131028336Y-58691525D01*
X131263696Y-58730800D01*
X131502304Y-58730800D01*
X131737663Y-58691525D01*
X131963342Y-58614050D01*
X132173193Y-58500485D01*
X132210158Y-58471712D01*
X132210158Y-58471711D01*
X131522599Y-57784152D01*
X131527592Y-57783435D01*
X131660470Y-57722752D01*
X131770869Y-57627090D01*
X131849845Y-57504201D01*
X131872521Y-57426969D01*
X132562941Y-58117389D01*
X132575629Y-58116073D01*
X132602037Y-58093536D01*
X132671268Y-58084111D01*
X132734604Y-58113612D01*
X132756509Y-58138891D01*
X132782506Y-58178682D01*
X132944168Y-58354295D01*
X133132531Y-58500903D01*
X133342455Y-58614509D01*
X133342458Y-58614510D01*
X133342460Y-58614511D01*
X133568211Y-58692011D01*
X133568215Y-58692011D01*
X133568216Y-58692012D01*
X133803653Y-58731300D01*
X133803654Y-58731300D01*
X134042346Y-58731300D01*
X134042347Y-58731300D01*
X134277784Y-58692012D01*
X134277785Y-58692011D01*
X134277788Y-58692011D01*
X134503539Y-58614511D01*
X134503538Y-58614511D01*
X134503545Y-58614509D01*
X134713469Y-58500903D01*
X134901832Y-58354295D01*
X135063494Y-58178682D01*
X135194047Y-57978856D01*
X135289929Y-57760267D01*
X135348525Y-57528878D01*
X135368236Y-57291000D01*
X135365279Y-57255315D01*
X135379359Y-57186880D01*
X135428204Y-57136920D01*
X135496305Y-57121299D01*
X135562040Y-57144976D01*
X135564977Y-57147191D01*
X135672531Y-57230903D01*
X135882455Y-57344509D01*
X135882458Y-57344510D01*
X135882460Y-57344511D01*
X136108211Y-57422011D01*
X136108215Y-57422011D01*
X136108216Y-57422012D01*
X136343653Y-57461300D01*
X136343654Y-57461300D01*
X136582346Y-57461300D01*
X136582347Y-57461300D01*
X136817784Y-57422012D01*
X136817785Y-57422011D01*
X136817788Y-57422011D01*
X137043539Y-57344511D01*
X137043538Y-57344511D01*
X137043545Y-57344509D01*
X137253469Y-57230903D01*
X137441832Y-57084295D01*
X137603494Y-56908682D01*
X137734047Y-56708856D01*
X137829929Y-56490267D01*
X137888525Y-56258878D01*
X137908236Y-56021000D01*
X137888525Y-55783122D01*
X137829929Y-55551733D01*
X137734047Y-55333144D01*
X137603494Y-55133318D01*
X137441832Y-54957705D01*
X137301976Y-54848851D01*
X137261165Y-54792144D01*
X137257490Y-54722371D01*
X137292121Y-54661687D01*
X137301965Y-54653157D01*
X137441832Y-54544295D01*
X137603494Y-54368682D01*
X137734047Y-54168856D01*
X137829929Y-53950267D01*
X137888525Y-53718878D01*
X137908236Y-53481000D01*
X137888525Y-53243122D01*
X137829929Y-53011733D01*
X137734047Y-52793144D01*
X137603494Y-52593318D01*
X137441832Y-52417705D01*
X137301976Y-52308851D01*
X137261165Y-52252144D01*
X137257490Y-52182371D01*
X137292121Y-52121687D01*
X137301965Y-52113157D01*
X137441832Y-52004295D01*
X137603494Y-51828682D01*
X137734047Y-51628856D01*
X137829929Y-51410267D01*
X137888525Y-51178878D01*
X137908236Y-50941000D01*
X137888525Y-50703122D01*
X137829929Y-50471733D01*
X137734047Y-50253144D01*
X137603494Y-50053318D01*
X137441832Y-49877705D01*
X137301976Y-49768851D01*
X137261165Y-49712144D01*
X137257490Y-49642371D01*
X137292121Y-49581687D01*
X137301965Y-49573157D01*
X137441832Y-49464295D01*
X137603494Y-49288682D01*
X137734047Y-49088856D01*
X137829929Y-48870267D01*
X137888525Y-48638878D01*
X137908236Y-48401000D01*
X137888525Y-48163122D01*
X137829929Y-47931733D01*
X137734047Y-47713144D01*
X137603494Y-47513318D01*
X137441832Y-47337705D01*
X137441830Y-47337704D01*
X137441828Y-47337701D01*
X137301571Y-47228535D01*
X137260758Y-47171825D01*
X137257083Y-47102052D01*
X137289992Y-47044387D01*
X137290158Y-47041711D01*
X136602599Y-46354152D01*
X136607592Y-46353435D01*
X136740470Y-46292752D01*
X136850869Y-46197090D01*
X136929845Y-46074201D01*
X136952522Y-45996969D01*
X137642941Y-46687389D01*
X137733605Y-46548619D01*
X137829453Y-46330108D01*
X137888031Y-46098790D01*
X137907735Y-45860999D01*
X137888031Y-45623209D01*
X137829453Y-45391891D01*
X137733605Y-45173380D01*
X137642941Y-45034609D01*
X136952521Y-45725029D01*
X136929845Y-45647799D01*
X136850869Y-45524910D01*
X136740470Y-45429248D01*
X136607592Y-45368565D01*
X136602598Y-45367847D01*
X137290159Y-44680287D01*
X137289702Y-44672926D01*
X137260350Y-44632140D01*
X137256677Y-44562367D01*
X137290020Y-44503942D01*
X137290158Y-44501711D01*
X136602599Y-43814152D01*
X136607592Y-43813435D01*
X136740470Y-43752752D01*
X136850869Y-43657090D01*
X136929845Y-43534201D01*
X136952522Y-43456969D01*
X137642941Y-44147389D01*
X137733605Y-44008619D01*
X137829453Y-43790108D01*
X137888031Y-43558790D01*
X137907735Y-43320999D01*
X137888031Y-43083209D01*
X137829453Y-42851891D01*
X137733605Y-42633380D01*
X137642941Y-42494609D01*
X136952521Y-43185029D01*
X136929845Y-43107799D01*
X136850869Y-42984910D01*
X136740470Y-42889248D01*
X136607592Y-42828565D01*
X136602598Y-42827847D01*
X137290159Y-42140287D01*
X137290158Y-42140286D01*
X137253195Y-42111516D01*
X137043341Y-41997949D01*
X136817663Y-41920474D01*
X136582304Y-41881200D01*
X136343696Y-41881200D01*
X136108336Y-41920474D01*
X135882660Y-41997948D01*
X135672803Y-42111517D01*
X135564961Y-42195454D01*
X135499967Y-42221096D01*
X135431427Y-42207529D01*
X135381102Y-42159061D01*
X135364971Y-42091079D01*
X135365223Y-42087359D01*
X135368236Y-42050998D01*
X135350570Y-41837799D01*
X135348525Y-41813122D01*
X135289929Y-41581733D01*
X135194047Y-41363144D01*
X135063494Y-41163318D01*
X134901832Y-40987705D01*
X134713469Y-40841097D01*
X134503545Y-40727491D01*
X134503543Y-40727490D01*
X134503539Y-40727488D01*
X134277788Y-40649988D01*
X134089434Y-40618557D01*
X134042347Y-40610700D01*
X133803653Y-40610700D01*
X133764413Y-40617248D01*
X133568211Y-40649988D01*
X133342460Y-40727488D01*
X133132529Y-40841098D01*
X132944167Y-40987705D01*
X132782505Y-41163318D01*
X132756808Y-41202651D01*
X132703661Y-41248007D01*
X132634430Y-41257430D01*
X132571094Y-41227927D01*
X132549192Y-41202651D01*
X132523494Y-41163318D01*
X132361832Y-40987705D01*
X132296302Y-40936701D01*
X132173469Y-40841097D01*
X131963545Y-40727491D01*
X131963543Y-40727490D01*
X131963539Y-40727488D01*
X131737788Y-40649988D01*
X131549434Y-40618557D01*
X131502347Y-40610700D01*
X131263653Y-40610700D01*
X131224413Y-40617248D01*
X131028211Y-40649988D01*
X130802460Y-40727488D01*
X130592529Y-40841098D01*
X130404167Y-40987705D01*
X130242503Y-41163320D01*
X130216806Y-41202652D01*
X130163658Y-41248008D01*
X130094427Y-41257429D01*
X130031092Y-41227926D01*
X130009190Y-41202649D01*
X129992385Y-41176927D01*
X129983494Y-41163318D01*
X129821832Y-40987705D01*
X129633469Y-40841097D01*
X129423545Y-40727491D01*
X129423543Y-40727490D01*
X129423539Y-40727488D01*
X129197788Y-40649988D01*
X129009434Y-40618557D01*
X128962347Y-40610700D01*
X128723653Y-40610700D01*
X128684413Y-40617248D01*
X128488211Y-40649988D01*
X128262460Y-40727488D01*
X128052529Y-40841098D01*
X127864167Y-40987705D01*
X127702501Y-41163322D01*
X127676508Y-41203108D01*
X127623361Y-41248464D01*
X127554130Y-41257886D01*
X127490795Y-41228384D01*
X127487976Y-41225131D01*
X127482941Y-41224609D01*
X126792521Y-41915029D01*
X126769845Y-41837799D01*
X126690869Y-41714910D01*
X126580470Y-41619248D01*
X126447592Y-41558565D01*
X126442598Y-41557847D01*
X127130159Y-40870287D01*
X127130158Y-40870286D01*
X127093195Y-40841516D01*
X126883341Y-40727949D01*
X126657663Y-40650474D01*
X126422304Y-40611200D01*
X126183696Y-40611200D01*
X125948336Y-40650474D01*
X125722660Y-40727948D01*
X125512803Y-40841517D01*
X125475840Y-40870287D01*
X126163400Y-41557847D01*
X126158408Y-41558565D01*
X126025530Y-41619248D01*
X125915131Y-41714910D01*
X125836155Y-41837799D01*
X125813478Y-41915029D01*
X125123057Y-41224609D01*
X125110367Y-41225925D01*
X125083956Y-41248465D01*
X125014725Y-41257886D01*
X124951390Y-41228383D01*
X124929488Y-41203105D01*
X124929191Y-41202651D01*
X124903494Y-41163318D01*
X124741832Y-40987705D01*
X124553469Y-40841097D01*
X124343545Y-40727491D01*
X124343543Y-40727490D01*
X124343539Y-40727488D01*
X124117788Y-40649988D01*
X123929434Y-40618557D01*
X123882347Y-40610700D01*
X123643653Y-40610700D01*
X123604413Y-40617248D01*
X123408211Y-40649988D01*
X123182460Y-40727488D01*
X122972529Y-40841098D01*
X122784167Y-40987705D01*
X122622505Y-41163318D01*
X122596808Y-41202651D01*
X122543661Y-41248007D01*
X122474430Y-41257430D01*
X122411094Y-41227927D01*
X122389192Y-41202651D01*
X122363494Y-41163318D01*
X122201832Y-40987705D01*
X122136302Y-40936701D01*
X122013469Y-40841097D01*
X121803545Y-40727491D01*
X121803543Y-40727490D01*
X121803539Y-40727488D01*
X121577788Y-40649988D01*
X121389434Y-40618557D01*
X121342347Y-40610700D01*
X121103653Y-40610700D01*
X121064413Y-40617248D01*
X120868211Y-40649988D01*
X120642460Y-40727488D01*
X120432529Y-40841098D01*
X120244167Y-40987705D01*
X120082501Y-41163322D01*
X120056806Y-41202652D01*
X120003659Y-41248008D01*
X119934428Y-41257430D01*
X119871093Y-41227928D01*
X119849190Y-41202649D01*
X119823496Y-41163321D01*
X119823495Y-41163320D01*
X119823494Y-41163318D01*
X119661832Y-40987705D01*
X119473469Y-40841097D01*
X119263545Y-40727491D01*
X119263543Y-40727490D01*
X119263539Y-40727488D01*
X119037788Y-40649988D01*
X118849434Y-40618557D01*
X118802347Y-40610700D01*
X118563653Y-40610700D01*
X118524413Y-40617248D01*
X118328211Y-40649988D01*
X118102460Y-40727488D01*
X117892529Y-40841098D01*
X117704167Y-40987705D01*
X117542501Y-41163322D01*
X117516806Y-41202652D01*
X117463659Y-41248008D01*
X117394428Y-41257430D01*
X117331093Y-41227928D01*
X117309190Y-41202649D01*
X117283496Y-41163321D01*
X117283495Y-41163320D01*
X117283494Y-41163318D01*
X117121832Y-40987705D01*
X116933469Y-40841097D01*
X116723545Y-40727491D01*
X116723543Y-40727490D01*
X116723539Y-40727488D01*
X116497788Y-40649988D01*
X116309434Y-40618557D01*
X116262347Y-40610700D01*
X116023653Y-40610700D01*
X115984413Y-40617248D01*
X115788211Y-40649988D01*
X115562460Y-40727488D01*
X115352529Y-40841098D01*
X115164167Y-40987705D01*
X115002503Y-41163320D01*
X114976806Y-41202652D01*
X114923658Y-41248008D01*
X114854427Y-41257429D01*
X114791092Y-41227926D01*
X114769190Y-41202649D01*
X114752385Y-41176927D01*
X114743494Y-41163318D01*
X114581832Y-40987705D01*
X114393469Y-40841097D01*
X114183545Y-40727491D01*
X114183543Y-40727490D01*
X114183539Y-40727488D01*
X113957788Y-40649988D01*
X113769434Y-40618557D01*
X113722347Y-40610700D01*
X113483653Y-40610700D01*
X113444413Y-40617248D01*
X113248211Y-40649988D01*
X113022460Y-40727488D01*
X112812529Y-40841098D01*
X112624167Y-40987705D01*
X112462505Y-41163318D01*
X112436808Y-41202651D01*
X112383661Y-41248007D01*
X112314430Y-41257430D01*
X112251094Y-41227927D01*
X112229192Y-41202651D01*
X112203494Y-41163318D01*
X112041832Y-40987705D01*
X111976302Y-40936701D01*
X111853469Y-40841097D01*
X111643545Y-40727491D01*
X111643543Y-40727490D01*
X111643539Y-40727488D01*
X111417788Y-40649988D01*
X111229434Y-40618557D01*
X111182347Y-40610700D01*
X110943653Y-40610700D01*
X110904413Y-40617248D01*
X110708211Y-40649988D01*
X110482460Y-40727488D01*
X110272529Y-40841098D01*
X110084167Y-40987705D01*
X109922503Y-41163320D01*
X109896806Y-41202652D01*
X109843658Y-41248008D01*
X109774427Y-41257429D01*
X109711092Y-41227926D01*
X109689190Y-41202649D01*
X109672385Y-41176927D01*
X109663494Y-41163318D01*
X109501832Y-40987705D01*
X109313469Y-40841097D01*
X109103545Y-40727491D01*
X109103543Y-40727490D01*
X109103539Y-40727488D01*
X108877788Y-40649988D01*
X108689434Y-40618557D01*
X108642347Y-40610700D01*
X108403653Y-40610700D01*
X108364413Y-40617248D01*
X108168211Y-40649988D01*
X107942460Y-40727488D01*
X107732529Y-40841098D01*
X107544167Y-40987705D01*
X107382505Y-41163318D01*
X107356808Y-41202651D01*
X107303661Y-41248007D01*
X107234430Y-41257430D01*
X107171094Y-41227927D01*
X107149192Y-41202651D01*
X107123494Y-41163318D01*
X106961832Y-40987705D01*
X106896302Y-40936701D01*
X106773469Y-40841097D01*
X106563545Y-40727491D01*
X106563543Y-40727490D01*
X106563539Y-40727488D01*
X106337788Y-40649988D01*
X106149434Y-40618557D01*
X106102347Y-40610700D01*
X105863653Y-40610700D01*
X105824413Y-40617248D01*
X105628211Y-40649988D01*
X105402460Y-40727488D01*
X105192529Y-40841098D01*
X105004167Y-40987705D01*
X104842507Y-41163316D01*
X104801603Y-41225925D01*
X104713001Y-41361541D01*
X104711952Y-41363146D01*
X104616071Y-41581731D01*
X104557474Y-41813126D01*
X104537763Y-42051000D01*
X104557474Y-42288873D01*
X104616071Y-42520268D01*
X104665687Y-42633380D01*
X104711953Y-42738856D01*
X104842505Y-42938680D01*
X104842507Y-42938683D01*
X104975551Y-43083209D01*
X105004168Y-43114295D01*
X105192531Y-43260903D01*
X105402455Y-43374509D01*
X105402458Y-43374510D01*
X105402460Y-43374511D01*
X105628211Y-43452011D01*
X105628215Y-43452011D01*
X105628216Y-43452012D01*
X105863653Y-43491300D01*
X105863654Y-43491300D01*
X106102346Y-43491300D01*
X106102347Y-43491300D01*
X106337784Y-43452012D01*
X106337785Y-43452011D01*
X106337788Y-43452011D01*
X106563539Y-43374511D01*
X106563538Y-43374511D01*
X106563545Y-43374509D01*
X106773469Y-43260903D01*
X106961832Y-43114295D01*
X107123494Y-42938682D01*
X107149191Y-42899348D01*
X107202334Y-42853993D01*
X107271565Y-42844568D01*
X107334902Y-42874068D01*
X107356807Y-42899348D01*
X107382503Y-42938678D01*
X107382506Y-42938682D01*
X107544168Y-43114295D01*
X107732531Y-43260903D01*
X107942455Y-43374509D01*
X107942458Y-43374510D01*
X107942460Y-43374511D01*
X108168211Y-43452011D01*
X108168215Y-43452011D01*
X108168216Y-43452012D01*
X108403653Y-43491300D01*
X108403654Y-43491300D01*
X108642346Y-43491300D01*
X108642347Y-43491300D01*
X108877784Y-43452012D01*
X108877785Y-43452011D01*
X108877788Y-43452011D01*
X109103539Y-43374511D01*
X109103538Y-43374511D01*
X109103545Y-43374509D01*
X109313469Y-43260903D01*
X109501832Y-43114295D01*
X109663494Y-42938682D01*
X109689191Y-42899348D01*
X109742334Y-42853993D01*
X109811565Y-42844568D01*
X109874902Y-42874068D01*
X109896807Y-42899348D01*
X109922503Y-42938678D01*
X109922506Y-42938682D01*
X110084168Y-43114295D01*
X110272531Y-43260903D01*
X110482455Y-43374509D01*
X110482458Y-43374510D01*
X110482460Y-43374511D01*
X110708211Y-43452011D01*
X110708215Y-43452011D01*
X110708216Y-43452012D01*
X110943653Y-43491300D01*
X110943654Y-43491300D01*
X111182346Y-43491300D01*
X111182347Y-43491300D01*
X111417784Y-43452012D01*
X111417785Y-43452011D01*
X111417788Y-43452011D01*
X111643539Y-43374511D01*
X111643538Y-43374511D01*
X111643545Y-43374509D01*
X111853469Y-43260903D01*
X112041832Y-43114295D01*
X112203494Y-42938682D01*
X112229191Y-42899348D01*
X112282334Y-42853993D01*
X112351565Y-42844568D01*
X112414902Y-42874068D01*
X112436807Y-42899348D01*
X112462503Y-42938678D01*
X112462506Y-42938682D01*
X112624168Y-43114295D01*
X112812531Y-43260903D01*
X113022455Y-43374509D01*
X113022458Y-43374510D01*
X113022460Y-43374511D01*
X113248211Y-43452011D01*
X113248215Y-43452011D01*
X113248216Y-43452012D01*
X113483653Y-43491300D01*
X113483654Y-43491300D01*
X113722346Y-43491300D01*
X113722347Y-43491300D01*
X113957784Y-43452012D01*
X113957785Y-43452011D01*
X113957788Y-43452011D01*
X114183539Y-43374511D01*
X114183538Y-43374511D01*
X114183545Y-43374509D01*
X114393469Y-43260903D01*
X114581832Y-43114295D01*
X114743494Y-42938682D01*
X114769192Y-42899348D01*
X114822337Y-42853992D01*
X114891568Y-42844568D01*
X114954904Y-42874069D01*
X114976807Y-42899346D01*
X115002506Y-42938682D01*
X115164168Y-43114295D01*
X115352531Y-43260903D01*
X115562455Y-43374509D01*
X115562458Y-43374510D01*
X115562460Y-43374511D01*
X115788211Y-43452011D01*
X115788215Y-43452011D01*
X115788216Y-43452012D01*
X116023653Y-43491300D01*
X116023654Y-43491300D01*
X116262346Y-43491300D01*
X116262347Y-43491300D01*
X116497784Y-43452012D01*
X116497785Y-43452011D01*
X116497788Y-43452011D01*
X116723539Y-43374511D01*
X116723538Y-43374511D01*
X116723545Y-43374509D01*
X116933469Y-43260903D01*
X117121832Y-43114295D01*
X117283494Y-42938682D01*
X117309191Y-42899349D01*
X117362334Y-42853993D01*
X117431565Y-42844568D01*
X117494902Y-42874068D01*
X117516807Y-42899348D01*
X117542503Y-42938678D01*
X117542506Y-42938682D01*
X117704168Y-43114295D01*
X117892531Y-43260903D01*
X118102455Y-43374509D01*
X118102458Y-43374510D01*
X118102460Y-43374511D01*
X118328211Y-43452011D01*
X118328215Y-43452011D01*
X118328216Y-43452012D01*
X118563653Y-43491300D01*
X118563654Y-43491300D01*
X118802346Y-43491300D01*
X118802347Y-43491300D01*
X119037784Y-43452012D01*
X119037785Y-43452011D01*
X119037788Y-43452011D01*
X119263539Y-43374511D01*
X119263538Y-43374511D01*
X119263545Y-43374509D01*
X119473469Y-43260903D01*
X119661832Y-43114295D01*
X119823494Y-42938682D01*
X119849191Y-42899349D01*
X119902334Y-42853993D01*
X119971565Y-42844568D01*
X120034902Y-42874068D01*
X120056807Y-42899348D01*
X120082503Y-42938678D01*
X120082506Y-42938682D01*
X120244168Y-43114295D01*
X120432531Y-43260903D01*
X120642455Y-43374509D01*
X120642458Y-43374510D01*
X120642460Y-43374511D01*
X120868211Y-43452011D01*
X120868215Y-43452011D01*
X120868216Y-43452012D01*
X121103653Y-43491300D01*
X121103654Y-43491300D01*
X121342346Y-43491300D01*
X121342347Y-43491300D01*
X121577784Y-43452012D01*
X121577785Y-43452011D01*
X121577788Y-43452011D01*
X121803539Y-43374511D01*
X121803538Y-43374511D01*
X121803545Y-43374509D01*
X122013469Y-43260903D01*
X122201832Y-43114295D01*
X122363494Y-42938682D01*
X122389192Y-42899348D01*
X122442337Y-42853992D01*
X122511568Y-42844568D01*
X122574904Y-42874069D01*
X122596807Y-42899346D01*
X122622506Y-42938682D01*
X122784168Y-43114295D01*
X122972531Y-43260903D01*
X123182455Y-43374509D01*
X123182458Y-43374510D01*
X123182460Y-43374511D01*
X123408211Y-43452011D01*
X123408215Y-43452011D01*
X123408216Y-43452012D01*
X123643653Y-43491300D01*
X123643654Y-43491300D01*
X123882346Y-43491300D01*
X123882347Y-43491300D01*
X124117784Y-43452012D01*
X124117785Y-43452011D01*
X124117788Y-43452011D01*
X124343539Y-43374511D01*
X124343538Y-43374511D01*
X124343545Y-43374509D01*
X124553469Y-43260903D01*
X124741832Y-43114295D01*
X124903494Y-42938682D01*
X124929490Y-42898892D01*
X124982635Y-42853536D01*
X125051866Y-42844112D01*
X125115202Y-42873613D01*
X125118021Y-42876867D01*
X125123057Y-42877389D01*
X125813477Y-42186968D01*
X125836155Y-42264201D01*
X125915131Y-42387090D01*
X126025530Y-42482752D01*
X126158408Y-42543435D01*
X126163399Y-42544152D01*
X125475839Y-43231711D01*
X125475840Y-43231712D01*
X125512804Y-43260483D01*
X125722658Y-43374050D01*
X125948336Y-43451525D01*
X126183696Y-43490800D01*
X126422304Y-43490800D01*
X126657663Y-43451525D01*
X126883342Y-43374050D01*
X127093193Y-43260485D01*
X127130158Y-43231712D01*
X127130158Y-43231711D01*
X126442599Y-42544152D01*
X126447592Y-42543435D01*
X126580470Y-42482752D01*
X126690869Y-42387090D01*
X126769845Y-42264201D01*
X126792521Y-42186969D01*
X127482941Y-42877389D01*
X127495629Y-42876073D01*
X127522037Y-42853536D01*
X127591268Y-42844111D01*
X127654604Y-42873612D01*
X127676509Y-42898891D01*
X127702506Y-42938682D01*
X127864168Y-43114295D01*
X128052531Y-43260903D01*
X128262455Y-43374509D01*
X128262458Y-43374510D01*
X128262460Y-43374511D01*
X128488211Y-43452011D01*
X128488215Y-43452011D01*
X128488216Y-43452012D01*
X128723653Y-43491300D01*
X128723654Y-43491300D01*
X128962346Y-43491300D01*
X128962347Y-43491300D01*
X129197784Y-43452012D01*
X129197785Y-43452011D01*
X129197788Y-43452011D01*
X129423539Y-43374511D01*
X129423538Y-43374511D01*
X129423545Y-43374509D01*
X129633469Y-43260903D01*
X129821832Y-43114295D01*
X129983494Y-42938682D01*
X130009191Y-42899348D01*
X130062334Y-42853993D01*
X130131565Y-42844568D01*
X130194902Y-42874068D01*
X130216807Y-42899348D01*
X130242503Y-42938678D01*
X130242506Y-42938682D01*
X130404168Y-43114295D01*
X130592531Y-43260903D01*
X130802455Y-43374509D01*
X130802458Y-43374510D01*
X130802460Y-43374511D01*
X131028211Y-43452011D01*
X131028215Y-43452011D01*
X131028216Y-43452012D01*
X131263653Y-43491300D01*
X131263654Y-43491300D01*
X131502346Y-43491300D01*
X131502347Y-43491300D01*
X131737784Y-43452012D01*
X131737785Y-43452011D01*
X131737788Y-43452011D01*
X131963539Y-43374511D01*
X131963538Y-43374511D01*
X131963545Y-43374509D01*
X132173469Y-43260903D01*
X132361832Y-43114295D01*
X132523494Y-42938682D01*
X132549191Y-42899348D01*
X132602334Y-42853993D01*
X132671565Y-42844568D01*
X132734902Y-42874068D01*
X132756807Y-42899348D01*
X132782503Y-42938678D01*
X132782506Y-42938682D01*
X132944168Y-43114295D01*
X133132531Y-43260903D01*
X133342455Y-43374509D01*
X133342458Y-43374510D01*
X133342460Y-43374511D01*
X133568211Y-43452011D01*
X133568215Y-43452011D01*
X133568216Y-43452012D01*
X133803653Y-43491300D01*
X133803654Y-43491300D01*
X134042346Y-43491300D01*
X134042347Y-43491300D01*
X134277784Y-43452012D01*
X134277785Y-43452011D01*
X134277788Y-43452011D01*
X134503539Y-43374511D01*
X134503538Y-43374511D01*
X134503545Y-43374509D01*
X134713469Y-43260903D01*
X134821517Y-43176805D01*
X134886511Y-43151163D01*
X134955051Y-43164729D01*
X135005375Y-43213198D01*
X135021507Y-43281180D01*
X135021256Y-43284896D01*
X135018264Y-43321003D01*
X135037968Y-43558790D01*
X135096546Y-43790108D01*
X135192393Y-44008620D01*
X135283056Y-44147389D01*
X135283057Y-44147389D01*
X135973477Y-43456968D01*
X135996155Y-43534201D01*
X136075131Y-43657090D01*
X136185530Y-43752752D01*
X136318408Y-43813435D01*
X136323399Y-43814152D01*
X135635839Y-44501711D01*
X135636296Y-44509072D01*
X135665648Y-44549857D01*
X135669321Y-44619630D01*
X135635979Y-44678052D01*
X135635840Y-44680287D01*
X136323400Y-45367847D01*
X136318408Y-45368565D01*
X136185530Y-45429248D01*
X136075131Y-45524910D01*
X135996155Y-45647799D01*
X135973478Y-45725029D01*
X135283057Y-45034610D01*
X135192391Y-45173384D01*
X135096546Y-45391891D01*
X135037968Y-45623209D01*
X135018264Y-45860999D01*
X135037968Y-46098790D01*
X135096546Y-46330108D01*
X135192393Y-46548620D01*
X135283056Y-46687389D01*
X135283057Y-46687389D01*
X135973477Y-45996968D01*
X135996155Y-46074201D01*
X136075131Y-46197090D01*
X136185530Y-46292752D01*
X136318408Y-46353435D01*
X136323399Y-46354152D01*
X135635839Y-47041711D01*
X135636313Y-47049344D01*
X135665242Y-47089541D01*
X135668915Y-47159314D01*
X135634283Y-47219997D01*
X135624428Y-47228536D01*
X135484171Y-47337701D01*
X135322507Y-47513316D01*
X135268481Y-47596009D01*
X135201327Y-47698797D01*
X135191952Y-47713146D01*
X135096071Y-47931731D01*
X135037474Y-48163126D01*
X135017763Y-48401000D01*
X135037474Y-48638873D01*
X135037474Y-48638876D01*
X135037475Y-48638878D01*
X135096071Y-48870267D01*
X135191953Y-49088856D01*
X135322506Y-49288682D01*
X135484168Y-49464295D01*
X135611900Y-49563712D01*
X135624021Y-49573146D01*
X135664834Y-49629857D01*
X135668509Y-49699630D01*
X135633878Y-49760313D01*
X135624025Y-49768850D01*
X135527913Y-49843657D01*
X135484168Y-49877705D01*
X135322507Y-50053316D01*
X135310959Y-50070992D01*
X135234347Y-50188256D01*
X135191952Y-50253146D01*
X135096071Y-50471731D01*
X135037474Y-50703126D01*
X135017763Y-50941000D01*
X135037474Y-51178873D01*
X135037474Y-51178876D01*
X135037475Y-51178878D01*
X135055907Y-51251665D01*
X135096071Y-51410268D01*
X135141446Y-51513711D01*
X135191953Y-51628856D01*
X135322506Y-51828682D01*
X135484168Y-52004295D01*
X135607006Y-52099903D01*
X135624021Y-52113146D01*
X135664834Y-52169857D01*
X135668509Y-52239630D01*
X135633878Y-52300313D01*
X135624025Y-52308850D01*
X135515650Y-52393202D01*
X135484168Y-52417705D01*
X135322507Y-52593316D01*
X135270520Y-52672888D01*
X135197829Y-52784151D01*
X135191952Y-52793146D01*
X135096071Y-53011731D01*
X135037474Y-53243126D01*
X135017763Y-53481000D01*
X135037474Y-53718873D01*
X135037474Y-53718876D01*
X135037475Y-53718878D01*
X135053853Y-53783553D01*
X135096071Y-53950268D01*
X135151709Y-54077110D01*
X135191953Y-54168856D01*
X135322506Y-54368682D01*
X135484168Y-54544295D01*
X135624023Y-54653148D01*
X135664834Y-54709855D01*
X135668509Y-54779628D01*
X135633878Y-54840312D01*
X135624022Y-54848852D01*
X135484168Y-54957704D01*
X135322507Y-55133316D01*
X135191952Y-55333146D01*
X135096071Y-55551731D01*
X135037474Y-55783126D01*
X135017763Y-56020994D01*
X135020721Y-56056685D01*
X135006639Y-56125121D01*
X134957793Y-56175080D01*
X134889692Y-56190700D01*
X134823957Y-56167022D01*
X134821012Y-56164801D01*
X134713469Y-56081097D01*
X134503545Y-55967491D01*
X134503543Y-55967490D01*
X134503539Y-55967488D01*
X134277788Y-55889988D01*
X134089434Y-55858557D01*
X134042347Y-55850700D01*
X133803653Y-55850700D01*
X133764413Y-55857248D01*
X133568211Y-55889988D01*
X133342460Y-55967488D01*
X133132529Y-56081098D01*
X132944167Y-56227705D01*
X132782501Y-56403322D01*
X132756508Y-56443108D01*
X132703361Y-56488464D01*
X132634130Y-56497886D01*
X132570795Y-56468384D01*
X132567976Y-56465131D01*
X132562941Y-56464609D01*
X131872521Y-57155029D01*
X131849845Y-57077799D01*
X131770869Y-56954910D01*
X131660470Y-56859248D01*
X131527592Y-56798565D01*
X131522600Y-56797847D01*
X132210159Y-56110288D01*
X132210158Y-56110286D01*
X132173195Y-56081516D01*
X131963341Y-55967949D01*
X131737663Y-55890474D01*
X131502304Y-55851200D01*
X131263696Y-55851200D01*
X131028336Y-55890474D01*
X130802660Y-55967948D01*
X130592803Y-56081517D01*
X130555840Y-56110287D01*
X131243400Y-56797847D01*
X131238408Y-56798565D01*
X131105530Y-56859248D01*
X130995131Y-56954910D01*
X130916155Y-57077799D01*
X130893478Y-57155030D01*
X130203057Y-56464609D01*
X130190367Y-56465925D01*
X130163956Y-56488465D01*
X130094725Y-56497886D01*
X130031390Y-56468383D01*
X130009488Y-56443105D01*
X130009191Y-56442651D01*
X129983494Y-56403318D01*
X129821832Y-56227705D01*
X129633469Y-56081097D01*
X129423545Y-55967491D01*
X129423543Y-55967490D01*
X129423539Y-55967488D01*
X129197788Y-55889988D01*
X129009434Y-55858557D01*
X128962347Y-55850700D01*
X128723653Y-55850700D01*
X128684413Y-55857248D01*
X128488211Y-55889988D01*
X128262460Y-55967488D01*
X128052529Y-56081098D01*
X127864167Y-56227705D01*
X127702505Y-56403318D01*
X127676808Y-56442651D01*
X127623661Y-56488007D01*
X127554430Y-56497430D01*
X127491094Y-56467927D01*
X127469192Y-56442651D01*
X127443494Y-56403318D01*
X127281832Y-56227705D01*
X127130974Y-56110288D01*
X127093469Y-56081097D01*
X126883545Y-55967491D01*
X126883543Y-55967490D01*
X126883539Y-55967488D01*
X126657788Y-55889988D01*
X126469434Y-55858557D01*
X126422347Y-55850700D01*
X126183653Y-55850700D01*
X126144413Y-55857248D01*
X125948211Y-55889988D01*
X125722460Y-55967488D01*
X125512529Y-56081098D01*
X125324167Y-56227705D01*
X125162505Y-56403318D01*
X125136808Y-56442651D01*
X125083661Y-56488007D01*
X125014430Y-56497430D01*
X124951094Y-56467927D01*
X124929192Y-56442651D01*
X124903494Y-56403318D01*
X124741832Y-56227705D01*
X124590974Y-56110288D01*
X124553469Y-56081097D01*
X124343545Y-55967491D01*
X124343543Y-55967490D01*
X124343539Y-55967488D01*
X124117788Y-55889988D01*
X123929434Y-55858557D01*
X123882347Y-55850700D01*
X123643653Y-55850700D01*
X123604413Y-55857248D01*
X123408211Y-55889988D01*
X123182460Y-55967488D01*
X122972529Y-56081098D01*
X122784167Y-56227705D01*
X122622505Y-56403318D01*
X122596808Y-56442651D01*
X122543661Y-56488007D01*
X122474430Y-56497430D01*
X122411094Y-56467927D01*
X122389192Y-56442651D01*
X122363494Y-56403318D01*
X122201832Y-56227705D01*
X122050974Y-56110288D01*
X122013469Y-56081097D01*
X121803545Y-55967491D01*
X121803543Y-55967490D01*
X121803539Y-55967488D01*
X121577788Y-55889988D01*
X121389434Y-55858557D01*
X121342347Y-55850700D01*
X121103653Y-55850700D01*
X121064413Y-55857248D01*
X120868211Y-55889988D01*
X120642460Y-55967488D01*
X120432529Y-56081098D01*
X120244167Y-56227705D01*
X120082501Y-56403322D01*
X120056806Y-56442652D01*
X120003659Y-56488008D01*
X119934428Y-56497430D01*
X119871093Y-56467928D01*
X119849190Y-56442649D01*
X119823496Y-56403321D01*
X119823495Y-56403320D01*
X119823494Y-56403318D01*
X119661832Y-56227705D01*
X119473469Y-56081097D01*
X119263545Y-55967491D01*
X119263543Y-55967490D01*
X119263539Y-55967488D01*
X119037788Y-55889988D01*
X118849434Y-55858557D01*
X118802347Y-55850700D01*
X118563653Y-55850700D01*
X118524413Y-55857248D01*
X118328211Y-55889988D01*
X118102460Y-55967488D01*
X117892529Y-56081098D01*
X117704167Y-56227705D01*
X117542501Y-56403322D01*
X117516806Y-56442652D01*
X117463659Y-56488008D01*
X117394428Y-56497430D01*
X117331093Y-56467928D01*
X117309190Y-56442649D01*
X117283496Y-56403321D01*
X117283495Y-56403320D01*
X117283494Y-56403318D01*
X117121832Y-56227705D01*
X116933469Y-56081097D01*
X116723545Y-55967491D01*
X116723543Y-55967490D01*
X116723539Y-55967488D01*
X116497788Y-55889988D01*
X116309434Y-55858557D01*
X116262347Y-55850700D01*
X116023653Y-55850700D01*
X115984413Y-55857248D01*
X115788211Y-55889988D01*
X115562460Y-55967488D01*
X115352529Y-56081098D01*
X115164167Y-56227705D01*
X115002501Y-56403322D01*
X114976806Y-56442652D01*
X114923659Y-56488008D01*
X114854428Y-56497430D01*
X114791093Y-56467928D01*
X114769190Y-56442649D01*
X114743496Y-56403321D01*
X114743495Y-56403320D01*
X114743494Y-56403318D01*
X114581832Y-56227705D01*
X114393469Y-56081097D01*
X114183545Y-55967491D01*
X114183543Y-55967490D01*
X114183539Y-55967488D01*
X113957788Y-55889988D01*
X113769434Y-55858557D01*
X113722347Y-55850700D01*
X113483653Y-55850700D01*
X113444413Y-55857248D01*
X113248211Y-55889988D01*
X113022460Y-55967488D01*
X112812529Y-56081098D01*
X112624167Y-56227705D01*
X112462501Y-56403322D01*
X112436806Y-56442652D01*
X112383659Y-56488008D01*
X112314428Y-56497430D01*
X112251093Y-56467928D01*
X112229190Y-56442649D01*
X112203496Y-56403321D01*
X112203495Y-56403320D01*
X112203494Y-56403318D01*
X112041832Y-56227705D01*
X111853469Y-56081097D01*
X111643545Y-55967491D01*
X111643543Y-55967490D01*
X111643539Y-55967488D01*
X111417788Y-55889988D01*
X111229434Y-55858557D01*
X111182347Y-55850700D01*
X110943653Y-55850700D01*
X110904413Y-55857248D01*
X110708211Y-55889988D01*
X110482460Y-55967488D01*
X110272529Y-56081098D01*
X110084167Y-56227705D01*
X109922505Y-56403318D01*
X109896808Y-56442651D01*
X109843661Y-56488007D01*
X109774430Y-56497430D01*
X109711094Y-56467927D01*
X109689192Y-56442651D01*
X109663494Y-56403318D01*
X109501832Y-56227705D01*
X109350974Y-56110288D01*
X109313469Y-56081097D01*
X109103545Y-55967491D01*
X109103543Y-55967490D01*
X109103539Y-55967488D01*
X108877788Y-55889988D01*
X108689434Y-55858557D01*
X108642347Y-55850700D01*
X108403653Y-55850700D01*
X108364413Y-55857248D01*
X108168211Y-55889988D01*
X107942460Y-55967488D01*
X107732529Y-56081098D01*
X107544167Y-56227705D01*
X107382505Y-56403318D01*
X107356808Y-56442651D01*
X107303661Y-56488007D01*
X107234430Y-56497430D01*
X107171094Y-56467927D01*
X107149192Y-56442651D01*
X107123494Y-56403318D01*
X106961832Y-56227705D01*
X106810974Y-56110288D01*
X106773469Y-56081097D01*
X106563545Y-55967491D01*
X106563543Y-55967490D01*
X106563539Y-55967488D01*
X106337788Y-55889988D01*
X106149434Y-55858557D01*
X106102347Y-55850700D01*
X105863653Y-55850700D01*
X105824413Y-55857248D01*
X105628211Y-55889988D01*
X105402460Y-55967488D01*
X105192529Y-56081098D01*
X105004167Y-56227705D01*
X104842507Y-56403316D01*
X104801603Y-56465925D01*
X104713001Y-56601541D01*
X104711952Y-56603146D01*
X104616071Y-56821731D01*
X104557474Y-57053126D01*
X104537763Y-57291000D01*
X104557474Y-57528873D01*
X104557474Y-57528876D01*
X104557475Y-57528878D01*
X104616071Y-57760267D01*
X104616072Y-57760269D01*
X104618594Y-57770228D01*
X104616256Y-57770819D01*
X104623316Y-57825798D01*
X104593335Y-57888908D01*
X104533993Y-57925791D01*
X104500858Y-57930300D01*
X102276253Y-57930300D01*
X102209214Y-57910615D01*
X102188572Y-57893981D01*
X102064108Y-57769517D01*
X102030623Y-57708194D01*
X102031584Y-57651395D01*
X102075525Y-57477877D01*
X102095236Y-57240000D01*
X102087362Y-57144976D01*
X102075525Y-57002122D01*
X102016929Y-56770733D01*
X101921047Y-56552144D01*
X101790494Y-56352318D01*
X101628832Y-56176705D01*
X101440469Y-56030097D01*
X101230545Y-55916491D01*
X101230543Y-55916490D01*
X101230539Y-55916488D01*
X101004788Y-55838988D01*
X100816434Y-55807557D01*
X100769347Y-55799700D01*
X100530653Y-55799700D01*
X100491413Y-55806248D01*
X100295211Y-55838988D01*
X100069460Y-55916488D01*
X99859529Y-56030098D01*
X99671167Y-56176705D01*
X99509505Y-56352318D01*
X99483808Y-56391651D01*
X99430661Y-56437007D01*
X99361430Y-56446430D01*
X99298094Y-56416927D01*
X99276192Y-56391651D01*
X99250494Y-56352318D01*
X99088832Y-56176705D01*
X99024031Y-56126269D01*
X98900469Y-56030097D01*
X98690545Y-55916491D01*
X98690543Y-55916490D01*
X98690539Y-55916488D01*
X98464788Y-55838988D01*
X98276434Y-55807557D01*
X98229347Y-55799700D01*
X97990653Y-55799700D01*
X97951413Y-55806248D01*
X97755211Y-55838988D01*
X97529460Y-55916488D01*
X97319529Y-56030098D01*
X97131167Y-56176705D01*
X96969505Y-56352318D01*
X96943808Y-56391651D01*
X96890661Y-56437007D01*
X96821430Y-56446430D01*
X96758094Y-56416927D01*
X96736192Y-56391651D01*
X96710494Y-56352318D01*
X96548832Y-56176705D01*
X96484031Y-56126269D01*
X96360469Y-56030097D01*
X96150545Y-55916491D01*
X96150543Y-55916490D01*
X96150539Y-55916488D01*
X95924788Y-55838988D01*
X95736434Y-55807557D01*
X95689347Y-55799700D01*
X95450653Y-55799700D01*
X95411413Y-55806248D01*
X95215211Y-55838988D01*
X94989460Y-55916488D01*
X94779529Y-56030098D01*
X94591167Y-56176705D01*
X94429505Y-56352318D01*
X94403808Y-56391651D01*
X94350661Y-56437007D01*
X94281430Y-56446430D01*
X94218094Y-56416927D01*
X94196192Y-56391651D01*
X94170494Y-56352318D01*
X94008832Y-56176705D01*
X93944031Y-56126269D01*
X93820469Y-56030097D01*
X93610545Y-55916491D01*
X93610543Y-55916490D01*
X93610539Y-55916488D01*
X93384788Y-55838988D01*
X93196434Y-55807557D01*
X93149347Y-55799700D01*
X92910653Y-55799700D01*
X92871413Y-55806248D01*
X92675211Y-55838988D01*
X92449460Y-55916488D01*
X92239529Y-56030098D01*
X92051167Y-56176705D01*
X91889501Y-56352322D01*
X91863806Y-56391652D01*
X91810659Y-56437008D01*
X91741428Y-56446430D01*
X91678093Y-56416928D01*
X91656190Y-56391649D01*
X91630496Y-56352321D01*
X91630495Y-56352320D01*
X91630494Y-56352318D01*
X91468832Y-56176705D01*
X91280469Y-56030097D01*
X91070545Y-55916491D01*
X91070543Y-55916490D01*
X91070539Y-55916488D01*
X90844788Y-55838988D01*
X90656434Y-55807557D01*
X90609347Y-55799700D01*
X90370653Y-55799700D01*
X90331413Y-55806248D01*
X90135211Y-55838988D01*
X89909460Y-55916488D01*
X89699529Y-56030098D01*
X89511167Y-56176705D01*
X89349505Y-56352318D01*
X89323808Y-56391651D01*
X89270661Y-56437007D01*
X89201430Y-56446430D01*
X89138094Y-56416927D01*
X89116192Y-56391651D01*
X89090494Y-56352318D01*
X88928832Y-56176705D01*
X88864031Y-56126269D01*
X88740469Y-56030097D01*
X88530545Y-55916491D01*
X88530543Y-55916490D01*
X88530539Y-55916488D01*
X88304788Y-55838988D01*
X88116434Y-55807557D01*
X88069347Y-55799700D01*
X87830653Y-55799700D01*
X87791413Y-55806248D01*
X87595211Y-55838988D01*
X87369460Y-55916488D01*
X87159529Y-56030098D01*
X86971167Y-56176705D01*
X86809505Y-56352318D01*
X86783808Y-56391651D01*
X86730661Y-56437007D01*
X86661430Y-56446430D01*
X86598094Y-56416927D01*
X86576192Y-56391651D01*
X86550494Y-56352318D01*
X86388832Y-56176705D01*
X86324031Y-56126269D01*
X86200469Y-56030097D01*
X85990545Y-55916491D01*
X85990543Y-55916490D01*
X85990539Y-55916488D01*
X85764788Y-55838988D01*
X85576434Y-55807557D01*
X85529347Y-55799700D01*
X85290653Y-55799700D01*
X85251413Y-55806248D01*
X85055211Y-55838988D01*
X84829460Y-55916488D01*
X84619529Y-56030098D01*
X84431167Y-56176705D01*
X84269505Y-56352318D01*
X84243808Y-56391651D01*
X84190661Y-56437007D01*
X84121430Y-56446430D01*
X84058094Y-56416927D01*
X84036192Y-56391651D01*
X84010494Y-56352318D01*
X83848832Y-56176705D01*
X83784031Y-56126269D01*
X83660469Y-56030097D01*
X83450545Y-55916491D01*
X83450543Y-55916490D01*
X83450539Y-55916488D01*
X83224788Y-55838988D01*
X83036434Y-55807557D01*
X82989347Y-55799700D01*
X82750653Y-55799700D01*
X82711413Y-55806248D01*
X82515211Y-55838988D01*
X82289460Y-55916488D01*
X82079529Y-56030098D01*
X81891167Y-56176705D01*
X81729501Y-56352322D01*
X81703508Y-56392108D01*
X81650361Y-56437464D01*
X81581130Y-56446886D01*
X81517795Y-56417384D01*
X81514976Y-56414131D01*
X81509941Y-56413609D01*
X80819521Y-57104029D01*
X80796845Y-57026799D01*
X80717869Y-56903910D01*
X80607470Y-56808248D01*
X80474592Y-56747565D01*
X80469600Y-56746847D01*
X81157159Y-56059288D01*
X81157158Y-56059286D01*
X81120195Y-56030516D01*
X80910341Y-55916949D01*
X80684663Y-55839474D01*
X80449304Y-55800200D01*
X80210696Y-55800200D01*
X79975336Y-55839474D01*
X79749660Y-55916948D01*
X79539803Y-56030517D01*
X79502840Y-56059287D01*
X80190400Y-56746847D01*
X80185408Y-56747565D01*
X80052530Y-56808248D01*
X79942131Y-56903910D01*
X79863155Y-57026799D01*
X79840478Y-57104029D01*
X79150057Y-56413609D01*
X79137367Y-56414925D01*
X79110956Y-56437465D01*
X79041725Y-56446886D01*
X78978390Y-56417383D01*
X78956488Y-56392105D01*
X78956191Y-56391651D01*
X78930494Y-56352318D01*
X78768832Y-56176705D01*
X78580469Y-56030097D01*
X78370545Y-55916491D01*
X78370543Y-55916490D01*
X78370539Y-55916488D01*
X78144788Y-55838988D01*
X77956434Y-55807557D01*
X77909347Y-55799700D01*
X77670653Y-55799700D01*
X77631413Y-55806248D01*
X77435211Y-55838988D01*
X77209460Y-55916488D01*
X76999529Y-56030098D01*
X76811167Y-56176705D01*
X76649505Y-56352318D01*
X76623808Y-56391651D01*
X76570661Y-56437007D01*
X76501430Y-56446430D01*
X76438094Y-56416927D01*
X76416192Y-56391651D01*
X76390494Y-56352318D01*
X76228832Y-56176705D01*
X76164031Y-56126269D01*
X76040469Y-56030097D01*
X75830545Y-55916491D01*
X75830543Y-55916490D01*
X75830539Y-55916488D01*
X75604788Y-55838988D01*
X75416434Y-55807557D01*
X75369347Y-55799700D01*
X75130653Y-55799700D01*
X75091413Y-55806248D01*
X74895211Y-55838988D01*
X74669460Y-55916488D01*
X74459529Y-56030098D01*
X74271167Y-56176705D01*
X74109505Y-56352318D01*
X74083808Y-56391651D01*
X74030661Y-56437007D01*
X73961430Y-56446430D01*
X73898094Y-56416927D01*
X73876192Y-56391651D01*
X73850494Y-56352318D01*
X73688832Y-56176705D01*
X73624031Y-56126269D01*
X73500469Y-56030097D01*
X73290545Y-55916491D01*
X73290543Y-55916490D01*
X73290539Y-55916488D01*
X73064788Y-55838988D01*
X72892868Y-55810300D01*
X72891986Y-55810152D01*
X72829102Y-55779702D01*
X72792662Y-55720087D01*
X72794238Y-55650236D01*
X72833328Y-55592324D01*
X72861962Y-55574564D01*
X72952732Y-55534150D01*
X73105870Y-55422889D01*
X73232533Y-55282216D01*
X73327179Y-55118284D01*
X73346814Y-55057853D01*
X73385674Y-54938256D01*
X73392281Y-54875385D01*
X73418865Y-54810772D01*
X73427912Y-54800676D01*
X73645772Y-54582816D01*
X73707093Y-54549333D01*
X73733441Y-54546499D01*
X74623008Y-54546499D01*
X74725797Y-54535999D01*
X74892334Y-54480814D01*
X75041656Y-54388712D01*
X75165712Y-54264656D01*
X75257814Y-54115334D01*
X75312999Y-53948797D01*
X75323500Y-53846009D01*
X75323500Y-53842878D01*
X76122500Y-53842878D01*
X76122501Y-53846008D01*
X76122820Y-53849140D01*
X76122821Y-53849141D01*
X76133000Y-53948796D01*
X76188186Y-54115334D01*
X76280288Y-54264657D01*
X76404342Y-54388711D01*
X76404344Y-54388712D01*
X76553666Y-54480814D01*
X76665016Y-54517712D01*
X76720202Y-54535999D01*
X76819858Y-54546180D01*
X76819859Y-54546180D01*
X76822991Y-54546500D01*
X77723008Y-54546499D01*
X77825797Y-54535999D01*
X77992334Y-54480814D01*
X78141656Y-54388712D01*
X78160368Y-54370000D01*
X110760763Y-54370000D01*
X110780474Y-54607873D01*
X110780474Y-54607876D01*
X110780475Y-54607878D01*
X110796553Y-54671367D01*
X110839071Y-54839268D01*
X110882492Y-54938257D01*
X110934953Y-55057856D01*
X111065506Y-55257682D01*
X111227168Y-55433295D01*
X111415531Y-55579903D01*
X111625455Y-55693509D01*
X111625458Y-55693510D01*
X111625460Y-55693511D01*
X111851211Y-55771011D01*
X111851215Y-55771011D01*
X111851216Y-55771012D01*
X112086653Y-55810300D01*
X112086654Y-55810300D01*
X112325346Y-55810300D01*
X112325347Y-55810300D01*
X112560784Y-55771012D01*
X112560785Y-55771011D01*
X112560788Y-55771011D01*
X112786539Y-55693511D01*
X112786538Y-55693511D01*
X112786545Y-55693509D01*
X112996469Y-55579903D01*
X113184832Y-55433295D01*
X113346494Y-55257682D01*
X113372192Y-55218348D01*
X113425337Y-55172992D01*
X113494568Y-55163568D01*
X113557904Y-55193069D01*
X113579807Y-55218346D01*
X113605506Y-55257682D01*
X113767168Y-55433295D01*
X113955531Y-55579903D01*
X114165455Y-55693509D01*
X114165458Y-55693510D01*
X114165460Y-55693511D01*
X114391211Y-55771011D01*
X114391215Y-55771011D01*
X114391216Y-55771012D01*
X114626653Y-55810300D01*
X114626654Y-55810300D01*
X114865346Y-55810300D01*
X114865347Y-55810300D01*
X115100784Y-55771012D01*
X115100785Y-55771011D01*
X115100788Y-55771011D01*
X115326539Y-55693511D01*
X115326538Y-55693511D01*
X115326545Y-55693509D01*
X115536469Y-55579903D01*
X115724832Y-55433295D01*
X115886494Y-55257682D01*
X116017047Y-55057856D01*
X116112929Y-54839267D01*
X116171525Y-54607878D01*
X116191236Y-54370000D01*
X121174763Y-54370000D01*
X121194474Y-54607873D01*
X121194474Y-54607876D01*
X121194475Y-54607878D01*
X121210553Y-54671367D01*
X121253071Y-54839268D01*
X121296492Y-54938257D01*
X121348953Y-55057856D01*
X121479506Y-55257682D01*
X121641168Y-55433295D01*
X121829531Y-55579903D01*
X122039455Y-55693509D01*
X122039458Y-55693510D01*
X122039460Y-55693511D01*
X122265211Y-55771011D01*
X122265215Y-55771011D01*
X122265216Y-55771012D01*
X122500653Y-55810300D01*
X122500654Y-55810300D01*
X122739346Y-55810300D01*
X122739347Y-55810300D01*
X122974784Y-55771012D01*
X122974785Y-55771011D01*
X122974788Y-55771011D01*
X123200539Y-55693511D01*
X123200538Y-55693511D01*
X123200545Y-55693509D01*
X123410469Y-55579903D01*
X123598832Y-55433295D01*
X123760494Y-55257682D01*
X123786192Y-55218348D01*
X123839337Y-55172992D01*
X123908568Y-55163568D01*
X123971904Y-55193069D01*
X123993807Y-55218346D01*
X124019506Y-55257682D01*
X124181168Y-55433295D01*
X124369531Y-55579903D01*
X124579455Y-55693509D01*
X124579458Y-55693510D01*
X124579460Y-55693511D01*
X124805211Y-55771011D01*
X124805215Y-55771011D01*
X124805216Y-55771012D01*
X125040653Y-55810300D01*
X125040654Y-55810300D01*
X125279346Y-55810300D01*
X125279347Y-55810300D01*
X125514784Y-55771012D01*
X125514785Y-55771011D01*
X125514788Y-55771011D01*
X125740539Y-55693511D01*
X125740538Y-55693511D01*
X125740545Y-55693509D01*
X125950469Y-55579903D01*
X126138832Y-55433295D01*
X126300494Y-55257682D01*
X126431047Y-55057856D01*
X126526929Y-54839267D01*
X126585525Y-54607878D01*
X126605236Y-54370000D01*
X126585525Y-54132122D01*
X126526929Y-53900733D01*
X126431047Y-53682144D01*
X126300494Y-53482318D01*
X126138832Y-53306705D01*
X125950469Y-53160097D01*
X125740545Y-53046491D01*
X125740543Y-53046490D01*
X125740539Y-53046488D01*
X125514788Y-52968988D01*
X125326434Y-52937557D01*
X125279347Y-52929700D01*
X125040653Y-52929700D01*
X125001413Y-52936248D01*
X124805211Y-52968988D01*
X124579460Y-53046488D01*
X124369529Y-53160098D01*
X124181167Y-53306705D01*
X124019505Y-53482318D01*
X123993808Y-53521651D01*
X123940661Y-53567007D01*
X123871430Y-53576430D01*
X123808094Y-53546927D01*
X123786192Y-53521651D01*
X123760494Y-53482318D01*
X123598832Y-53306705D01*
X123410470Y-53160098D01*
X123410469Y-53160097D01*
X123200545Y-53046491D01*
X123200543Y-53046490D01*
X123200539Y-53046488D01*
X122974788Y-52968988D01*
X122786434Y-52937557D01*
X122739347Y-52929700D01*
X122500653Y-52929700D01*
X122461413Y-52936248D01*
X122265211Y-52968988D01*
X122039460Y-53046488D01*
X121829529Y-53160098D01*
X121641167Y-53306705D01*
X121479507Y-53482316D01*
X121479506Y-53482318D01*
X121350001Y-53680541D01*
X121348952Y-53682146D01*
X121253071Y-53900731D01*
X121194474Y-54132126D01*
X121174763Y-54370000D01*
X116191236Y-54370000D01*
X116171525Y-54132122D01*
X116112929Y-53900733D01*
X116017047Y-53682144D01*
X115886494Y-53482318D01*
X115724832Y-53306705D01*
X115536469Y-53160097D01*
X115326545Y-53046491D01*
X115326543Y-53046490D01*
X115326539Y-53046488D01*
X115100788Y-52968988D01*
X114912434Y-52937557D01*
X114865347Y-52929700D01*
X114626653Y-52929700D01*
X114587413Y-52936248D01*
X114391211Y-52968988D01*
X114165460Y-53046488D01*
X113955529Y-53160098D01*
X113767167Y-53306705D01*
X113605505Y-53482318D01*
X113579808Y-53521651D01*
X113526661Y-53567007D01*
X113457430Y-53576430D01*
X113394094Y-53546927D01*
X113372192Y-53521651D01*
X113346494Y-53482318D01*
X113184832Y-53306705D01*
X112996470Y-53160098D01*
X112996469Y-53160097D01*
X112786545Y-53046491D01*
X112786543Y-53046490D01*
X112786539Y-53046488D01*
X112560788Y-52968988D01*
X112372434Y-52937557D01*
X112325347Y-52929700D01*
X112086653Y-52929700D01*
X112047413Y-52936248D01*
X111851211Y-52968988D01*
X111625460Y-53046488D01*
X111415529Y-53160098D01*
X111227167Y-53306705D01*
X111065507Y-53482316D01*
X111065506Y-53482318D01*
X110936001Y-53680541D01*
X110934952Y-53682146D01*
X110839071Y-53900731D01*
X110780474Y-54132126D01*
X110760763Y-54370000D01*
X78160368Y-54370000D01*
X78265712Y-54264656D01*
X78357814Y-54115334D01*
X78362900Y-54099984D01*
X78402668Y-54042542D01*
X78467183Y-54015717D01*
X78535959Y-54028029D01*
X78542672Y-54032103D01*
X78547267Y-54034148D01*
X78547270Y-54034151D01*
X78695141Y-54099988D01*
X78720197Y-54111144D01*
X78905352Y-54150500D01*
X78905354Y-54150500D01*
X79094648Y-54150500D01*
X79218084Y-54124262D01*
X79279803Y-54111144D01*
X79452730Y-54034151D01*
X79546740Y-53965849D01*
X79605870Y-53922889D01*
X79625820Y-53900733D01*
X79732533Y-53782216D01*
X79827179Y-53618284D01*
X79885674Y-53438256D01*
X79905460Y-53250000D01*
X79885674Y-53061744D01*
X79840268Y-52922000D01*
X79827179Y-52881715D01*
X79732533Y-52717783D01*
X79605870Y-52577110D01*
X79452730Y-52465848D01*
X79344986Y-52417877D01*
X102147500Y-52417877D01*
X102147501Y-52421008D01*
X102147820Y-52424140D01*
X102147821Y-52424141D01*
X102158000Y-52523796D01*
X102213186Y-52690334D01*
X102305288Y-52839657D01*
X102429342Y-52963711D01*
X102485336Y-52998248D01*
X102578666Y-53055814D01*
X102690016Y-53092712D01*
X102745202Y-53110999D01*
X102844858Y-53121180D01*
X102844859Y-53121180D01*
X102847991Y-53121500D01*
X104198008Y-53121499D01*
X104300797Y-53110999D01*
X104467334Y-53055814D01*
X104616656Y-52963712D01*
X104736282Y-52844085D01*
X104797601Y-52810603D01*
X104867293Y-52815587D01*
X104874396Y-52818490D01*
X104970197Y-52861144D01*
X105155352Y-52900500D01*
X105155354Y-52900500D01*
X105344648Y-52900500D01*
X105468083Y-52874262D01*
X105529803Y-52861144D01*
X105702730Y-52784151D01*
X105855871Y-52672888D01*
X105982533Y-52532216D01*
X106077179Y-52368284D01*
X106135674Y-52188256D01*
X106155460Y-52000000D01*
X106135674Y-51811744D01*
X106096501Y-51691183D01*
X106077179Y-51631715D01*
X105982533Y-51467783D01*
X105855870Y-51327110D01*
X105702730Y-51215848D01*
X105529802Y-51138855D01*
X105344648Y-51099500D01*
X105344646Y-51099500D01*
X105155354Y-51099500D01*
X105155352Y-51099500D01*
X104970198Y-51138854D01*
X104906875Y-51167048D01*
X104837624Y-51176332D01*
X104774348Y-51146703D01*
X104750903Y-51118866D01*
X104740712Y-51102344D01*
X104616656Y-50978288D01*
X104616655Y-50978287D01*
X104616654Y-50978286D01*
X104467334Y-50886186D01*
X104300797Y-50831000D01*
X104201141Y-50820819D01*
X104201122Y-50820818D01*
X104198009Y-50820500D01*
X104194860Y-50820500D01*
X102851140Y-50820500D01*
X102851120Y-50820500D01*
X102847992Y-50820501D01*
X102844860Y-50820820D01*
X102844858Y-50820821D01*
X102745203Y-50831000D01*
X102578665Y-50886186D01*
X102429342Y-50978288D01*
X102305288Y-51102342D01*
X102213186Y-51251665D01*
X102158000Y-51418202D01*
X102147819Y-51517858D01*
X102147817Y-51517878D01*
X102147500Y-51520991D01*
X102147500Y-51524138D01*
X102147500Y-51524139D01*
X102147500Y-52417858D01*
X102147500Y-52417877D01*
X79344986Y-52417877D01*
X79279802Y-52388855D01*
X79094648Y-52349500D01*
X79094646Y-52349500D01*
X78905354Y-52349500D01*
X78905352Y-52349500D01*
X78720201Y-52388854D01*
X78576315Y-52452917D01*
X78507064Y-52462201D01*
X78443788Y-52432573D01*
X78408174Y-52378642D01*
X78357814Y-52226666D01*
X78287795Y-52113146D01*
X78265711Y-52077342D01*
X78141657Y-51953288D01*
X77992334Y-51861186D01*
X77825797Y-51806000D01*
X77726141Y-51795819D01*
X77726122Y-51795818D01*
X77723009Y-51795500D01*
X77719860Y-51795500D01*
X76826141Y-51795500D01*
X76826121Y-51795500D01*
X76822992Y-51795501D01*
X76819860Y-51795820D01*
X76819858Y-51795821D01*
X76720203Y-51806000D01*
X76553665Y-51861186D01*
X76404342Y-51953288D01*
X76280288Y-52077342D01*
X76188186Y-52226665D01*
X76133000Y-52393202D01*
X76122819Y-52492858D01*
X76122817Y-52492878D01*
X76122500Y-52495991D01*
X76122500Y-52499138D01*
X76122500Y-52499139D01*
X76122500Y-53842859D01*
X76122500Y-53842878D01*
X75323500Y-53842878D01*
X75323499Y-52495992D01*
X75312999Y-52393203D01*
X75257814Y-52226666D01*
X75187795Y-52113146D01*
X75165711Y-52077342D01*
X75041657Y-51953288D01*
X74892334Y-51861186D01*
X74725797Y-51806000D01*
X74626141Y-51795819D01*
X74626122Y-51795818D01*
X74623009Y-51795500D01*
X74619860Y-51795500D01*
X73726141Y-51795500D01*
X73726121Y-51795500D01*
X73722992Y-51795501D01*
X73719860Y-51795820D01*
X73719858Y-51795821D01*
X73620203Y-51806000D01*
X73453665Y-51861186D01*
X73304342Y-51953288D01*
X73180288Y-52077342D01*
X73088186Y-52226665D01*
X73033000Y-52393202D01*
X73022819Y-52492858D01*
X73022817Y-52492878D01*
X73022500Y-52495991D01*
X73022500Y-52499139D01*
X73022500Y-53385546D01*
X73002815Y-53452585D01*
X72986181Y-53473227D01*
X72646227Y-53813181D01*
X72584904Y-53846666D01*
X72558546Y-53849500D01*
X72405352Y-53849500D01*
X72220197Y-53888855D01*
X72047269Y-53965848D01*
X71894129Y-54077110D01*
X71767466Y-54217783D01*
X71672820Y-54381715D01*
X71614326Y-54561742D01*
X71604119Y-54658857D01*
X71594540Y-54750000D01*
X71598434Y-54787052D01*
X71614326Y-54938257D01*
X71672820Y-55118284D01*
X71767466Y-55282216D01*
X71894129Y-55422889D01*
X72047269Y-55534151D01*
X72086759Y-55551733D01*
X72220197Y-55611144D01*
X72275342Y-55622865D01*
X72336822Y-55656056D01*
X72370599Y-55717219D01*
X72365947Y-55786934D01*
X72324343Y-55843066D01*
X72289823Y-55861436D01*
X72129459Y-55916489D01*
X72129455Y-55916490D01*
X72129455Y-55916491D01*
X72034370Y-55967949D01*
X71919529Y-56030098D01*
X71811482Y-56114194D01*
X71746487Y-56139836D01*
X71677947Y-56126269D01*
X71627623Y-56077800D01*
X71611492Y-56009818D01*
X71611744Y-56006100D01*
X71614735Y-55969999D01*
X71595031Y-55732209D01*
X71536453Y-55500891D01*
X71440605Y-55282380D01*
X71349941Y-55143609D01*
X70659521Y-55834029D01*
X70636845Y-55756799D01*
X70557869Y-55633910D01*
X70447470Y-55538248D01*
X70314592Y-55477565D01*
X70309598Y-55476847D01*
X70997159Y-54789287D01*
X70996702Y-54781926D01*
X70967350Y-54741140D01*
X70963677Y-54671367D01*
X70997020Y-54612942D01*
X70997158Y-54610711D01*
X70309599Y-53923152D01*
X70314592Y-53922435D01*
X70447470Y-53861752D01*
X70557869Y-53766090D01*
X70636845Y-53643201D01*
X70659522Y-53565968D01*
X71349941Y-54256389D01*
X71440605Y-54117619D01*
X71536453Y-53899108D01*
X71595031Y-53667790D01*
X71614735Y-53429999D01*
X71595031Y-53192209D01*
X71536453Y-52960891D01*
X71440605Y-52742380D01*
X71349941Y-52603609D01*
X70659521Y-53294029D01*
X70636845Y-53216799D01*
X70557869Y-53093910D01*
X70447470Y-52998248D01*
X70314592Y-52937565D01*
X70309600Y-52936847D01*
X70997159Y-52249288D01*
X70996685Y-52241653D01*
X70967757Y-52201456D01*
X70964085Y-52131683D01*
X70998718Y-52071000D01*
X71008559Y-52062473D01*
X71148832Y-51953295D01*
X71310494Y-51777682D01*
X71441047Y-51577856D01*
X71536929Y-51359267D01*
X71595525Y-51127878D01*
X71608783Y-50967877D01*
X86347500Y-50967877D01*
X86347501Y-50971008D01*
X86347820Y-50974140D01*
X86347821Y-50974141D01*
X86358000Y-51073796D01*
X86413186Y-51240334D01*
X86505288Y-51389657D01*
X86629342Y-51513711D01*
X86641145Y-51520991D01*
X86778666Y-51605814D01*
X86890016Y-51642712D01*
X86945202Y-51660999D01*
X87044858Y-51671180D01*
X87044859Y-51671180D01*
X87047991Y-51671500D01*
X88018789Y-51671499D01*
X88085828Y-51691183D01*
X88131583Y-51743987D01*
X88136720Y-51757180D01*
X88172821Y-51868285D01*
X88267466Y-52032216D01*
X88394129Y-52172889D01*
X88547269Y-52284151D01*
X88720197Y-52361144D01*
X88905352Y-52400500D01*
X88905354Y-52400500D01*
X89094648Y-52400500D01*
X89218084Y-52374262D01*
X89279803Y-52361144D01*
X89452730Y-52284151D01*
X89500716Y-52249287D01*
X89605870Y-52172889D01*
X89732533Y-52032216D01*
X89827179Y-51868284D01*
X89840046Y-51828683D01*
X89885674Y-51688256D01*
X89905460Y-51500000D01*
X89885674Y-51311744D01*
X89832345Y-51147618D01*
X89830351Y-51077778D01*
X89866431Y-51017945D01*
X89929132Y-50987117D01*
X89998546Y-50995082D01*
X90037958Y-51021620D01*
X90104654Y-51088316D01*
X90253877Y-51180357D01*
X90420303Y-51235506D01*
X90519890Y-51245680D01*
X90526168Y-51245999D01*
X90972999Y-51245999D01*
X90973000Y-51245998D01*
X90973000Y-50421000D01*
X91473000Y-50421000D01*
X91473000Y-51245999D01*
X91919829Y-51245999D01*
X91926111Y-51245678D01*
X92025695Y-51235506D01*
X92192122Y-51180357D01*
X92341345Y-51088316D01*
X92465316Y-50964345D01*
X92557357Y-50815122D01*
X92612506Y-50648696D01*
X92622680Y-50549109D01*
X92623000Y-50542831D01*
X92623000Y-50421000D01*
X91473000Y-50421000D01*
X90973000Y-50421000D01*
X89823001Y-50421000D01*
X89823001Y-50542829D01*
X89823321Y-50549111D01*
X89833493Y-50648695D01*
X89873433Y-50769224D01*
X89875835Y-50839052D01*
X89840103Y-50899094D01*
X89777583Y-50930287D01*
X89708123Y-50922726D01*
X89663577Y-50891201D01*
X89662496Y-50890000D01*
X89605871Y-50827112D01*
X89597212Y-50820821D01*
X89452730Y-50715848D01*
X89279802Y-50638855D01*
X89196718Y-50621195D01*
X89135236Y-50588003D01*
X89101460Y-50526839D01*
X89098499Y-50499905D01*
X89098499Y-50074140D01*
X89098499Y-50074139D01*
X89098499Y-50070992D01*
X89087999Y-49968203D01*
X89072357Y-49921000D01*
X89823000Y-49921000D01*
X90973000Y-49921000D01*
X90973000Y-49096000D01*
X91473000Y-49096000D01*
X91473000Y-49921000D01*
X92622999Y-49921000D01*
X92622999Y-49799170D01*
X92622678Y-49792888D01*
X92612506Y-49693304D01*
X92557357Y-49526877D01*
X92465316Y-49377654D01*
X92341345Y-49253683D01*
X92192122Y-49161642D01*
X92025696Y-49106493D01*
X91926109Y-49096319D01*
X91919832Y-49096000D01*
X91473000Y-49096000D01*
X90973000Y-49096000D01*
X90526171Y-49096000D01*
X90519888Y-49096321D01*
X90420304Y-49106493D01*
X90253877Y-49161642D01*
X90104654Y-49253683D01*
X89980683Y-49377654D01*
X89888642Y-49526877D01*
X89833493Y-49693303D01*
X89823319Y-49792890D01*
X89823000Y-49799168D01*
X89823000Y-49921000D01*
X89072357Y-49921000D01*
X89032814Y-49801666D01*
X88969878Y-49699630D01*
X88940711Y-49652342D01*
X88816657Y-49528288D01*
X88667334Y-49436186D01*
X88500797Y-49381000D01*
X88401141Y-49370819D01*
X88401122Y-49370818D01*
X88398009Y-49370500D01*
X88394860Y-49370500D01*
X87051140Y-49370500D01*
X87051120Y-49370500D01*
X87047992Y-49370501D01*
X87044860Y-49370820D01*
X87044858Y-49370821D01*
X86945203Y-49381000D01*
X86778665Y-49436186D01*
X86629342Y-49528288D01*
X86505288Y-49652342D01*
X86413186Y-49801665D01*
X86358000Y-49968202D01*
X86347819Y-50067858D01*
X86347817Y-50067878D01*
X86347500Y-50070991D01*
X86347500Y-50074138D01*
X86347500Y-50074139D01*
X86347500Y-50967858D01*
X86347500Y-50967877D01*
X71608783Y-50967877D01*
X71615236Y-50890000D01*
X71595525Y-50652122D01*
X71536929Y-50420733D01*
X71441047Y-50202144D01*
X71310494Y-50002318D01*
X71148832Y-49826705D01*
X71008976Y-49717851D01*
X70968165Y-49661144D01*
X70964490Y-49591371D01*
X70999121Y-49530687D01*
X71008965Y-49522157D01*
X71148832Y-49413295D01*
X71310494Y-49237682D01*
X71441047Y-49037856D01*
X71536929Y-48819267D01*
X71595525Y-48587878D01*
X71615236Y-48350000D01*
X71595525Y-48112122D01*
X71536929Y-47880733D01*
X71531290Y-47867877D01*
X86347500Y-47867877D01*
X86347501Y-47871008D01*
X86347820Y-47874140D01*
X86347821Y-47874141D01*
X86358000Y-47973796D01*
X86413186Y-48140334D01*
X86505288Y-48289657D01*
X86629342Y-48413711D01*
X86644222Y-48422889D01*
X86778666Y-48505814D01*
X86890016Y-48542712D01*
X86945202Y-48560999D01*
X87044858Y-48571180D01*
X87044859Y-48571180D01*
X87047991Y-48571500D01*
X88398008Y-48571499D01*
X88500797Y-48560999D01*
X88667334Y-48505814D01*
X88676760Y-48500000D01*
X100844540Y-48500000D01*
X100864326Y-48688257D01*
X100922820Y-48868284D01*
X101017466Y-49032216D01*
X101144129Y-49172889D01*
X101297269Y-49284151D01*
X101470197Y-49361144D01*
X101655352Y-49400500D01*
X101655354Y-49400500D01*
X101844646Y-49400500D01*
X102021600Y-49362887D01*
X102091263Y-49368203D01*
X102146997Y-49410339D01*
X102165084Y-49445173D01*
X102213186Y-49590334D01*
X102305288Y-49739657D01*
X102429342Y-49863711D01*
X102429344Y-49863712D01*
X102578666Y-49955814D01*
X102690017Y-49992712D01*
X102745202Y-50010999D01*
X102844858Y-50021180D01*
X102844859Y-50021180D01*
X102847991Y-50021500D01*
X104198008Y-50021499D01*
X104300797Y-50010999D01*
X104333990Y-50000000D01*
X107594540Y-50000000D01*
X107594784Y-50002318D01*
X107614326Y-50188257D01*
X107672820Y-50368284D01*
X107767466Y-50532216D01*
X107894129Y-50672889D01*
X108047269Y-50784151D01*
X108220197Y-50861144D01*
X108405352Y-50900500D01*
X108405354Y-50900500D01*
X108594648Y-50900500D01*
X108718083Y-50874262D01*
X108779803Y-50861144D01*
X108952730Y-50784151D01*
X109046740Y-50715849D01*
X109105870Y-50672889D01*
X109127655Y-50648695D01*
X109232533Y-50532216D01*
X109327179Y-50368284D01*
X109378225Y-50211180D01*
X109417662Y-50153506D01*
X109482021Y-50126307D01*
X109496139Y-50125499D01*
X110350008Y-50125499D01*
X110452797Y-50114999D01*
X110619334Y-50059814D01*
X110768656Y-49967712D01*
X110892712Y-49843656D01*
X110984814Y-49694334D01*
X111039999Y-49527797D01*
X111050500Y-49425009D01*
X111050500Y-49421878D01*
X111849500Y-49421878D01*
X111849501Y-49425008D01*
X111849820Y-49428140D01*
X111849821Y-49428141D01*
X111860000Y-49527796D01*
X111915186Y-49694334D01*
X112007288Y-49843657D01*
X112131342Y-49967711D01*
X112131344Y-49967712D01*
X112280666Y-50059814D01*
X112392016Y-50096712D01*
X112447202Y-50114999D01*
X112546858Y-50125180D01*
X112546859Y-50125180D01*
X112549991Y-50125500D01*
X113450008Y-50125499D01*
X113552797Y-50114999D01*
X113719334Y-50059814D01*
X113868656Y-49967712D01*
X113992712Y-49843656D01*
X114084814Y-49694334D01*
X114139999Y-49527797D01*
X114150500Y-49425009D01*
X114150499Y-48750000D01*
X126344540Y-48750000D01*
X126364326Y-48938257D01*
X126422820Y-49118284D01*
X126517466Y-49282216D01*
X126644129Y-49422889D01*
X126797269Y-49534151D01*
X126970197Y-49611144D01*
X127155352Y-49650500D01*
X127155354Y-49650500D01*
X127344648Y-49650500D01*
X127488138Y-49620000D01*
X127529803Y-49611144D01*
X127702730Y-49534151D01*
X127703378Y-49533679D01*
X127705443Y-49532942D01*
X127714636Y-49528850D01*
X127714948Y-49529551D01*
X127769180Y-49510199D01*
X127837235Y-49526021D01*
X127863946Y-49546315D01*
X127881342Y-49563711D01*
X127896639Y-49573146D01*
X128030666Y-49655814D01*
X128142016Y-49692712D01*
X128197202Y-49710999D01*
X128296858Y-49721180D01*
X128296859Y-49721180D01*
X128299991Y-49721500D01*
X129700008Y-49721499D01*
X129802797Y-49710999D01*
X129969334Y-49655814D01*
X130118656Y-49563712D01*
X130242712Y-49439656D01*
X130272796Y-49390880D01*
X130324742Y-49344157D01*
X130393704Y-49332934D01*
X130428772Y-49342700D01*
X130470196Y-49361144D01*
X130655352Y-49400500D01*
X130655354Y-49400500D01*
X130844648Y-49400500D01*
X130985786Y-49370500D01*
X131029803Y-49361144D01*
X131202730Y-49284151D01*
X131266688Y-49237683D01*
X131355870Y-49172889D01*
X131386515Y-49138855D01*
X131482533Y-49032216D01*
X131577179Y-48868284D01*
X131635674Y-48688256D01*
X131655460Y-48500000D01*
X131635674Y-48311744D01*
X131587385Y-48163126D01*
X131577179Y-48131715D01*
X131482533Y-47967783D01*
X131355870Y-47827110D01*
X131202730Y-47715848D01*
X131029802Y-47638855D01*
X130844648Y-47599500D01*
X130844646Y-47599500D01*
X130655354Y-47599500D01*
X130655352Y-47599500D01*
X130470197Y-47638855D01*
X130297271Y-47715847D01*
X130272290Y-47733997D01*
X130206483Y-47757475D01*
X130138430Y-47741648D01*
X130130298Y-47735468D01*
X129969334Y-47636186D01*
X129802797Y-47581000D01*
X129703141Y-47570819D01*
X129703122Y-47570818D01*
X129700009Y-47570500D01*
X129696860Y-47570500D01*
X128303140Y-47570500D01*
X128303120Y-47570500D01*
X128299992Y-47570501D01*
X128296860Y-47570820D01*
X128296858Y-47570821D01*
X128197203Y-47581000D01*
X128030665Y-47636186D01*
X127881342Y-47728288D01*
X127757288Y-47852342D01*
X127747526Y-47868169D01*
X127695577Y-47914892D01*
X127626614Y-47926112D01*
X127591554Y-47916349D01*
X127529800Y-47888854D01*
X127344648Y-47849500D01*
X127344646Y-47849500D01*
X127155354Y-47849500D01*
X127155352Y-47849500D01*
X126970197Y-47888855D01*
X126797269Y-47965848D01*
X126644129Y-48077110D01*
X126517466Y-48217783D01*
X126422820Y-48381715D01*
X126364326Y-48561742D01*
X126344540Y-48750000D01*
X114150499Y-48750000D01*
X114150499Y-48749455D01*
X114170183Y-48682417D01*
X114222987Y-48636662D01*
X114292146Y-48626718D01*
X114300280Y-48628166D01*
X114405353Y-48650500D01*
X114405354Y-48650500D01*
X114594648Y-48650500D01*
X114718083Y-48624262D01*
X114779803Y-48611144D01*
X114952730Y-48534151D01*
X114999735Y-48500000D01*
X115105870Y-48422889D01*
X115142943Y-48381716D01*
X115232533Y-48282216D01*
X115327179Y-48118284D01*
X115385674Y-47938256D01*
X115405460Y-47750000D01*
X115385674Y-47561744D01*
X115346177Y-47440186D01*
X115327179Y-47381715D01*
X115232533Y-47217783D01*
X115105870Y-47077110D01*
X114952730Y-46965848D01*
X114779802Y-46888855D01*
X114594648Y-46849500D01*
X114594646Y-46849500D01*
X114405354Y-46849500D01*
X114405352Y-46849500D01*
X114220197Y-46888855D01*
X114047269Y-46965848D01*
X113894128Y-47077111D01*
X113854733Y-47120864D01*
X113808230Y-47153184D01*
X113802605Y-47155411D01*
X113791558Y-47159193D01*
X113749610Y-47171381D01*
X113732365Y-47181579D01*
X113714904Y-47190133D01*
X113696267Y-47197512D01*
X113660931Y-47223185D01*
X113651174Y-47229595D01*
X113613580Y-47251829D01*
X113599413Y-47265996D01*
X113584624Y-47278626D01*
X113568413Y-47290404D01*
X113540572Y-47324058D01*
X113532711Y-47332697D01*
X113527227Y-47338181D01*
X113465904Y-47371666D01*
X113439546Y-47374500D01*
X112553141Y-47374500D01*
X112553121Y-47374500D01*
X112549992Y-47374501D01*
X112546860Y-47374820D01*
X112546858Y-47374821D01*
X112447203Y-47385000D01*
X112280665Y-47440186D01*
X112131342Y-47532288D01*
X112007288Y-47656342D01*
X111915186Y-47805665D01*
X111860000Y-47972202D01*
X111849819Y-48071858D01*
X111849817Y-48071878D01*
X111849500Y-48074991D01*
X111849500Y-48078138D01*
X111849500Y-48078139D01*
X111849500Y-49421859D01*
X111849500Y-49421878D01*
X111050500Y-49421878D01*
X111050499Y-48074992D01*
X111039999Y-47972203D01*
X110984814Y-47805666D01*
X110896291Y-47662146D01*
X110892711Y-47656342D01*
X110768657Y-47532288D01*
X110619334Y-47440186D01*
X110452797Y-47385000D01*
X110353141Y-47374819D01*
X110353122Y-47374818D01*
X110350009Y-47374500D01*
X110346860Y-47374500D01*
X109453141Y-47374500D01*
X109453121Y-47374500D01*
X109449992Y-47374501D01*
X109446860Y-47374820D01*
X109446858Y-47374821D01*
X109347203Y-47385000D01*
X109180665Y-47440186D01*
X109031342Y-47532288D01*
X108907288Y-47656342D01*
X108815186Y-47805665D01*
X108760000Y-47972202D01*
X108749819Y-48071858D01*
X108749817Y-48071878D01*
X108749500Y-48074991D01*
X108749500Y-48078119D01*
X108749499Y-48078139D01*
X108749499Y-48814546D01*
X108729814Y-48881586D01*
X108713180Y-48902227D01*
X108552226Y-49063182D01*
X108490906Y-49096666D01*
X108464547Y-49099500D01*
X108405352Y-49099500D01*
X108220197Y-49138855D01*
X108047269Y-49215848D01*
X107894129Y-49327110D01*
X107767466Y-49467783D01*
X107672820Y-49631715D01*
X107614326Y-49811742D01*
X107597882Y-49968202D01*
X107594540Y-50000000D01*
X104333990Y-50000000D01*
X104467334Y-49955814D01*
X104616656Y-49863712D01*
X104740712Y-49739656D01*
X104832814Y-49590334D01*
X104887999Y-49423797D01*
X104898500Y-49321009D01*
X104898499Y-48420992D01*
X104887999Y-48318203D01*
X104832814Y-48151666D01*
X104768397Y-48047228D01*
X104740711Y-48002342D01*
X104616657Y-47878288D01*
X104467334Y-47786186D01*
X104300797Y-47731000D01*
X104201141Y-47720819D01*
X104201122Y-47720818D01*
X104198009Y-47720500D01*
X104194860Y-47720500D01*
X102851140Y-47720500D01*
X102851120Y-47720500D01*
X102847992Y-47720501D01*
X102844860Y-47720820D01*
X102844858Y-47720821D01*
X102745203Y-47731000D01*
X102578665Y-47786186D01*
X102498442Y-47835668D01*
X102431050Y-47854108D01*
X102364386Y-47833185D01*
X102360460Y-47830447D01*
X102355873Y-47827114D01*
X102355871Y-47827112D01*
X102202730Y-47715849D01*
X102202729Y-47715848D01*
X102202727Y-47715847D01*
X102029802Y-47638855D01*
X101844648Y-47599500D01*
X101844646Y-47599500D01*
X101655354Y-47599500D01*
X101655352Y-47599500D01*
X101470197Y-47638855D01*
X101297269Y-47715848D01*
X101144129Y-47827110D01*
X101017466Y-47967783D01*
X100922820Y-48131715D01*
X100864326Y-48311742D01*
X100844540Y-48500000D01*
X88676760Y-48500000D01*
X88816656Y-48413712D01*
X88940712Y-48289656D01*
X89032814Y-48140334D01*
X89035742Y-48131496D01*
X89075514Y-48074052D01*
X89140029Y-48047228D01*
X89153448Y-48046500D01*
X89960770Y-48046500D01*
X90027809Y-48066185D01*
X90048446Y-48082814D01*
X90077754Y-48112122D01*
X90104345Y-48138713D01*
X90179004Y-48184763D01*
X90253666Y-48230814D01*
X90365017Y-48267712D01*
X90420202Y-48285999D01*
X90519858Y-48296180D01*
X90519859Y-48296180D01*
X90522991Y-48296500D01*
X91923008Y-48296499D01*
X92025797Y-48285999D01*
X92192334Y-48230814D01*
X92341656Y-48138712D01*
X92465712Y-48014656D01*
X92557814Y-47865334D01*
X92612999Y-47698797D01*
X92623500Y-47596009D01*
X92623499Y-46845992D01*
X92612999Y-46743203D01*
X92557814Y-46576666D01*
X92465712Y-46427344D01*
X92465711Y-46427342D01*
X92465310Y-46426941D01*
X92464122Y-46424766D01*
X92458103Y-46415007D01*
X92458619Y-46414688D01*
X92431825Y-46365618D01*
X92436809Y-46295926D01*
X92478681Y-46239993D01*
X92493961Y-46230213D01*
X92677469Y-46130903D01*
X92865832Y-45984295D01*
X93027494Y-45808682D01*
X93053192Y-45769348D01*
X93106337Y-45723992D01*
X93175568Y-45714568D01*
X93238904Y-45744069D01*
X93260807Y-45769346D01*
X93286506Y-45808682D01*
X93448168Y-45984295D01*
X93636531Y-46130903D01*
X93846455Y-46244509D01*
X93846458Y-46244510D01*
X93846460Y-46244511D01*
X94072211Y-46322011D01*
X94072215Y-46322011D01*
X94072216Y-46322012D01*
X94307653Y-46361300D01*
X94307654Y-46361300D01*
X94546346Y-46361300D01*
X94546347Y-46361300D01*
X94781784Y-46322012D01*
X94781785Y-46322011D01*
X94781788Y-46322011D01*
X95007539Y-46244511D01*
X95007538Y-46244511D01*
X95007545Y-46244509D01*
X95217469Y-46130903D01*
X95405832Y-45984295D01*
X95441085Y-45946000D01*
X127600001Y-45946000D01*
X127600001Y-46067829D01*
X127600321Y-46074111D01*
X127610493Y-46173695D01*
X127665642Y-46340122D01*
X127757683Y-46489345D01*
X127881654Y-46613316D01*
X128030877Y-46705357D01*
X128197303Y-46760506D01*
X128296890Y-46770680D01*
X128303168Y-46770999D01*
X128749999Y-46770999D01*
X128750000Y-46770998D01*
X128750000Y-45946000D01*
X129250000Y-45946000D01*
X129250000Y-46770999D01*
X129696829Y-46770999D01*
X129703111Y-46770678D01*
X129802695Y-46760506D01*
X129969122Y-46705357D01*
X130118345Y-46613316D01*
X130242316Y-46489345D01*
X130334357Y-46340122D01*
X130389506Y-46173696D01*
X130399680Y-46074109D01*
X130400000Y-46067831D01*
X130400000Y-45946000D01*
X129250000Y-45946000D01*
X128750000Y-45946000D01*
X127600001Y-45946000D01*
X95441085Y-45946000D01*
X95567494Y-45808682D01*
X95698047Y-45608856D01*
X95769482Y-45446000D01*
X127600000Y-45446000D01*
X128750000Y-45446000D01*
X128750000Y-44621000D01*
X129250000Y-44621000D01*
X129250000Y-45446000D01*
X130399999Y-45446000D01*
X130399999Y-45324170D01*
X130399678Y-45317888D01*
X130389506Y-45218304D01*
X130334357Y-45051877D01*
X130242316Y-44902654D01*
X130118345Y-44778683D01*
X129969122Y-44686642D01*
X129802696Y-44631493D01*
X129703109Y-44621319D01*
X129696832Y-44621000D01*
X129250000Y-44621000D01*
X128750000Y-44621000D01*
X128303171Y-44621000D01*
X128296888Y-44621321D01*
X128197304Y-44631493D01*
X128030877Y-44686642D01*
X127881654Y-44778683D01*
X127757683Y-44902654D01*
X127665642Y-45051877D01*
X127610493Y-45218303D01*
X127600319Y-45317890D01*
X127600000Y-45324168D01*
X127600000Y-45446000D01*
X95769482Y-45446000D01*
X95793929Y-45390267D01*
X95852525Y-45158878D01*
X95872236Y-44921000D01*
X95852525Y-44683122D01*
X95793929Y-44451733D01*
X95698047Y-44233144D01*
X95567494Y-44033318D01*
X95405832Y-43857705D01*
X95217469Y-43711097D01*
X95007545Y-43597491D01*
X95007543Y-43597490D01*
X95007539Y-43597488D01*
X94781788Y-43519988D01*
X94593434Y-43488557D01*
X94546347Y-43480700D01*
X94307653Y-43480700D01*
X94268413Y-43487248D01*
X94072211Y-43519988D01*
X93846460Y-43597488D01*
X93636529Y-43711098D01*
X93448167Y-43857705D01*
X93286505Y-44033318D01*
X93260808Y-44072651D01*
X93207661Y-44118007D01*
X93138430Y-44127430D01*
X93075094Y-44097927D01*
X93053192Y-44072651D01*
X93027494Y-44033318D01*
X92865832Y-43857705D01*
X92778983Y-43790108D01*
X92677469Y-43711097D01*
X92467545Y-43597491D01*
X92467543Y-43597490D01*
X92467539Y-43597488D01*
X92241788Y-43519988D01*
X92053434Y-43488557D01*
X92006347Y-43480700D01*
X91767653Y-43480700D01*
X91728413Y-43487248D01*
X91532211Y-43519988D01*
X91306460Y-43597488D01*
X91096529Y-43711098D01*
X90908167Y-43857705D01*
X90746507Y-44033316D01*
X90746506Y-44033318D01*
X90617001Y-44231541D01*
X90615952Y-44233146D01*
X90520071Y-44451731D01*
X90461474Y-44683126D01*
X90441763Y-44921000D01*
X90461474Y-45158873D01*
X90461474Y-45158876D01*
X90461475Y-45158878D01*
X90475902Y-45215848D01*
X90520071Y-45390268D01*
X90554073Y-45467784D01*
X90615953Y-45608856D01*
X90746506Y-45808682D01*
X90865108Y-45937519D01*
X90896029Y-46000172D01*
X90888169Y-46069598D01*
X90844022Y-46123753D01*
X90777604Y-46145444D01*
X90773877Y-46145500D01*
X90526141Y-46145500D01*
X90526121Y-46145500D01*
X90522992Y-46145501D01*
X90519860Y-46145820D01*
X90519858Y-46145821D01*
X90420203Y-46156000D01*
X90253665Y-46211186D01*
X90104342Y-46303288D01*
X89980288Y-46427342D01*
X89888187Y-46576664D01*
X89888186Y-46576666D01*
X89851496Y-46687389D01*
X89843836Y-46710505D01*
X89804063Y-46767949D01*
X89739547Y-46794772D01*
X89726130Y-46795500D01*
X89153448Y-46795500D01*
X89086409Y-46775815D01*
X89040654Y-46723011D01*
X89035742Y-46710503D01*
X89034037Y-46705357D01*
X89032814Y-46701666D01*
X88940712Y-46552344D01*
X88940711Y-46552342D01*
X88863614Y-46475245D01*
X88830129Y-46413922D01*
X88833363Y-46349249D01*
X88885674Y-46188256D01*
X88905460Y-46000000D01*
X88885674Y-45811744D01*
X88827179Y-45631716D01*
X88827179Y-45631715D01*
X88732533Y-45467783D01*
X88605870Y-45327110D01*
X88452730Y-45215848D01*
X88279802Y-45138855D01*
X88094648Y-45099500D01*
X88094646Y-45099500D01*
X87905354Y-45099500D01*
X87905352Y-45099500D01*
X87720197Y-45138855D01*
X87547269Y-45215848D01*
X87394129Y-45327110D01*
X87267466Y-45467783D01*
X87172820Y-45631715D01*
X87114326Y-45811742D01*
X87114325Y-45811744D01*
X87114326Y-45811744D01*
X87094540Y-46000000D01*
X87108298Y-46130903D01*
X87109175Y-46139242D01*
X87096605Y-46207971D01*
X87048873Y-46258995D01*
X86998455Y-46275561D01*
X86945203Y-46281000D01*
X86778665Y-46336186D01*
X86629342Y-46428288D01*
X86505288Y-46552342D01*
X86413186Y-46701665D01*
X86358000Y-46868202D01*
X86347819Y-46967858D01*
X86347817Y-46967878D01*
X86347500Y-46970991D01*
X86347500Y-46974138D01*
X86347500Y-46974139D01*
X86347500Y-47867858D01*
X86347500Y-47867877D01*
X71531290Y-47867877D01*
X71441047Y-47662144D01*
X71310494Y-47462318D01*
X71148832Y-47286705D01*
X71008976Y-47177851D01*
X70968165Y-47121144D01*
X70964490Y-47051371D01*
X70999121Y-46990687D01*
X71008965Y-46982157D01*
X71148832Y-46873295D01*
X71310494Y-46697682D01*
X71441047Y-46497856D01*
X71536929Y-46279267D01*
X71595525Y-46047878D01*
X71615236Y-45810000D01*
X71595525Y-45572122D01*
X71536929Y-45340733D01*
X71441047Y-45122144D01*
X71310494Y-44922318D01*
X71309281Y-44921000D01*
X80027763Y-44921000D01*
X80047474Y-45158873D01*
X80047474Y-45158876D01*
X80047475Y-45158878D01*
X80061902Y-45215848D01*
X80106071Y-45390268D01*
X80140073Y-45467784D01*
X80201953Y-45608856D01*
X80332506Y-45808682D01*
X80494168Y-45984295D01*
X80682531Y-46130903D01*
X80892455Y-46244509D01*
X80892458Y-46244510D01*
X80892460Y-46244511D01*
X81118211Y-46322011D01*
X81118215Y-46322011D01*
X81118216Y-46322012D01*
X81353653Y-46361300D01*
X81353654Y-46361300D01*
X81592346Y-46361300D01*
X81592347Y-46361300D01*
X81827784Y-46322012D01*
X81827785Y-46322011D01*
X81827788Y-46322011D01*
X82053539Y-46244511D01*
X82053538Y-46244511D01*
X82053545Y-46244509D01*
X82263469Y-46130903D01*
X82451832Y-45984295D01*
X82613494Y-45808682D01*
X82639192Y-45769348D01*
X82692337Y-45723992D01*
X82761568Y-45714568D01*
X82824904Y-45744069D01*
X82846807Y-45769346D01*
X82872506Y-45808682D01*
X83034168Y-45984295D01*
X83222531Y-46130903D01*
X83432455Y-46244509D01*
X83432458Y-46244510D01*
X83432460Y-46244511D01*
X83658211Y-46322011D01*
X83658215Y-46322011D01*
X83658216Y-46322012D01*
X83893653Y-46361300D01*
X83893654Y-46361300D01*
X84132346Y-46361300D01*
X84132347Y-46361300D01*
X84367784Y-46322012D01*
X84367785Y-46322011D01*
X84367788Y-46322011D01*
X84593539Y-46244511D01*
X84593538Y-46244511D01*
X84593545Y-46244509D01*
X84803469Y-46130903D01*
X84991832Y-45984295D01*
X85153494Y-45808682D01*
X85284047Y-45608856D01*
X85379929Y-45390267D01*
X85438525Y-45158878D01*
X85458236Y-44921000D01*
X85438525Y-44683122D01*
X85379929Y-44451733D01*
X85284047Y-44233144D01*
X85153494Y-44033318D01*
X84991832Y-43857705D01*
X84803469Y-43711097D01*
X84593545Y-43597491D01*
X84593543Y-43597490D01*
X84593539Y-43597488D01*
X84367788Y-43519988D01*
X84179434Y-43488557D01*
X84132347Y-43480700D01*
X83893653Y-43480700D01*
X83854413Y-43487248D01*
X83658211Y-43519988D01*
X83432460Y-43597488D01*
X83222529Y-43711098D01*
X83034167Y-43857705D01*
X82872505Y-44033318D01*
X82846808Y-44072651D01*
X82793661Y-44118007D01*
X82724430Y-44127430D01*
X82661094Y-44097927D01*
X82639192Y-44072651D01*
X82613494Y-44033318D01*
X82451832Y-43857705D01*
X82364983Y-43790108D01*
X82263469Y-43711097D01*
X82053545Y-43597491D01*
X82053543Y-43597490D01*
X82053539Y-43597488D01*
X81827788Y-43519988D01*
X81639434Y-43488557D01*
X81592347Y-43480700D01*
X81353653Y-43480700D01*
X81314413Y-43487248D01*
X81118211Y-43519988D01*
X80892460Y-43597488D01*
X80682529Y-43711098D01*
X80494167Y-43857705D01*
X80332507Y-44033316D01*
X80332506Y-44033318D01*
X80203001Y-44231541D01*
X80201952Y-44233146D01*
X80106071Y-44451731D01*
X80047474Y-44683126D01*
X80027763Y-44921000D01*
X71309281Y-44921000D01*
X71148832Y-44746705D01*
X71008976Y-44637851D01*
X70968165Y-44581144D01*
X70964490Y-44511371D01*
X70999121Y-44450687D01*
X71008965Y-44442157D01*
X71148832Y-44333295D01*
X71310494Y-44157682D01*
X71441047Y-43957856D01*
X71536929Y-43739267D01*
X71595525Y-43507878D01*
X71615236Y-43270000D01*
X71612279Y-43234315D01*
X71626359Y-43165880D01*
X71675204Y-43115920D01*
X71743305Y-43100299D01*
X71809040Y-43123976D01*
X71811977Y-43126191D01*
X71919531Y-43209903D01*
X72129455Y-43323509D01*
X72129458Y-43323510D01*
X72129460Y-43323511D01*
X72355211Y-43401011D01*
X72355215Y-43401011D01*
X72355216Y-43401012D01*
X72590653Y-43440300D01*
X72590654Y-43440300D01*
X72829346Y-43440300D01*
X72829347Y-43440300D01*
X73064784Y-43401012D01*
X73064785Y-43401011D01*
X73064788Y-43401011D01*
X73290539Y-43323511D01*
X73290538Y-43323511D01*
X73290545Y-43323509D01*
X73500469Y-43209903D01*
X73688832Y-43063295D01*
X73850494Y-42887682D01*
X73876490Y-42847892D01*
X73929635Y-42802536D01*
X73998866Y-42793112D01*
X74062202Y-42822613D01*
X74065021Y-42825867D01*
X74070057Y-42826389D01*
X74760477Y-42135968D01*
X74783155Y-42213201D01*
X74862131Y-42336090D01*
X74972530Y-42431752D01*
X75105408Y-42492435D01*
X75110399Y-42493152D01*
X74422839Y-43180711D01*
X74422840Y-43180712D01*
X74459804Y-43209483D01*
X74669658Y-43323050D01*
X74895336Y-43400525D01*
X75130696Y-43439800D01*
X75369304Y-43439800D01*
X75604663Y-43400525D01*
X75830342Y-43323050D01*
X76040193Y-43209485D01*
X76077158Y-43180712D01*
X76077158Y-43180711D01*
X75389599Y-42493152D01*
X75394592Y-42492435D01*
X75527470Y-42431752D01*
X75637869Y-42336090D01*
X75716845Y-42213201D01*
X75739521Y-42135969D01*
X76429941Y-42826389D01*
X76442629Y-42825073D01*
X76469037Y-42802536D01*
X76538268Y-42793111D01*
X76601604Y-42822612D01*
X76623509Y-42847891D01*
X76649506Y-42887682D01*
X76811168Y-43063295D01*
X76999531Y-43209903D01*
X77209455Y-43323509D01*
X77209458Y-43323510D01*
X77209460Y-43323511D01*
X77435211Y-43401011D01*
X77435215Y-43401011D01*
X77435216Y-43401012D01*
X77670653Y-43440300D01*
X77670654Y-43440300D01*
X77909346Y-43440300D01*
X77909347Y-43440300D01*
X78144784Y-43401012D01*
X78144785Y-43401011D01*
X78144788Y-43401011D01*
X78370539Y-43323511D01*
X78370538Y-43323511D01*
X78370545Y-43323509D01*
X78580469Y-43209903D01*
X78768832Y-43063295D01*
X78930494Y-42887682D01*
X78956192Y-42848348D01*
X79009337Y-42802992D01*
X79078568Y-42793568D01*
X79141904Y-42823069D01*
X79163807Y-42848346D01*
X79189506Y-42887682D01*
X79351168Y-43063295D01*
X79539531Y-43209903D01*
X79749455Y-43323509D01*
X79749458Y-43323510D01*
X79749460Y-43323511D01*
X79975211Y-43401011D01*
X79975215Y-43401011D01*
X79975216Y-43401012D01*
X80210653Y-43440300D01*
X80210654Y-43440300D01*
X80449346Y-43440300D01*
X80449347Y-43440300D01*
X80684784Y-43401012D01*
X80684785Y-43401011D01*
X80684788Y-43401011D01*
X80910539Y-43323511D01*
X80910538Y-43323511D01*
X80910545Y-43323509D01*
X81120469Y-43209903D01*
X81308832Y-43063295D01*
X81470494Y-42887682D01*
X81496192Y-42848348D01*
X81549337Y-42802992D01*
X81618568Y-42793568D01*
X81681904Y-42823069D01*
X81703807Y-42848346D01*
X81729506Y-42887682D01*
X81891168Y-43063295D01*
X82079531Y-43209903D01*
X82289455Y-43323509D01*
X82289458Y-43323510D01*
X82289460Y-43323511D01*
X82515211Y-43401011D01*
X82515215Y-43401011D01*
X82515216Y-43401012D01*
X82750653Y-43440300D01*
X82750654Y-43440300D01*
X82989346Y-43440300D01*
X82989347Y-43440300D01*
X83224784Y-43401012D01*
X83224785Y-43401011D01*
X83224788Y-43401011D01*
X83450539Y-43323511D01*
X83450538Y-43323511D01*
X83450545Y-43323509D01*
X83660469Y-43209903D01*
X83848832Y-43063295D01*
X84010494Y-42887682D01*
X84036192Y-42848348D01*
X84089337Y-42802992D01*
X84158568Y-42793568D01*
X84221904Y-42823069D01*
X84243807Y-42848346D01*
X84269506Y-42887682D01*
X84431168Y-43063295D01*
X84619531Y-43209903D01*
X84829455Y-43323509D01*
X84829458Y-43323510D01*
X84829460Y-43323511D01*
X85055211Y-43401011D01*
X85055215Y-43401011D01*
X85055216Y-43401012D01*
X85290653Y-43440300D01*
X85290654Y-43440300D01*
X85529346Y-43440300D01*
X85529347Y-43440300D01*
X85764784Y-43401012D01*
X85764785Y-43401011D01*
X85764788Y-43401011D01*
X85990539Y-43323511D01*
X85990538Y-43323511D01*
X85990545Y-43323509D01*
X86200469Y-43209903D01*
X86388832Y-43063295D01*
X86550494Y-42887682D01*
X86576191Y-42848348D01*
X86629334Y-42802993D01*
X86698565Y-42793568D01*
X86761902Y-42823068D01*
X86783807Y-42848348D01*
X86800612Y-42874069D01*
X86809506Y-42887682D01*
X86971168Y-43063295D01*
X87159531Y-43209903D01*
X87369455Y-43323509D01*
X87369458Y-43323510D01*
X87369460Y-43323511D01*
X87595211Y-43401011D01*
X87595215Y-43401011D01*
X87595216Y-43401012D01*
X87830653Y-43440300D01*
X87830654Y-43440300D01*
X88069346Y-43440300D01*
X88069347Y-43440300D01*
X88304784Y-43401012D01*
X88304785Y-43401011D01*
X88304788Y-43401011D01*
X88530539Y-43323511D01*
X88530538Y-43323511D01*
X88530545Y-43323509D01*
X88740469Y-43209903D01*
X88928832Y-43063295D01*
X89090494Y-42887682D01*
X89116191Y-42848348D01*
X89169334Y-42802993D01*
X89238565Y-42793568D01*
X89301902Y-42823068D01*
X89323807Y-42848348D01*
X89340612Y-42874069D01*
X89349506Y-42887682D01*
X89511168Y-43063295D01*
X89699531Y-43209903D01*
X89909455Y-43323509D01*
X89909458Y-43323510D01*
X89909460Y-43323511D01*
X90135211Y-43401011D01*
X90135215Y-43401011D01*
X90135216Y-43401012D01*
X90370653Y-43440300D01*
X90370654Y-43440300D01*
X90609346Y-43440300D01*
X90609347Y-43440300D01*
X90844784Y-43401012D01*
X90844785Y-43401011D01*
X90844788Y-43401011D01*
X91070539Y-43323511D01*
X91070538Y-43323511D01*
X91070545Y-43323509D01*
X91280469Y-43209903D01*
X91468832Y-43063295D01*
X91630494Y-42887682D01*
X91656192Y-42848348D01*
X91709337Y-42802992D01*
X91778568Y-42793568D01*
X91841904Y-42823069D01*
X91863807Y-42848346D01*
X91889506Y-42887682D01*
X92051168Y-43063295D01*
X92239531Y-43209903D01*
X92449455Y-43323509D01*
X92449458Y-43323510D01*
X92449460Y-43323511D01*
X92675211Y-43401011D01*
X92675215Y-43401011D01*
X92675216Y-43401012D01*
X92910653Y-43440300D01*
X92910654Y-43440300D01*
X93149346Y-43440300D01*
X93149347Y-43440300D01*
X93384784Y-43401012D01*
X93384785Y-43401011D01*
X93384788Y-43401011D01*
X93610539Y-43323511D01*
X93610538Y-43323511D01*
X93610545Y-43323509D01*
X93820469Y-43209903D01*
X94008832Y-43063295D01*
X94170494Y-42887682D01*
X94196192Y-42848348D01*
X94249337Y-42802992D01*
X94318568Y-42793568D01*
X94381904Y-42823069D01*
X94403807Y-42848346D01*
X94429506Y-42887682D01*
X94591168Y-43063295D01*
X94779531Y-43209903D01*
X94989455Y-43323509D01*
X94989458Y-43323510D01*
X94989460Y-43323511D01*
X95215211Y-43401011D01*
X95215215Y-43401011D01*
X95215216Y-43401012D01*
X95450653Y-43440300D01*
X95450654Y-43440300D01*
X95689346Y-43440300D01*
X95689347Y-43440300D01*
X95924784Y-43401012D01*
X95924785Y-43401011D01*
X95924788Y-43401011D01*
X96150539Y-43323511D01*
X96150538Y-43323511D01*
X96150545Y-43323509D01*
X96360469Y-43209903D01*
X96548832Y-43063295D01*
X96710494Y-42887682D01*
X96736192Y-42848348D01*
X96789337Y-42802992D01*
X96858568Y-42793568D01*
X96921904Y-42823069D01*
X96943807Y-42848346D01*
X96969506Y-42887682D01*
X97131168Y-43063295D01*
X97319531Y-43209903D01*
X97529455Y-43323509D01*
X97529458Y-43323510D01*
X97529460Y-43323511D01*
X97755211Y-43401011D01*
X97755215Y-43401011D01*
X97755216Y-43401012D01*
X97990653Y-43440300D01*
X97990654Y-43440300D01*
X98229346Y-43440300D01*
X98229347Y-43440300D01*
X98464784Y-43401012D01*
X98464785Y-43401011D01*
X98464788Y-43401011D01*
X98690539Y-43323511D01*
X98690538Y-43323511D01*
X98690545Y-43323509D01*
X98900469Y-43209903D01*
X99088832Y-43063295D01*
X99250494Y-42887682D01*
X99276192Y-42848348D01*
X99329337Y-42802992D01*
X99398568Y-42793568D01*
X99461904Y-42823069D01*
X99483807Y-42848346D01*
X99509506Y-42887682D01*
X99671168Y-43063295D01*
X99859531Y-43209903D01*
X100069455Y-43323509D01*
X100069458Y-43323510D01*
X100069460Y-43323511D01*
X100295211Y-43401011D01*
X100295215Y-43401011D01*
X100295216Y-43401012D01*
X100530653Y-43440300D01*
X100530654Y-43440300D01*
X100769346Y-43440300D01*
X100769347Y-43440300D01*
X101004784Y-43401012D01*
X101004785Y-43401011D01*
X101004788Y-43401011D01*
X101230539Y-43323511D01*
X101230538Y-43323511D01*
X101230545Y-43323509D01*
X101440469Y-43209903D01*
X101628832Y-43063295D01*
X101790494Y-42887682D01*
X101921047Y-42687856D01*
X102016929Y-42469267D01*
X102075525Y-42237878D01*
X102095236Y-42000000D01*
X102075525Y-41762122D01*
X102016929Y-41530733D01*
X101921047Y-41312144D01*
X101790494Y-41112318D01*
X101628832Y-40936705D01*
X101440469Y-40790097D01*
X101230545Y-40676491D01*
X101230543Y-40676490D01*
X101230539Y-40676488D01*
X101004788Y-40598988D01*
X100816434Y-40567557D01*
X100769347Y-40559700D01*
X100530653Y-40559700D01*
X100491413Y-40566248D01*
X100295211Y-40598988D01*
X100069460Y-40676488D01*
X99859529Y-40790098D01*
X99671167Y-40936705D01*
X99509505Y-41112318D01*
X99483808Y-41151651D01*
X99430661Y-41197007D01*
X99361430Y-41206430D01*
X99298094Y-41176927D01*
X99276192Y-41151651D01*
X99250494Y-41112318D01*
X99088832Y-40936705D01*
X98900470Y-40790098D01*
X98900469Y-40790097D01*
X98690545Y-40676491D01*
X98690543Y-40676490D01*
X98690539Y-40676488D01*
X98464788Y-40598988D01*
X98276434Y-40567557D01*
X98229347Y-40559700D01*
X97990653Y-40559700D01*
X97951413Y-40566248D01*
X97755211Y-40598988D01*
X97529460Y-40676488D01*
X97319529Y-40790098D01*
X97131167Y-40936705D01*
X96969505Y-41112318D01*
X96943808Y-41151651D01*
X96890661Y-41197007D01*
X96821430Y-41206430D01*
X96758094Y-41176927D01*
X96736192Y-41151651D01*
X96710494Y-41112318D01*
X96548832Y-40936705D01*
X96360470Y-40790098D01*
X96360469Y-40790097D01*
X96150545Y-40676491D01*
X96150543Y-40676490D01*
X96150539Y-40676488D01*
X95924788Y-40598988D01*
X95736434Y-40567557D01*
X95689347Y-40559700D01*
X95450653Y-40559700D01*
X95411413Y-40566248D01*
X95215211Y-40598988D01*
X94989460Y-40676488D01*
X94779529Y-40790098D01*
X94591167Y-40936705D01*
X94429505Y-41112318D01*
X94403808Y-41151651D01*
X94350661Y-41197007D01*
X94281430Y-41206430D01*
X94218094Y-41176927D01*
X94196192Y-41151651D01*
X94170494Y-41112318D01*
X94008832Y-40936705D01*
X93820470Y-40790098D01*
X93820469Y-40790097D01*
X93610545Y-40676491D01*
X93610543Y-40676490D01*
X93610539Y-40676488D01*
X93384788Y-40598988D01*
X93196434Y-40567557D01*
X93149347Y-40559700D01*
X92910653Y-40559700D01*
X92871413Y-40566248D01*
X92675211Y-40598988D01*
X92449460Y-40676488D01*
X92239529Y-40790098D01*
X92051167Y-40936705D01*
X91889505Y-41112318D01*
X91863808Y-41151651D01*
X91810661Y-41197007D01*
X91741430Y-41206430D01*
X91678094Y-41176927D01*
X91656192Y-41151651D01*
X91630494Y-41112318D01*
X91468828Y-40936701D01*
X91318250Y-40819502D01*
X91277437Y-40762792D01*
X91270504Y-40716883D01*
X91274588Y-40610700D01*
X91361468Y-38351809D01*
X91383713Y-38285580D01*
X91411061Y-38257315D01*
X91477546Y-38207546D01*
X91563796Y-38092331D01*
X91613003Y-37960399D01*
X91654873Y-37904467D01*
X91720337Y-37880050D01*
X91788610Y-37894901D01*
X91816865Y-37916053D01*
X91938918Y-38038106D01*
X92132423Y-38173600D01*
X92346509Y-38273430D01*
X92560000Y-38330634D01*
X92560000Y-37435501D01*
X92667685Y-37484680D01*
X92774237Y-37500000D01*
X92845763Y-37500000D01*
X92952315Y-37484680D01*
X93060000Y-37435501D01*
X93060000Y-38330633D01*
X93273490Y-38273430D01*
X93487576Y-38173600D01*
X93681081Y-38038106D01*
X93848106Y-37871081D01*
X93978425Y-37684968D01*
X94033002Y-37641344D01*
X94102501Y-37634151D01*
X94164855Y-37665673D01*
X94181575Y-37684968D01*
X94311893Y-37871081D01*
X94478918Y-38038106D01*
X94672423Y-38173600D01*
X94886509Y-38273430D01*
X95100000Y-38330634D01*
X95100000Y-37435501D01*
X95207685Y-37484680D01*
X95314237Y-37500000D01*
X95385763Y-37500000D01*
X95492315Y-37484680D01*
X95600000Y-37435501D01*
X95600000Y-38330633D01*
X95813490Y-38273430D01*
X96027576Y-38173600D01*
X96221081Y-38038106D01*
X96388109Y-37871078D01*
X96518119Y-37685405D01*
X96572696Y-37641780D01*
X96642194Y-37634586D01*
X96704549Y-37666109D01*
X96721265Y-37685400D01*
X96851505Y-37871401D01*
X97018599Y-38038495D01*
X97212170Y-38174035D01*
X97426337Y-38273903D01*
X97638059Y-38330633D01*
X97654592Y-38335063D01*
X97889999Y-38355659D01*
X97889999Y-38355658D01*
X97890000Y-38355659D01*
X98125408Y-38335063D01*
X98353663Y-38273903D01*
X98567830Y-38174035D01*
X98761401Y-38038495D01*
X98928495Y-37871401D01*
X99058426Y-37685839D01*
X99113002Y-37642216D01*
X99182500Y-37635022D01*
X99244855Y-37666545D01*
X99261571Y-37685837D01*
X99391505Y-37871401D01*
X99558599Y-38038495D01*
X99752170Y-38174035D01*
X99966337Y-38273903D01*
X100194592Y-38335063D01*
X100430000Y-38355659D01*
X100665408Y-38335063D01*
X100893663Y-38273903D01*
X101107830Y-38174035D01*
X101301401Y-38038495D01*
X101468495Y-37871401D01*
X101598426Y-37685839D01*
X101653002Y-37642216D01*
X101722500Y-37635022D01*
X101784855Y-37666545D01*
X101801571Y-37685837D01*
X101931505Y-37871401D01*
X102098599Y-38038495D01*
X102292170Y-38174035D01*
X102506337Y-38273903D01*
X102734592Y-38335063D01*
X102970000Y-38355659D01*
X103205408Y-38335063D01*
X103433663Y-38273903D01*
X103647830Y-38174035D01*
X103841401Y-38038495D01*
X104008495Y-37871401D01*
X104138426Y-37685839D01*
X104193002Y-37642216D01*
X104262500Y-37635022D01*
X104324855Y-37666545D01*
X104341571Y-37685837D01*
X104471505Y-37871401D01*
X104638599Y-38038495D01*
X104832170Y-38174035D01*
X105046337Y-38273903D01*
X105274592Y-38335063D01*
X105510000Y-38355659D01*
X105745408Y-38335063D01*
X105973663Y-38273903D01*
X106187830Y-38174035D01*
X106381401Y-38038495D01*
X106548495Y-37871401D01*
X106678426Y-37685839D01*
X106733002Y-37642216D01*
X106802500Y-37635022D01*
X106864855Y-37666545D01*
X106881571Y-37685837D01*
X107011505Y-37871401D01*
X107178599Y-38038495D01*
X107372170Y-38174035D01*
X107586337Y-38273903D01*
X107798059Y-38330633D01*
X107814592Y-38335063D01*
X108049999Y-38355659D01*
X108049999Y-38355658D01*
X108050000Y-38355659D01*
X108285408Y-38335063D01*
X108513663Y-38273903D01*
X108727830Y-38174035D01*
X108921401Y-38038495D01*
X109088495Y-37871401D01*
X109218426Y-37685839D01*
X109273002Y-37642216D01*
X109342500Y-37635022D01*
X109404855Y-37666545D01*
X109421571Y-37685837D01*
X109551505Y-37871401D01*
X109718599Y-38038495D01*
X109912170Y-38174035D01*
X110126337Y-38273903D01*
X110354592Y-38335063D01*
X110590000Y-38355659D01*
X110825408Y-38335063D01*
X111053663Y-38273903D01*
X111267830Y-38174035D01*
X111461401Y-38038495D01*
X111628495Y-37871401D01*
X111758426Y-37685839D01*
X111813002Y-37642216D01*
X111882500Y-37635022D01*
X111944855Y-37666545D01*
X111961571Y-37685837D01*
X112091505Y-37871401D01*
X112258599Y-38038495D01*
X112452170Y-38174035D01*
X112666337Y-38273903D01*
X112894592Y-38335063D01*
X113130000Y-38355659D01*
X113365408Y-38335063D01*
X113593663Y-38273903D01*
X113807830Y-38174035D01*
X114001401Y-38038495D01*
X114168495Y-37871401D01*
X114298426Y-37685839D01*
X114353002Y-37642216D01*
X114422500Y-37635022D01*
X114484855Y-37666545D01*
X114501571Y-37685837D01*
X114631505Y-37871401D01*
X114798599Y-38038495D01*
X114992170Y-38174035D01*
X115206337Y-38273903D01*
X115418059Y-38330633D01*
X115434592Y-38335063D01*
X115669999Y-38355659D01*
X115669999Y-38355658D01*
X115670000Y-38355659D01*
X115905408Y-38335063D01*
X116133663Y-38273903D01*
X116347830Y-38174035D01*
X116541401Y-38038495D01*
X116708495Y-37871401D01*
X116838426Y-37685839D01*
X116893002Y-37642216D01*
X116962500Y-37635022D01*
X117024855Y-37666545D01*
X117041571Y-37685837D01*
X117171505Y-37871401D01*
X117338599Y-38038495D01*
X117532170Y-38174035D01*
X117746337Y-38273903D01*
X117974592Y-38335063D01*
X118210000Y-38355659D01*
X118445408Y-38335063D01*
X118673663Y-38273903D01*
X118887830Y-38174035D01*
X119081401Y-38038495D01*
X119248495Y-37871401D01*
X119378426Y-37685839D01*
X119433002Y-37642216D01*
X119502500Y-37635022D01*
X119564855Y-37666545D01*
X119581571Y-37685837D01*
X119711505Y-37871401D01*
X119878599Y-38038495D01*
X120072170Y-38174035D01*
X120286337Y-38273903D01*
X120498059Y-38330633D01*
X120514592Y-38335063D01*
X120749999Y-38355659D01*
X120749999Y-38355658D01*
X120750000Y-38355659D01*
X120985408Y-38335063D01*
X121213663Y-38273903D01*
X121427830Y-38174035D01*
X121621401Y-38038495D01*
X121788495Y-37871401D01*
X121918426Y-37685839D01*
X121973002Y-37642216D01*
X122042500Y-37635022D01*
X122104855Y-37666545D01*
X122121571Y-37685837D01*
X122251505Y-37871401D01*
X122418599Y-38038495D01*
X122612170Y-38174035D01*
X122826337Y-38273903D01*
X123054592Y-38335063D01*
X123290000Y-38355659D01*
X123525408Y-38335063D01*
X123753663Y-38273903D01*
X123967830Y-38174035D01*
X124161401Y-38038495D01*
X124328495Y-37871401D01*
X124458426Y-37685839D01*
X124513002Y-37642216D01*
X124582500Y-37635022D01*
X124644855Y-37666545D01*
X124661571Y-37685837D01*
X124791505Y-37871401D01*
X124958599Y-38038495D01*
X125152170Y-38174035D01*
X125366337Y-38273903D01*
X125578059Y-38330633D01*
X125594592Y-38335063D01*
X125829999Y-38355659D01*
X125829999Y-38355658D01*
X125830000Y-38355659D01*
X126065408Y-38335063D01*
X126293663Y-38273903D01*
X126507830Y-38174035D01*
X126701401Y-38038495D01*
X126868495Y-37871401D01*
X126998426Y-37685839D01*
X127053002Y-37642216D01*
X127122500Y-37635022D01*
X127184855Y-37666545D01*
X127201571Y-37685837D01*
X127331505Y-37871401D01*
X127498599Y-38038495D01*
X127692170Y-38174035D01*
X127906337Y-38273903D01*
X128134592Y-38335063D01*
X128370000Y-38355659D01*
X128605408Y-38335063D01*
X128833663Y-38273903D01*
X129047830Y-38174035D01*
X129241401Y-38038495D01*
X129408495Y-37871401D01*
X129538732Y-37685403D01*
X129593307Y-37641780D01*
X129662805Y-37634586D01*
X129725160Y-37666109D01*
X129741880Y-37685404D01*
X129871893Y-37871081D01*
X130038918Y-38038106D01*
X130232423Y-38173600D01*
X130446507Y-38273430D01*
X130659998Y-38330634D01*
X130659999Y-38330634D01*
X130659999Y-37435501D01*
X130767685Y-37484680D01*
X130874237Y-37500000D01*
X130945763Y-37500000D01*
X131052315Y-37484680D01*
X131160000Y-37435501D01*
X131160000Y-38330634D01*
X131373490Y-38273430D01*
X131587576Y-38173600D01*
X131781081Y-38038106D01*
X131948106Y-37871081D01*
X132083600Y-37677576D01*
X132108427Y-37624335D01*
X133999500Y-37624335D01*
X134008384Y-37677576D01*
X134040429Y-37869615D01*
X134116888Y-38092331D01*
X134121172Y-38104810D01*
X134212425Y-38273430D01*
X134239529Y-38323514D01*
X134264549Y-38355659D01*
X134392262Y-38519744D01*
X134575215Y-38688164D01*
X134783393Y-38824173D01*
X135011119Y-38924063D01*
X135252179Y-38985108D01*
X135437933Y-39000500D01*
X135440503Y-39000500D01*
X135559497Y-39000500D01*
X135562067Y-39000500D01*
X135747821Y-38985108D01*
X135988881Y-38924063D01*
X136216607Y-38824173D01*
X136424785Y-38688164D01*
X136607738Y-38519744D01*
X136760474Y-38323509D01*
X136878828Y-38104810D01*
X136959571Y-37869614D01*
X137000500Y-37624335D01*
X137000500Y-37375665D01*
X136959571Y-37130386D01*
X136878828Y-36895190D01*
X136760474Y-36676491D01*
X136760471Y-36676487D01*
X136760470Y-36676485D01*
X136607740Y-36480259D01*
X136607738Y-36480256D01*
X136424785Y-36311836D01*
X136216607Y-36175827D01*
X136216604Y-36175825D01*
X136048590Y-36102128D01*
X135988881Y-36075937D01*
X135808867Y-36030351D01*
X135747822Y-36014892D01*
X135713854Y-36012077D01*
X135562067Y-35999500D01*
X135437933Y-35999500D01*
X135320111Y-36009262D01*
X135252177Y-36014892D01*
X135143091Y-36042517D01*
X135011119Y-36075937D01*
X135011116Y-36075938D01*
X135011117Y-36075938D01*
X134783395Y-36175825D01*
X134768544Y-36185528D01*
X134575215Y-36311836D01*
X134517488Y-36364978D01*
X134392259Y-36480259D01*
X134239529Y-36676485D01*
X134121170Y-36895194D01*
X134040429Y-37130384D01*
X134040429Y-37130386D01*
X133999500Y-37375665D01*
X133999500Y-37624335D01*
X132108427Y-37624335D01*
X132183430Y-37463492D01*
X132240636Y-37250000D01*
X131343686Y-37250000D01*
X131369493Y-37209844D01*
X131410000Y-37071889D01*
X131410000Y-36928111D01*
X131369493Y-36790156D01*
X131343686Y-36750000D01*
X132240636Y-36750000D01*
X132240635Y-36749999D01*
X132183430Y-36536507D01*
X132083599Y-36322421D01*
X131948109Y-36128921D01*
X131781081Y-35961893D01*
X131587576Y-35826399D01*
X131373492Y-35726569D01*
X131159999Y-35669364D01*
X131159999Y-36564498D01*
X131052315Y-36515320D01*
X130945763Y-36500000D01*
X130874237Y-36500000D01*
X130767685Y-36515320D01*
X130659999Y-36564498D01*
X130659999Y-35669364D01*
X130659998Y-35669364D01*
X130446507Y-35726569D01*
X130232421Y-35826400D01*
X130038921Y-35961890D01*
X129871893Y-36128918D01*
X129741880Y-36314596D01*
X129687303Y-36358220D01*
X129617804Y-36365413D01*
X129555450Y-36333891D01*
X129538730Y-36314595D01*
X129408495Y-36128599D01*
X129241401Y-35961505D01*
X129047830Y-35825965D01*
X128833663Y-35726097D01*
X128772501Y-35709709D01*
X128605407Y-35664936D01*
X128369999Y-35644340D01*
X128134592Y-35664936D01*
X127906336Y-35726097D01*
X127692170Y-35825965D01*
X127498598Y-35961505D01*
X127331505Y-36128598D01*
X127201575Y-36314159D01*
X127146998Y-36357784D01*
X127077500Y-36364978D01*
X127015145Y-36333455D01*
X126998425Y-36314159D01*
X126868494Y-36128598D01*
X126701404Y-35961508D01*
X126701401Y-35961505D01*
X126507830Y-35825965D01*
X126293663Y-35726097D01*
X126232502Y-35709709D01*
X126065407Y-35664936D01*
X125830000Y-35644340D01*
X125594592Y-35664936D01*
X125366336Y-35726097D01*
X125152170Y-35825965D01*
X124958598Y-35961505D01*
X124791505Y-36128598D01*
X124661575Y-36314159D01*
X124606998Y-36357784D01*
X124537500Y-36364978D01*
X124475145Y-36333455D01*
X124458425Y-36314159D01*
X124328494Y-36128598D01*
X124161404Y-35961508D01*
X124161401Y-35961505D01*
X123967830Y-35825965D01*
X123753663Y-35726097D01*
X123692502Y-35709709D01*
X123525407Y-35664936D01*
X123290000Y-35644340D01*
X123054592Y-35664936D01*
X122826336Y-35726097D01*
X122612170Y-35825965D01*
X122418598Y-35961505D01*
X122251505Y-36128598D01*
X122121575Y-36314159D01*
X122066998Y-36357784D01*
X121997500Y-36364978D01*
X121935145Y-36333455D01*
X121918425Y-36314159D01*
X121788494Y-36128598D01*
X121621404Y-35961508D01*
X121621403Y-35961508D01*
X121621401Y-35961505D01*
X121427830Y-35825965D01*
X121213663Y-35726097D01*
X121152501Y-35709709D01*
X120985407Y-35664936D01*
X120749999Y-35644340D01*
X120514592Y-35664936D01*
X120286336Y-35726097D01*
X120072170Y-35825965D01*
X119878598Y-35961505D01*
X119711505Y-36128598D01*
X119581575Y-36314159D01*
X119526998Y-36357784D01*
X119457500Y-36364978D01*
X119395145Y-36333455D01*
X119378425Y-36314159D01*
X119248494Y-36128598D01*
X119081404Y-35961508D01*
X119081401Y-35961505D01*
X118887830Y-35825965D01*
X118673663Y-35726097D01*
X118612501Y-35709709D01*
X118445407Y-35664936D01*
X118210000Y-35644340D01*
X117974592Y-35664936D01*
X117746336Y-35726097D01*
X117532170Y-35825965D01*
X117338598Y-35961505D01*
X117171505Y-36128598D01*
X117041575Y-36314159D01*
X116986998Y-36357784D01*
X116917500Y-36364978D01*
X116855145Y-36333455D01*
X116838425Y-36314159D01*
X116708494Y-36128598D01*
X116541404Y-35961508D01*
X116541401Y-35961505D01*
X116347830Y-35825965D01*
X116133663Y-35726097D01*
X116072501Y-35709709D01*
X115905407Y-35664936D01*
X115669999Y-35644340D01*
X115434592Y-35664936D01*
X115206336Y-35726097D01*
X114992170Y-35825965D01*
X114798598Y-35961505D01*
X114631505Y-36128598D01*
X114501575Y-36314159D01*
X114446998Y-36357784D01*
X114377500Y-36364978D01*
X114315145Y-36333455D01*
X114298425Y-36314159D01*
X114168494Y-36128598D01*
X114001404Y-35961508D01*
X114001401Y-35961505D01*
X113807830Y-35825965D01*
X113593663Y-35726097D01*
X113532501Y-35709709D01*
X113365407Y-35664936D01*
X113130000Y-35644340D01*
X112894592Y-35664936D01*
X112666336Y-35726097D01*
X112452170Y-35825965D01*
X112258598Y-35961505D01*
X112091508Y-36128595D01*
X111961574Y-36314160D01*
X111906997Y-36357785D01*
X111837498Y-36364977D01*
X111775144Y-36333455D01*
X111758429Y-36314164D01*
X111628495Y-36128599D01*
X111461401Y-35961505D01*
X111267830Y-35825965D01*
X111053663Y-35726097D01*
X110992502Y-35709709D01*
X110825407Y-35664936D01*
X110589999Y-35644340D01*
X110354592Y-35664936D01*
X110126336Y-35726097D01*
X109912170Y-35825965D01*
X109718598Y-35961505D01*
X109551505Y-36128598D01*
X109421575Y-36314159D01*
X109366998Y-36357784D01*
X109297500Y-36364978D01*
X109235145Y-36333455D01*
X109218425Y-36314159D01*
X109088494Y-36128598D01*
X108921404Y-35961508D01*
X108921401Y-35961505D01*
X108727830Y-35825965D01*
X108513663Y-35726097D01*
X108452502Y-35709709D01*
X108285407Y-35664936D01*
X108050000Y-35644340D01*
X107814592Y-35664936D01*
X107586336Y-35726097D01*
X107372170Y-35825965D01*
X107178598Y-35961505D01*
X107011508Y-36128595D01*
X106881574Y-36314160D01*
X106826997Y-36357785D01*
X106757498Y-36364977D01*
X106695144Y-36333455D01*
X106678429Y-36314164D01*
X106548495Y-36128599D01*
X106381401Y-35961505D01*
X106187830Y-35825965D01*
X105973663Y-35726097D01*
X105912502Y-35709709D01*
X105745407Y-35664936D01*
X105509999Y-35644340D01*
X105274592Y-35664936D01*
X105046336Y-35726097D01*
X104832170Y-35825965D01*
X104638598Y-35961505D01*
X104471505Y-36128598D01*
X104341575Y-36314159D01*
X104286998Y-36357784D01*
X104217500Y-36364978D01*
X104155145Y-36333455D01*
X104138425Y-36314159D01*
X104008494Y-36128598D01*
X103841404Y-35961508D01*
X103841401Y-35961505D01*
X103647830Y-35825965D01*
X103433663Y-35726097D01*
X103372502Y-35709709D01*
X103205407Y-35664936D01*
X102970000Y-35644340D01*
X102734592Y-35664936D01*
X102506336Y-35726097D01*
X102292170Y-35825965D01*
X102098598Y-35961505D01*
X101931508Y-36128595D01*
X101801574Y-36314160D01*
X101746997Y-36357785D01*
X101677498Y-36364977D01*
X101615144Y-36333455D01*
X101598429Y-36314164D01*
X101468495Y-36128599D01*
X101301401Y-35961505D01*
X101107830Y-35825965D01*
X100893663Y-35726097D01*
X100832502Y-35709709D01*
X100665407Y-35664936D01*
X100430000Y-35644340D01*
X100194592Y-35664936D01*
X99966336Y-35726097D01*
X99752170Y-35825965D01*
X99558598Y-35961505D01*
X99391505Y-36128598D01*
X99261575Y-36314159D01*
X99206998Y-36357784D01*
X99137500Y-36364978D01*
X99075145Y-36333455D01*
X99058425Y-36314159D01*
X98928494Y-36128598D01*
X98761404Y-35961508D01*
X98761401Y-35961505D01*
X98567830Y-35825965D01*
X98353663Y-35726097D01*
X98292502Y-35709709D01*
X98125407Y-35664936D01*
X97889999Y-35644340D01*
X97654592Y-35664936D01*
X97426336Y-35726097D01*
X97212170Y-35825965D01*
X97018598Y-35961505D01*
X96851508Y-36128595D01*
X96721269Y-36314596D01*
X96666692Y-36358220D01*
X96597193Y-36365413D01*
X96534839Y-36333891D01*
X96518119Y-36314595D01*
X96388109Y-36128921D01*
X96221081Y-35961893D01*
X96027576Y-35826399D01*
X95813492Y-35726569D01*
X95600000Y-35669364D01*
X95600000Y-36564498D01*
X95492315Y-36515320D01*
X95385763Y-36500000D01*
X95314237Y-36500000D01*
X95207685Y-36515320D01*
X95099999Y-36564498D01*
X95099999Y-35669364D01*
X94886507Y-35726569D01*
X94672421Y-35826400D01*
X94478921Y-35961890D01*
X94311893Y-36128918D01*
X94181575Y-36315032D01*
X94126998Y-36358656D01*
X94057499Y-36365849D01*
X93995145Y-36334327D01*
X93978425Y-36315032D01*
X93848106Y-36128918D01*
X93681081Y-35961893D01*
X93487576Y-35826399D01*
X93273492Y-35726569D01*
X93060000Y-35669364D01*
X93060000Y-36564498D01*
X92952315Y-36515320D01*
X92845763Y-36500000D01*
X92774237Y-36500000D01*
X92667685Y-36515320D01*
X92560000Y-36564498D01*
X92560000Y-35669364D01*
X92559999Y-35669364D01*
X92346507Y-35726569D01*
X92132421Y-35826400D01*
X91938924Y-35961888D01*
X91816865Y-36083947D01*
X91755542Y-36117431D01*
X91685850Y-36112447D01*
X91629917Y-36070575D01*
X91613002Y-36039598D01*
X91603787Y-36014892D01*
X91563796Y-35907669D01*
X91487096Y-35805211D01*
X91462679Y-35739749D01*
X91462455Y-35726153D01*
X91495414Y-34869233D01*
X91517660Y-34803001D01*
X91572184Y-34759309D01*
X91619322Y-34750000D01*
X138098500Y-34750000D01*
X138165539Y-34769685D01*
G37*
%TD.AperFunction*%
%TA.AperFunction,Conductor*%
G36*
X94890507Y-36790156D02*
G01*
X94850000Y-36928111D01*
X94850000Y-37071889D01*
X94890507Y-37209844D01*
X94916314Y-37250000D01*
X93243686Y-37250000D01*
X93269493Y-37209844D01*
X93310000Y-37071889D01*
X93310000Y-36928111D01*
X93269493Y-36790156D01*
X93243686Y-36750000D01*
X94916314Y-36750000D01*
X94890507Y-36790156D01*
G37*
%TD.AperFunction*%
%TD*%
M02*
